<svg xmlns="http://www.w3.org/2000/svg" width="56" height="42.662" viewBox="0 0 56 42.662">
  <g id="drivinglicense" transform="translate(-4 -10.669)">
    <path id="Path_11877" data-name="Path 11877" d="M50.942,30.79a1,1,0,0,0-1,1V48.331a3,3,0,0,1-3,3H9a3,3,0,0,1-3-3V28.45H41.692a1,1,0,0,0,0-2H6V23.79a3,3,0,0,1,3-3H38.882a1,1,0,1,0,0-2H9a5.006,5.006,0,0,0-5,5V48.331a5.006,5.006,0,0,0,5,5H46.942a5.006,5.006,0,0,0,5-5V31.79a1,1,0,0,0-1-1Z"/>
    <path id="Path_11878" data-name="Path 11878" d="M50.94,10.669a9.07,9.07,0,0,0-9.06,9.06c.476,12.01,17.646,12.006,18.12,0a9.07,9.07,0,0,0-9.06-9.059Zm0,2a7.065,7.065,0,0,1,6.981,6.06H53.771a3.01,3.01,0,0,0-5.662,0H43.96a7.065,7.065,0,0,1,6.98-6.06Zm0,8.074a1.015,1.015,0,1,1,1.015-1.015,1.015,1.015,0,0,1-1.015,1.015Zm-6.98-.015h4.149a3.01,3.01,0,0,0,1.831,1.831v4.149a7.064,7.064,0,0,1-5.98-5.98Zm7.98,5.98V22.56a3.01,3.01,0,0,0,1.831-1.831h4.149a7.064,7.064,0,0,1-5.981,5.98Z"/>
    <path id="Path_11879" data-name="Path 11879" d="M9.064,45.459a2.363,2.363,0,0,0,2.307,2.876H21.94a2.374,2.374,0,0,0,1.879-.916C25.5,44.9,22.175,41.2,19.973,40.255a5.06,5.06,0,0,0,1.773-3.831c-.213-6.725-9.968-6.729-10.182,0a5.06,5.06,0,0,0,1.774,3.83,7.79,7.79,0,0,0-4.274,5.2Zm4.5-9.034a3.091,3.091,0,1,1,3.091,3.091,3.091,3.091,0,0,1-3.091-3.091Zm3.091,5.092c2.625-.018,5.43,2,5.59,4.669a.39.39,0,0,1-.3.149H11.371a.392.392,0,0,1-.306-.149c.162-2.673,2.964-4.685,5.59-4.669Z"/>
    <path id="Path_11880" data-name="Path 11880" d="M44.052,33.334H27.969a1,1,0,0,0,0,2H44.052a1,1,0,1,0,0-2Z"/>
    <path id="Path_11881" data-name="Path 11881" d="M27.969,40.835H40.052a1,1,0,1,0,0-2H27.969a1,1,0,1,0,0,2Z"/>
    <path id="Path_11882" data-name="Path 11882" d="M27.969,46.335H44.052a1,1,0,0,0,0-2H27.969a1,1,0,1,0,0,2Z"/>
  </g>
</svg>
