<svg id="homelogo" xmlns="http://www.w3.org/2000/svg" width="137.925" height="99.812" viewBox="0 0 137.925 99.812">
  <g id="sublogo">
    <path id="Path_5852" data-name="Path 5852" d="M14.238-107.438a4.635,4.635,0,0,0,1.94,2.9,6.911,6.911,0,0,0,3.653.851,17.424,17.424,0,0,0,3.276-.351,19.879,19.879,0,0,0,3.578-1.052,15.985,15.985,0,0,1,1.235,3.1,14.619,14.619,0,0,1,.579,3.756,26.331,26.331,0,0,1-9.171,1.653,17.3,17.3,0,0,1-6.223-1,11.047,11.047,0,0,1-4.233-2.78,11.139,11.139,0,0,1-2.419-4.231,17.586,17.586,0,0,1-.781-5.359,17.383,17.383,0,0,1,.806-5.359A12.286,12.286,0,0,1,8.9-119.658a11.4,11.4,0,0,1,4.031-2.93,13.773,13.773,0,0,1,5.644-1.077,11.927,11.927,0,0,1,4.762.9,10.369,10.369,0,0,1,3.553,2.479,10.753,10.753,0,0,1,2.242,3.806,14.515,14.515,0,0,1,.781,4.833,21.069,21.069,0,0,1-.126,2.429q-.126,1.077-.227,1.778Zm4.031-9.866a4.1,4.1,0,0,0-2.772,1,4.486,4.486,0,0,0-1.361,3.1H22.2a4.871,4.871,0,0,0-1.084-2.93A3.5,3.5,0,0,0,18.269-117.3Zm30.084-1.853q2.116.851,3.8,1.728a11.411,11.411,0,0,1,2.9,2.1,8.381,8.381,0,0,1,1.865,2.955,11.826,11.826,0,0,1,.655,4.182,11.8,11.8,0,0,1-.932,4.783A9.94,9.94,0,0,1,53.9-99.752a12.718,12.718,0,0,1-4.46,2.354,20.377,20.377,0,0,1-6.072.826,27.146,27.146,0,0,1-5.518-.5,34.7,34.7,0,0,1-5.165-1.552,28.241,28.241,0,0,1,.705-3.731q.5-1.978,1.209-4.031a20.891,20.891,0,0,0,8.063,2,8.527,8.527,0,0,0,4.006-.776,2.788,2.788,0,0,0,1.436-2.68,2.927,2.927,0,0,0-.3-1.377,3.037,3.037,0,0,0-.806-.977,5.084,5.084,0,0,0-1.134-.676q-.63-.275-1.285-.526l-2.823-1.051a18.209,18.209,0,0,1-3.3-1.553,10.554,10.554,0,0,1-2.545-2.128,8.944,8.944,0,0,1-1.638-2.83,11.045,11.045,0,0,1-.579-3.756,11.546,11.546,0,0,1,.907-4.707,9.809,9.809,0,0,1,2.545-3.481,10.887,10.887,0,0,1,3.956-2.153,17.323,17.323,0,0,1,5.19-.726,24.179,24.179,0,0,1,4.964.5,41.05,41.05,0,0,1,5.115,1.453,25.468,25.468,0,0,1-.731,3.531,22.18,22.18,0,0,1-1.335,3.631q-1.31-.551-3.074-1.152a13.744,13.744,0,0,0-4.384-.6,7.618,7.618,0,0,0-1.537.15,4.514,4.514,0,0,0-1.31.476,2.533,2.533,0,0,0-.932.9,2.687,2.687,0,0,0-.353,1.427,2.492,2.492,0,0,0,.957,2.153,9.651,9.651,0,0,0,2.268,1.2Zm30.085,12.42H70.98v9.515q-1.31.2-2.368.3t-1.915.1q-.857,0-1.915-.1t-2.318-.3v-25.841a17.082,17.082,0,0,1,2.192-.351q1.083-.1,2.091-.1.958,0,2.066.1a15.427,15.427,0,0,1,2.167.351v8.814h7.458v-8.814a17.082,17.082,0,0,1,2.192-.351q1.083-.1,2.091-.1.957,0,2.066.1a15.428,15.428,0,0,1,2.167.351v25.841q-1.31.2-2.369.3t-1.915.1q-.857,0-1.915-.1t-2.318-.3Zm12.9-3.255a17.8,17.8,0,0,1,.831-5.584,11.853,11.853,0,0,1,2.469-4.332,10.9,10.9,0,0,1,4.057-2.78,14.862,14.862,0,0,1,5.594-.977,15.01,15.01,0,0,1,5.644.977,10.9,10.9,0,0,1,4.057,2.779,11.853,11.853,0,0,1,2.469,4.332,17.8,17.8,0,0,1,.832,5.584,17.165,17.165,0,0,1-.832,5.484,11.667,11.667,0,0,1-2.469,4.257,10.794,10.794,0,0,1-4.057,2.729,15.362,15.362,0,0,1-5.644.952,15.21,15.21,0,0,1-5.594-.952,10.794,10.794,0,0,1-4.057-2.729,11.667,11.667,0,0,1-2.469-4.257,17.164,17.164,0,0,1-.831-5.483Zm17.335,0a9.183,9.183,0,0,0-1.083-4.908,3.642,3.642,0,0,0-3.3-1.7,3.584,3.584,0,0,0-3.276,1.7,9.359,9.359,0,0,0-1.058,4.908,9.242,9.242,0,0,0,1.058,4.858,3.584,3.584,0,0,0,3.276,1.7,3.644,3.644,0,0,0,3.3-1.7,9.067,9.067,0,0,0,1.083-4.858Zm21.316.3a5.015,5.015,0,0,0,.63.075q.378.025.63.025a4.6,4.6,0,0,0,2.9-.876,3.543,3.543,0,0,0,1.134-2.98,3.469,3.469,0,0,0-1.134-2.779,4.136,4.136,0,0,0-2.8-.977h-.579a6.339,6.339,0,0,0-.781.05Zm-8.315-13.272q2.318-.35,4.762-.525t4.712-.175a24,24,0,0,1,4.535.426,11.259,11.259,0,0,1,3.981,1.552,8.372,8.372,0,0,1,2.847,3.1,10.645,10.645,0,0,1,1.083,5.134,10.624,10.624,0,0,1-.983,4.808,8.775,8.775,0,0,1-2.6,3.155,10.379,10.379,0,0,1-3.653,1.727,16.6,16.6,0,0,1-4.157.526q-.857,0-1.462-.05a4.465,4.465,0,0,1-.756-.1v6.16a20.592,20.592,0,0,1-2.343.326q-1.033.075-1.839.075-.857,0-1.839-.075a20.93,20.93,0,0,1-2.293-.326Z" transform="translate(-5.671 174.995)" fill="#6133bd"/>
    <path id="Delivery_Time" data-name="Delivery Time" d="M5.692-4.942a3.2,3.2,0,0,1-2.88,3.3.228.228,0,0,1-.123-.024A15.658,15.658,0,0,1,2.6-4.029c0-1.559.037-3.337.086-3.386,0-.012.061-.012.159-.012C3.462-7.426,5.692-7.159,5.692-4.942ZM1.685-.168c1.936,0,5.637-1.12,5.637-4.762,0-2.326-1.875-3.9-5.331-3.9a5.511,5.511,0,0,0-1.446.122c-.012.012-.012.024-.012.049a5.092,5.092,0,0,0,.551,1.437c0,1.474-.037,2.947-.037,4.811a12.874,12.874,0,0,0,.086,2.18A1.629,1.629,0,0,0,1.685-.168ZM11.746-4.431c0,.816-1.078,1.547-1.593,1.559-.049,0-.049-.037-.049-.171,0-.962.6-1.742,1.262-1.742A.345.345,0,0,1,11.746-4.431ZM11.207-.278a3.143,3.143,0,0,0,1.605-.28,1.964,1.964,0,0,0,.306-1.1c0-.073-.012-.231-.037-.231a.043.043,0,0,0-.025.012,2.977,2.977,0,0,1-1.471.329c-.637,0-.895-.256-.895-.329,1.569-.536,2.488-1.644,2.488-2.679A1.371,1.371,0,0,0,11.636-5.88,2.844,2.844,0,0,0,8.67-2.847,2.371,2.371,0,0,0,11.207-.278Zm4.9-5.31c0-.913.037-2.984.061-3.166,0-.024-.2-.049-.306-.049-.441,0-1.152.268-1.152.438,0,.134.049.438.049,1.668,0,1.936-.049,3.166-.049,4.409,0,.6,0,1.084.012,1.279.074.755.331,1.072.38,1.072a2.128,2.128,0,0,0,1.36-.658,1.957,1.957,0,0,1-.355-.974c-.025-.195-.025-.572-.025-1.035C16.084-3.761,16.109-4.674,16.109-5.587Zm3.578-1.425a.742.742,0,0,0-.76-.816.9.9,0,0,0-.87.816.725.725,0,0,0,.748.828A.9.9,0,0,0,19.687-7.012ZM19.221-5.49a1.707,1.707,0,0,0-.993.219c-.049.1-.086,1.949-.086,3.2,0,.5.012.9.025,1.06.074.755.319,1.072.368,1.072A2.128,2.128,0,0,0,19.9-.594a1.983,1.983,0,0,1-.331-.974c-.025-.207-.037-.694-.037-1.254,0-1.12.037-2.533.037-2.594C19.5-5.49,19.221-5.49,19.221-5.49Zm4.13,3.252c-.037.061-.049,0-.049,0-.38-.84-1.127-3.861-1.127-3.861a1.81,1.81,0,0,0-1.3.353c0,.889,1.556,4.8,1.556,5.383A1.676,1.676,0,0,0,23-.29a3.618,3.618,0,0,0,1.176-.195A53.917,53.917,0,0,0,26.035-6.55s-.074-.122-.748-.122c-.282,0-.748.085-.76.183A24.775,24.775,0,0,1,23.351-2.238Zm6.863-2.192c0,.816-1.078,1.547-1.593,1.559-.049,0-.049-.037-.049-.171,0-.962.6-1.742,1.262-1.742A.345.345,0,0,1,30.214-4.431ZM29.675-.278a3.143,3.143,0,0,0,1.605-.28,1.964,1.964,0,0,0,.306-1.1c0-.073-.012-.231-.037-.231a.043.043,0,0,0-.025.012,2.977,2.977,0,0,1-1.471.329c-.637,0-.895-.256-.895-.329,1.569-.536,2.488-1.644,2.488-2.679A1.371,1.371,0,0,0,30.1-5.88a2.844,2.844,0,0,0-2.966,3.032A2.371,2.371,0,0,0,29.675-.278Zm6.887-5.1a.937.937,0,0,0-.1-.463,2.438,2.438,0,0,0-1.826.974c-.025.024-.037.024-.049.024s-.025-.256-.025-.28c0-.317.025-.779.037-.889,0-.037-.147-.061-.257-.061a1.887,1.887,0,0,0-1.115.341,2.7,2.7,0,0,0-.049.767c0,.706.025,1.79.025,2.765a13.328,13.328,0,0,1-.086,1.924c0,.037.049.037.1.037A2.36,2.36,0,0,0,34.564-.57a12.634,12.634,0,0,0,.037-1.5V-3.14A1.577,1.577,0,0,1,36.182-4.3a1.3,1.3,0,0,1,.159.024A1.971,1.971,0,0,0,36.562-5.38Zm4.277,4.336c0,2.655-1.324,2.874-2.108,2.984a1.34,1.34,0,0,1-.221.012,2.081,2.081,0,0,0,.453,1.254c.944,0,3.235-.56,3.235-3.922,0-.6-.012-1.985-.012-3.24a13.846,13.846,0,0,1,.1-1.973c0-.037-.086-.037-.184-.037a2.327,2.327,0,0,0-1.262.329,4.848,4.848,0,0,0-.061,1.12c0,.706.025,1.474.025,1.474s-.147.938-.956.938c-.662,0-.8-.926-.8-2.095a14.316,14.316,0,0,1,.135-1.863,1.2,1.2,0,0,0-.392-.061,1.644,1.644,0,0,0-.993.256,7.4,7.4,0,0,0-.135,1.413c0,2.083.037,3.848,1.569,3.848a1.84,1.84,0,0,0,1.52-.828q.018-.037.037-.037c.025,0,.037.049.037.073C40.826-1.337,40.839-1.167,40.839-1.045ZM49.025-.034c.907,0,1.373-.244,1.373-.3V-.351a15.112,15.112,0,0,1-.368-4.287,24.629,24.629,0,0,1,.086-2.655,2.3,2.3,0,0,1,.576-.037,10.057,10.057,0,0,1,1.262.061,4.226,4.226,0,0,0,.208-1.425,4.7,4.7,0,0,0-.919-.049c-.478,0-1.961.049-2.426.073-1.017.061-1.973.073-1.973.073a2.834,2.834,0,0,0-.27,1.169,1.571,1.571,0,0,0,.037.317s1.238-.171,1.7-.171a.367.367,0,0,1,.172.024,2.683,2.683,0,0,1,.037.658c0,1.157-.086,3.544-.086,5.066a5.373,5.373,0,0,0,.086,1.388A.993.993,0,0,0,49.025-.034Zm6.054-6.978a.742.742,0,0,0-.76-.816.9.9,0,0,0-.87.816.725.725,0,0,0,.748.828A.9.9,0,0,0,55.079-7.012ZM54.613-5.49a1.707,1.707,0,0,0-.993.219c-.049.1-.086,1.949-.086,3.2,0,.5.012.9.025,1.06.074.755.319,1.072.368,1.072a2.128,2.128,0,0,0,1.36-.658,1.983,1.983,0,0,1-.331-.974c-.025-.207-.037-.694-.037-1.254,0-1.12.037-2.533.037-2.594C54.895-5.49,54.613-5.49,54.613-5.49Zm6.4,1.62a.876.876,0,0,1,.735-.536c.7,0,.748.877.748,2.119a19.777,19.777,0,0,1-.135,2.143,1.2,1.2,0,0,0,.392.061A1.97,1.97,0,0,0,63.8-.326s.049-.621.049-1.425c0-2.083-.037-4.25-1.569-4.25a1.968,1.968,0,0,0-1.544.974,1.243,1.243,0,0,0-1.2-.706,2.263,2.263,0,0,0-1.324.719c-.025.024-.037.024-.049.024s-.025-.061-.025-.061c0-.231.037-.9.049-1.035,0-.024-.147-.049-.257-.049a1.8,1.8,0,0,0-1.066.365,2.953,2.953,0,0,0-.061.84c0,.755.037,1.876.037,2.862a13.311,13.311,0,0,1-.086,1.79c0,.037.049.037.1.037a2.007,2.007,0,0,0,1.287-.292,7.872,7.872,0,0,0,.049-1.254c0-.719-.012-1.474-.012-1.547,0-.146.306-.986.956-.986.527,0,.551.56.551,1.547a14.868,14.868,0,0,1-.11,1.851,1.2,1.2,0,0,0,.392.061A1.85,1.85,0,0,0,61-1.106a4.627,4.627,0,0,0,.049-.962C61.047-3.091,61.047-3.481,61.01-3.87Zm7.39-.56c0,.816-1.078,1.547-1.593,1.559-.049,0-.049-.037-.049-.171,0-.962.6-1.742,1.262-1.742A.345.345,0,0,1,68.4-4.431ZM67.86-.278a3.143,3.143,0,0,0,1.605-.28,1.964,1.964,0,0,0,.306-1.1c0-.073-.012-.231-.037-.231a.043.043,0,0,0-.025.012,2.977,2.977,0,0,1-1.471.329c-.637,0-.895-.256-.895-.329,1.569-.536,2.488-1.644,2.488-2.679A1.371,1.371,0,0,0,68.289-5.88a2.844,2.844,0,0,0-2.966,3.032A2.371,2.371,0,0,0,67.86-.278Z" transform="translate(33.583 96.606)" fill="#6133bd"/>
    <g id="icon" transform="translate(56.171)">
      <path id="Path_6287" data-name="Path 6287" d="M337.69,223.2l-7,.312,7,.312Z" transform="translate(-311.239 -189.007)" fill="#6133bd"/>
      <path id="Path_6288" data-name="Path 6288" d="M341.58,225.909a3,3,0,0,1-2.807-.438c-.013-.013-.03-.035-.044-.05l-12.906.481,15.68.585C341.523,226.292,341.547,226.1,341.58,225.909Z" transform="translate(-309.793 -189.678)" fill="#6133bd"/>
      <path id="Path_6289" data-name="Path 6289" d="M339.755,227.9c0-.068.007-.135.008-.2l-19.7.614,19.768.617A7.522,7.522,0,0,1,339.755,227.9Z" transform="translate(-308.082 -190.364)" fill="#6133bd"/>
      <path id="Path_6290" data-name="Path 6290" d="M338.256,230.116l-23.729.641,24.119.651A7.416,7.416,0,0,1,338.256,230.116Z" transform="translate(-306.433 -191.096)" fill="#6133bd"/>
      <path id="Path_6291" data-name="Path 6291" d="M337.171,232.535l-28.184.67,29.006.69A7.6,7.6,0,0,1,337.171,232.535Z" transform="translate(-304.785 -191.826)" fill="#6133bd"/>
      <path id="Path_6292" data-name="Path 6292" d="M336.466,234.946l-33.46.705,35.086.739A7.667,7.667,0,0,1,336.466,234.946Z" transform="translate(-303.006 -192.554)" fill="#6133bd"/>
      <path id="Path_6293" data-name="Path 6293" d="M362.046,227.774a3.281,3.281,0,0,1-3.26-3.234c0-.095.02-.183.028-.276a3.21,3.21,0,0,1,.9-1.981,24.708,24.708,0,0,0-5.94.159q-.828.12-1.651.3c-.348.075-.7.142-1.041.232-.128.033-.313.1-.521.168h0a6.243,6.243,0,0,0-.327.683v0c-.015.038-.028.077-.043.115-.044.115-.09.229-.128.346-.024.075-.043.151-.063.226s-.037.139-.054.209c-.043.177-.077.356-.105.538-.011.071-.025.142-.033.215,0,.027-.01.052-.013.079-.014.145-.019.292-.025.438,0,.08-.012.159-.012.24h0a6.353,6.353,0,0,0,.1,1.066c.022.131.047.262.077.391a6.3,6.3,0,0,0,.49,1.359c.055.113.111.223.172.332s.122.2.184.295a6.3,6.3,0,0,0,.452.631,6.5,6.5,0,0,0,.468.5c.09.088.185.17.28.253a6.445,6.445,0,0,0,4.224,1.575h.006c.205,0,.408-.012.608-.031.067-.006.134-.017.2-.026.133-.017.265-.036.4-.06.079-.015.156-.033.235-.051.115-.027.23-.055.342-.087q.123-.036.245-.075c.1-.034.207-.073.31-.113.083-.032.166-.064.246-.1s.186-.087.277-.133.169-.08.25-.126c.065-.036.126-.077.19-.115a6.437,6.437,0,0,0,.592-.4c.039-.029.079-.056.117-.087.105-.084.207-.173.306-.263.036-.033.073-.065.108-.1q.152-.143.293-.3l.081-.089c.1-.11.2-.224.287-.341l.036-.048a6.346,6.346,0,0,0,1.123-2.337h0Zm-5.844.792a2.333,2.333,0,1,1,2.348-2.333,2.34,2.34,0,0,1-2.348,2.333Z" transform="translate(-316.915 -188.701)" fill="#6133bd"/>
      <path id="Path_6294" data-name="Path 6294" d="M411.4,225.1c-.008-.072-.022-.141-.032-.213-.024-.162-.05-.323-.085-.48-.018-.077-.039-.152-.059-.228-.04-.151-.084-.3-.135-.448-.024-.071-.05-.138-.076-.207q-.09-.231-.2-.454c-.025-.054-.051-.108-.078-.161q-.133-.258-.287-.5c-.015-.025-.03-.052-.047-.077a6.432,6.432,0,0,0-1.421-1.548h0c-.461.071-.97.165-1.513.3-2.633.637-5.936,2.086-7.118,5.384a1.767,1.767,0,0,1-1.528,1.161h0c.038.127.082.249.128.371.02.054.039.109.06.162.046.115.1.228.148.339.027.057.055.115.083.171.054.108.111.215.17.319.032.054.065.107.1.16.064.1.129.209.2.309.018.026.038.049.055.074a6.413,6.413,0,0,0,.462.567c.052.057.1.115.156.17.071.073.145.141.22.211s.129.12.2.177.148.124.223.183.155.117.235.174.145.1.219.153c.1.064.2.124.3.183.06.035.118.072.179.1q.243.13.5.239c.058.025.119.046.179.071.121.048.243.093.368.133.07.023.142.043.213.063.12.034.241.066.363.093.072.016.145.031.218.045.132.024.266.044.4.061.065.008.129.018.193.024.2.018.4.03.6.03H405a6.492,6.492,0,0,0,1.483-.177,6.087,6.087,0,0,0,1.588-.6,6.407,6.407,0,0,0,3.346-5.056c.017-.189.026-.381.026-.574h0A6.4,6.4,0,0,0,411.4,225.1Zm-6.4,3.043a2.333,2.333,0,1,1,2.348-2.333A2.34,2.34,0,0,1,405,228.143Z" transform="translate(-331.513 -188.279)" fill="#6133bd"/>
      <path id="Path_6295" data-name="Path 6295" d="M370.209,226.583c-.036-.048-.078-.091-.113-.14s-.094-.123-.138-.183H364.69a.235.235,0,1,1,0-.469h4.9c-.129-.154-.264-.31-.412-.469H364.69a.236.236,0,0,1-.209-.115.233.233,0,0,1,0-.238.236.236,0,0,1,.209-.115h4.027c-.163-.157-.341-.314-.525-.47h-3.5a.235.235,0,1,1,0-.469H367.6a12.62,12.62,0,0,0-1.825-1.134c-.166-.085-.348-.163-.524-.244-.235-.036-.469-.067-.7-.1a2.767,2.767,0,0,0,1.694,4.942l.51-.013,4.131-.107A4.018,4.018,0,0,1,370.209,226.583Z" transform="translate(-321.112 -188.778)" fill="#6133bd"/>
      <path id="Path_6296" data-name="Path 6296" d="M379.932,218.789a8.411,8.411,0,0,1,.528-2.146,7.655,7.655,0,0,1,2.941-3.6,6.47,6.47,0,0,1,2.658-1.038,6.611,6.611,0,0,1,.736-.068l-4.209-9.307-.646.268-1.132.469-.649.269,1.153,4.012-.2.144-.2.143h0l-1.241.871a.861.861,0,0,0-.365.651l-.288,4.747h0a.827.827,0,0,0,.023.24c0,.018.009.036.014.054a.858.858,0,0,0,.245.389l.035.031a.876.876,0,0,0,.2.127h0a.89.89,0,0,0,.237.06.791.791,0,0,0,.108.011h.194l-.089.1-.387,2.432a2.785,2.785,0,0,1-1.132,1.828,2.818,2.818,0,0,1-2.1.486l-5.507-.919a2.8,2.8,0,0,1-1.988-1.395,2.772,2.772,0,0,1-.142-2.414l1.963-4.747a2.968,2.968,0,0,1-.863.279,4.867,4.867,0,0,1-.787.066c-.111,0-.216,0-.314-.007a20.79,20.79,0,0,1-5.029-1.042c-.895-.265-1.822-.538-2.743-.735a11.881,11.881,0,0,0-1.789-.113,16.574,16.574,0,0,1-2.936-.237,4.229,4.229,0,0,1-.754-.23l-.513.518a3.28,3.28,0,0,1-2.317.964h-4.007l-.169-.234-.159-.218h0l-.948-1.307h4.514a.707.707,0,0,0,.708-.7.689.689,0,0,0-.053-.258.743.743,0,0,0-.136-.211H341.809a.683.683,0,0,0-.186.455s0,.01,0,.014a.707.707,0,0,0,.708.7h3.279l1.3,1.789.137.189.138.191a2.22,2.22,0,0,0-.956,1.821v1.528c.237-.23.473-.446.7-.642.122-.105.243-.207.359-.3a11.811,11.811,0,0,1,4.13-2.12,15.15,15.15,0,0,1,3.263-.572c.169-.011.335-.03.507-.036a11.1,11.1,0,0,1,8.292,3.29c.919.952,2.44,2.726,2.308,3.921a.965.965,0,0,1-.45.782,1.087,1.087,0,0,1-.556.132,3,3,0,0,1-.909-.177c-.205-.067-.4-.146-.594-.225l-.251-.1c-.174-.074-.326-.137-.448-.179-.013,0-.028-.011-.04-.014-.768-.249-1.547-.444-2.33-.616a12.15,12.15,0,0,1,3.655,3.343,3.611,3.611,0,0,0,.331.395,3.534,3.534,0,0,0,2.535,1.1H377.08a3.594,3.594,0,0,0,2.806-1.357c-.014-.291-.019-.611,0-.959C379.893,219.185,379.91,218.989,379.932,218.789Z" transform="translate(-314.493 -182.801)" fill="#6133bd"/>
      <path id="Path_6297" data-name="Path 6297" d="M399.1,225.382a1.267,1.267,0,0,0,.182-.333c1.2-3.348,4.419-4.882,7.1-5.59.5-.132.983-.237,1.43-.317.237-.043.468-.082.683-.113a.4.4,0,0,0,.157-.74,10.615,10.615,0,0,0-4.725-1.646c-.089,0-.176-.012-.266-.014-.057,0-.112-.009-.17-.009l-.092,0a6.386,6.386,0,0,0-.744.051,5.983,5.983,0,0,0-2.594.982,7.274,7.274,0,0,0-3.264,5.412c-.028.256-.045.5-.051.732,0,.175-.006.344,0,.5,0,.139.009.272.018.4v.025a1.294,1.294,0,0,0,1.3,1.185c.007,0,.013,0,.02,0A1.3,1.3,0,0,0,399.1,225.382Z" transform="translate(-330.892 -187.022)" fill="#6133bd"/>
      <path id="Path_6298" data-name="Path 6298" d="M360.946,208.87a1.808,1.808,0,0,0,.217.116q.112.05.238.093a4.949,4.949,0,0,0,.8.188,19.582,19.582,0,0,0,2.553.165,11.742,11.742,0,0,1,1.878.123c.939.2,1.874.476,2.779.743a20.45,20.45,0,0,0,4.913,1.024,4.2,4.2,0,0,0,1.3-.118,2.129,2.129,0,0,0,.609-.258,1.371,1.371,0,0,0,.142-.119,1.511,1.511,0,0,0,.522-1.046,1.636,1.636,0,0,0-.021-.4c-.231-.022-.469-.038-.708-.055-.2-.014-.386-.037-.589-.047a32.058,32.058,0,0,1-5.272-.571,3.261,3.261,0,0,1-1.286-.591,2.67,2.67,0,0,1-.968-1.318c-.148-.086-.294-.174-.443-.254a9.908,9.908,0,0,0-3.865-.751,4.879,4.879,0,0,0-2.434.516,1.685,1.685,0,0,0-.871,1.566,1.347,1.347,0,0,0,.135.622A1.008,1.008,0,0,0,360.946,208.87Z" transform="translate(-320.076 -183.761)" fill="#6133bd"/>
      <path id="Path_6299" data-name="Path 6299" d="M398.427,198.214h1.982a2.115,2.115,0,0,0,.739-.359,1.686,1.686,0,0,0,.462-.52,1.974,1.974,0,0,0,0-1.822,1.8,1.8,0,0,0-.75-.707,1.917,1.917,0,0,0-.45-.172l-2.66,1.741-.063.042h0l-.2.131-.2.131-.345-.836-.637.98c-.011.018-.02.037-.032.055a1.425,1.425,0,0,1,.3.472c.031.076.054.155.08.233a3.588,3.588,0,0,1,.178,1.337,1.7,1.7,0,0,1-.252.78.834.834,0,0,1-.523.411.488.488,0,0,1-.077.009l.209.652.648-.269,1.085-.449.646-.268h0l-.649-1.574Z" transform="translate(-330.659 -180.386)" fill="#6133bd"/>
      <path id="Path_6300" data-name="Path 6300" d="M342.326,220.684v1.643h1.982c0-.008,0-.016,0-.025a2.867,2.867,0,0,1,.211-.626,6.508,6.508,0,0,1,.584-.992h-2.781Z" transform="translate(-314.703 -188.25)" fill="#6133bd"/>
      <path id="Path_6301" data-name="Path 6301" d="M345.81,220.285c-.067.254-.061.444.036.537h0c.426.407,2.271-.237,3.156-.547.249-.087.452-.155.622-.207.049-.014.108-.035.148-.045h0c.487-.127.978-.236,1.47-.334a25.224,25.224,0,0,1,4.913-.487q.955,0,1.909.075c.315.024.629.071.943.106l.06.008c.112.013.225.024.336.039.136.018.272.028.407.048h.014c.057.008.114.012.17.02a25.415,25.415,0,0,1,2.941.653c.182.051.364.1.545.154.142.043.287.074.43.12.039.013.088.033.134.05.116.044.245.1.393.159.557.237,1.493.633,1.886.4.046-.027.183-.106.219-.429.08-.723-.734-2.048-2.179-3.543a10.575,10.575,0,0,0-7.934-3.147,12.7,12.7,0,0,0-7.62,2.623c-.189.154-.415.346-.658.566-.225.2-.463.436-.7.684-.079.082-.157.168-.236.254s-.159.176-.236.268-.176.218-.263.329a6.454,6.454,0,0,0-.749,1.19,2.82,2.82,0,0,0-.152.406C345.817,220.255,345.814,220.269,345.81,220.285Z" transform="translate(-315.726 -186.207)" fill="#6133bd"/>
      <path id="Path_6302" data-name="Path 6302" d="M372.578,194.888a2.1,2.1,0,0,0-.74,2.066,2.129,2.129,0,0,0,.12.341c.014.032.024.063.04.1a2.266,2.266,0,0,0,.212.318,2.391,2.391,0,0,0,.373.4,2.746,2.746,0,0,0,1.209.606,31.679,31.679,0,0,0,5.194.561c.179.009.344.029.519.041.2.013.393.028.585.046.091.008.185.013.274.022s.184.012.272.022c.542.06,1.062.138,1.555.231l.227.04c.478.08.929.155.982.858a3.564,3.564,0,0,1-.731,1.989,6.8,6.8,0,0,0-.431.778l-.187.429a19.293,19.293,0,0,0-1.146,3.09c.174.027.346.066.514.105l.241.054a.235.235,0,0,1-.009.461,4.216,4.216,0,0,0-.547.87,4.8,4.8,0,0,0-.45,1.784c.356.061.677.089,1.016.118l.172.015a1.394,1.394,0,0,1,.105-.382.237.237,0,0,1,.216-.138.226.226,0,0,1,.048,0,3.642,3.642,0,0,1,1.1.464,5.7,5.7,0,0,0,.627.32,3.655,3.655,0,0,0,1.956.241.926.926,0,0,0,.632-.29.334.334,0,0,0,.041-.285.153.153,0,0,0-.088-.1,3.542,3.542,0,0,0-.538-.09c-.6-.075-1.358-.167-1.555-.691a2.183,2.183,0,0,1,.1-1.463.237.237,0,0,1,.128-.139.241.241,0,0,1,.188,0,1.855,1.855,0,0,0,.71.135.271.271,0,0,0,.105-.014h0a.213.213,0,0,1,0-.069,47.22,47.22,0,0,1,1.17-6.16c.128-.536.255-1.074.377-1.615.036-.156.08-.32.125-.489a2.555,2.555,0,0,0,.044-2,3.222,3.222,0,0,0-1.888-1.112,13.274,13.274,0,0,0-3.305-.6.236.236,0,0,1-.214-.146.233.233,0,0,1,.051-.253c.148-.149.383-.457.658-.813a8.315,8.315,0,0,1,2.188-2.285c-.283.045-.738.105-1.314.152-.158.013-.324.024-.5.034a16.861,16.861,0,0,1-2.221-.024c-.407-.04-.827-.093-1.251-.178-.213-.045-.434-.094-.636-.153a1.35,1.35,0,0,1-.664-.354,1.209,1.209,0,0,1-.332-.7,1.125,1.125,0,0,1,.022-.4,2.094,2.094,0,0,1,.117-.324,6.2,6.2,0,0,1,.617-1.118,9.926,9.926,0,0,1,1.5-1.645,15.433,15.433,0,0,1,1.222-.974c.3-.221.487-.337.487-.337l-.428.407c-.275.254-.653.635-1.1,1.092a12.053,12.053,0,0,0-1.347,1.682,5.8,5.8,0,0,0-.549,1.054,1.673,1.673,0,0,0-.091.273.715.715,0,0,0,0,.233.794.794,0,0,0,.216.432.882.882,0,0,0,.452.246c.207.066.4.112.6.16a12.036,12.036,0,0,0,1.2.2c.789.1,1.534.154,2.176.166l.714.017c.327.006.615.01.839,0l.436,0a.744.744,0,0,1,.414-.024,3.746,3.746,0,0,0,1.98.023.725.725,0,0,1,.417-.02.594.594,0,0,1,.255.169l0,0a1.328,1.328,0,0,1,.226.342c.046.094.086.19.124.284.028.071.056.14.086.208a.937.937,0,0,0,.1.173c.067.091.129.132.16.127.128-.024.329-.321.376-.682,0-.026.013-.05.014-.076a3.1,3.1,0,0,0-.1-.909,3.058,3.058,0,0,0-.129-.455,1.424,1.424,0,0,0-.1-.2.576.576,0,0,0-.114-.143.484.484,0,0,0-.064-.038.673.673,0,0,0-.22-.085,1.807,1.807,0,0,0-.381-.027,5.825,5.825,0,0,0-1.4.2,1.577,1.577,0,0,1-.657.087.644.644,0,0,1-.576-.595.807.807,0,0,1,.148-.417,20.326,20.326,0,0,0,.979-1.929c.857-1.845,1.831-3.935,3.773-4.713a3.754,3.754,0,0,1,2.138-.085l.333.052a.856.856,0,0,0,.461-.008.773.773,0,0,0,.292-.338,3.571,3.571,0,0,0,.266-.857,2.867,2.867,0,0,1,.422-1.135,1.276,1.276,0,0,1,.648-.359c.255-.081.415-.138.462-.286.067-.212.016-.269-.393-.437a1.144,1.144,0,0,1-.686-.517.987.987,0,0,1-.072-.287l-.174-1.322a.235.235,0,0,1,.2-.263,4.564,4.564,0,0,0,2.257-.92.853.853,0,0,0,.33-.374l0-.008c.036-.161,0-.227-.041-.268-.336-.362-1.817-.154-2.447-.065-.507.071-.613.087-.724,0a.251.251,0,0,1-.1-.161,1.674,1.674,0,0,0-.581-1,2.977,2.977,0,0,0-2.493-.594,4.383,4.383,0,0,0-2.417,1.3,3.662,3.662,0,0,0-.857,1.29,2.5,2.5,0,0,0-.045,1.614.927.927,0,0,1-.429,1.3,1.01,1.01,0,0,1-.332.087,1.405,1.405,0,0,0,.16.157.723.723,0,0,0,.608.182.237.237,0,0,1,.26.111.234.234,0,0,1-.034.279,1.24,1.24,0,0,1-.782.365.87.87,0,0,0,.464.117.221.221,0,0,1,.229.144c.1.239-.733,1.324-.742,1.332a2.754,2.754,0,0,1-1.156.393,4.7,4.7,0,0,0-.528.115,12.966,12.966,0,0,0-3.643,1.627c-1.246.848-2.4,1.732-3.374,2.485a15.792,15.792,0,0,1-5.875,3.322,8.8,8.8,0,0,0,2.017,2.581.393.393,0,0,1,.126.3.379.379,0,0,1-.136.282C373.594,193.965,372.659,194.806,372.578,194.888Zm10.64-4.554a11.1,11.1,0,0,0-1.351-.154l-.42-.017.32-.295q.7-.645,1.435-1.257c.481-.416.991-.8,1.437-1.222a4.27,4.27,0,0,0,1.075-1.453,2.383,2.383,0,0,0,.071-1.8,2.259,2.259,0,0,1,.213,1.894,4.05,4.05,0,0,1-1.049,1.666,17.721,17.721,0,0,1-1.451,1.266c-.391.319-.791.626-1.193.931.79.142,1.527.427,2.289.613A12.046,12.046,0,0,1,383.219,190.334Z" transform="translate(-323.463 -174.228)" fill="#6133bd"/>
      <path id="Path_6303" data-name="Path 6303" d="M394.228,200.457a.944.944,0,0,0-.407-.212,1.019,1.019,0,0,0-1.1.382h0a1.02,1.02,0,0,0-.208.611v.006a1.043,1.043,0,0,0,1.045,1.038h0a.969.969,0,0,0,.257-.036l.033-.01a1.042,1.042,0,0,0,.6-.457,1.02,1.02,0,0,0,.077-.149,1.043,1.043,0,0,0,.062-.235c0-.015,0-.031,0-.046a.86.86,0,0,0-.115-.587,1.048,1.048,0,0,0-.247-.305Zm-.672,1.393h0a.6.6,0,1,1,.608-.605.6.6,0,0,1-.608.605Z" transform="translate(-329.631 -182.068)" fill="#6133bd"/>
      <path id="Path_6304" data-name="Path 6304" d="M350.943,205.783H339.938V207.5h12.28v-1.724h-1.263S350.948,205.783,350.943,205.783Z" transform="translate(-313.992 -183.75)" fill="#6133bd"/>
      <path id="Path_6305" data-name="Path 6305" d="M340,204.368h10.068v-1.725H337.789v1.725Z" transform="translate(-313.353 -182.804)" fill="#6133bd"/>
      <path id="Path_6306" data-name="Path 6306" d="M349.758,201.007h1.621v-1.725H339.1v1.725Z" transform="translate(-313.744 -181.79)" fill="#6133bd"/>
      <path id="Path_6307" data-name="Path 6307" d="M351.25,195.963H341.02v1.724H353.3v-1.724Z" transform="translate(-314.314 -180.788)" fill="#6133bd"/>
      <path id="Path_6308" data-name="Path 6308" d="M341.15,194.546h10.229v-1.725H339.1v1.725h2.05Z" transform="translate(-313.744 -179.839)" fill="#6133bd"/>
      <path id="Path_6309" data-name="Path 6309" d="M350.927,191.4h1.291v-1.725h-12.28V191.4h10.989Z" transform="translate(-313.992 -178.891)" fill="#6133bd"/>
    </g>
  </g>
</svg>
