<svg id="homelogo" xmlns="http://www.w3.org/2000/svg" width="89.396" height="99.841" viewBox="0 0 89.396 99.841">
  <path id="Path_28343" data-name="Path 28343" d="M-18.181-.46h2.674l1.051,0,2.594,0,3.105,0q3.751-.006,7.505-.008H1.234Q7.841-.485,14.448-.487h3.446q6.169,0,12.336-.012Q36.569-.509,42.91-.51h2.146L50.73-.517q2.85-.006,5.7,0,1.694,0,3.388,0,1.132,0,2.263,0,.646,0,1.289,0c.464,0,.928,0,1.391,0l.4-.005A4.1,4.1,0,0,1,67.58.222,2.881,2.881,0,0,1,68.4,2.538c0,.129,0,.129,0,.259,0,.287,0,.573,0,.86,0,.2,0,.411,0,.615q0,.837,0,1.674c0,.348,0,.7,0,1.046q0,1.636,0,3.274,0,1.888.007,3.776,0,1.461,0,2.922,0,.871,0,1.743,0,.821,0,1.641c0,.2,0,.4,0,.6,0,.275,0,.549,0,.824v.464a2.911,2.911,0,0,1-1.112,2.036,2.713,2.713,0,0,1-1.657.549H56.226q-3.757,0-7.513,0H45.159L33,24.837H29.554q-6.173,0-12.347.005-6.524.006-13.047.005H2.372q-2.84,0-5.679,0-2.854,0-5.706,0-1.7,0-3.392,0H-15.96c-.464,0-.926,0-1.39,0l-.405,0a3.15,3.15,0,0,1-2.332-.767,3.035,3.035,0,0,1-.849-2.25c0-.085,0-.171,0-.259q0-.431,0-.86c0-.206,0-.411,0-.617q0-.837,0-1.676c0-.348,0-.7,0-1.047q0-1.636,0-3.275,0-1.89-.007-3.78,0-1.461,0-2.923,0-.871,0-1.745,0-.821,0-1.642c0-.2,0-.4,0-.6,0-.275,0-.549,0-.824V2.125A3.252,3.252,0,0,1-19.581-.143,2.358,2.358,0,0,1-18.181-.46Z" transform="translate(20.968 74.984)" fill="#fdfd00"/>
  <path id="Path_28346" data-name="Path 28346" d="M-212.115-7.4c.2.15.389.3.582.457l.381.274a4.262,4.262,0,0,1,.815,1.055v.266h.266a10.548,10.548,0,0,1,.93,6.777c-.089.132-.175.263-.266.4q-.118.341-.217.688c-.035.121-.069.241-.1.364s-.039.137-.077.276h.266l.093-.284a4.752,4.752,0,0,1,.795-1.161l.194-.225a25.463,25.463,0,0,1,6.492-5.372l.481-.3a14.866,14.866,0,0,1,4.436-1.69l.275-.074a6.7,6.7,0,0,1,4.839.925,5.952,5.952,0,0,1,1.928,1.94v.266h.266c.772,1.464,1.446,2.9.966,4.592q-.132.323-.279.639a11.046,11.046,0,0,0-.431,1.213c-.9,2.547-2.767,4.692-4.509,6.71-.089.1-.177.206-.267.312-.506.587-1.039,1.139-1.593,1.681q-.2.2-.4.4.793-.213,1.585-.432l.45-.121a12.693,12.693,0,0,0,2.235-.8,3.341,3.341,0,0,1,1.044-.241v-.266l.323-.15c2.628-1.326,4.4-3.594,6.135-5.888.6-.8,1.225-1.563,1.9-2.3.25-.272.492-.55.732-.832A13.078,13.078,0,0,1-176.719-2.3h.4v-.266a34.622,34.622,0,0,1,3.612-1.106c.09-.02.181-.041.275-.064a13.017,13.017,0,0,1,2.729-.324l.3,0,.951-.007h.328a32.336,32.336,0,0,1,6.026.575v.4l-.508.2-.284.112a1.465,1.465,0,0,1-.67.088v.266c-2.041.93-2.041.93-2.658.93v.266l-.221.068a15.088,15.088,0,0,0-1.913.76,1.2,1.2,0,0,1-.656.1v.266l-.24.064a13.877,13.877,0,0,0-2.186.83c-.464.214-.938.4-1.415.581a2.136,2.136,0,0,0-.676.385h-.4v.266l-.235.084a16.775,16.775,0,0,0-2.68,1.353l-.407.238a70.514,70.514,0,0,0-6.112,4.04l-.582.423c-1.108.809-2.206,1.625-3.262,2.5-1.459,1.2-1.459,1.2-2,1.2-.044.132-.089.263-.133.4a3.073,3.073,0,0,1-.587.258l-.367.137-.375.137-.332.129a26.2,26.2,0,0,1-5.358,1.391l-.311.05c-1.141.182-2.28.34-3.434.423a1.053,1.053,0,0,1,.589-.739,16.583,16.583,0,0,0,5.258-7.633c.072-.194.072-.194.146-.391.549-1.527,1.127-3.707.435-5.265a2.7,2.7,0,0,0-1.112-.989c-.044-.088-.089-.175-.133-.266a9.226,9.226,0,0,0-6.558.357,19.1,19.1,0,0,0-5.136,3.762C-212.033,8.6-212.033,8.6-213.659,8.6c.078-.336.159-.671.241-1,.021-.094.044-.187.066-.284a9.937,9.937,0,0,1,.623-1.767c.049-.177.1-.352.133-.532h.266c.009-.118.009-.118.019-.239a5.163,5.163,0,0,1,.38-1.621,5.379,5.379,0,0,0-.532-3.986,3.163,3.163,0,0,0-2.126-1.329,4.253,4.253,0,0,0-3.269.667,4.606,4.606,0,0,0-1.82,3.432,7.018,7.018,0,0,0,1.634,4.8c.215.227.436.449.664.664l.241.241a8.543,8.543,0,0,0,2.417,1.487V9.4l.4.1a6.752,6.752,0,0,1,1.309.557c.295.145.593.264.9.381a18.013,18.013,0,0,1,1.645.756,14.04,14.04,0,0,0,3.577,1.3,4.51,4.51,0,0,1,.777.227,5.413,5.413,0,0,0,1.321.217l.5.033.517.032.526.035c.428.029.856.056,1.285.082-2.986,1.989-8.055,1.828-11.428,1.2l-.48-.074a26,26,0,0,1-6.361-1.86,8.937,8.937,0,0,0-1.589-.457,14.128,14.128,0,0,1-2.2-.664c-.177-.047-.355-.092-.532-.133v-.266l-.274-.044a9.889,9.889,0,0,1-1.8-.439,6,6,0,0,0-4.164.182,6.72,6.72,0,0,0-2.592,2.519c-.21.306-.21.306-.514.419l-.369.044-.428.056-.493.053-.582.065-.929.1c-1.009.109-2,.274-3,.466a30.885,30.885,0,0,1-4.926.431v-.266l.452-.2.6-.272.3-.13a9.76,9.76,0,0,0,2.1-1.39q.317-.241.637-.481l.326-.242.332-.25c.695-.517,1.386-1.035,2.064-1.573a20.875,20.875,0,0,1,4.349-2.636l.26-.12c2.037-.845,4.49-.659,6.64-.437l.288.028a5.368,5.368,0,0,1,1.714.529c.173.057.347.11.522.157l.408.109V7.8l.34.041a6.18,6.18,0,0,1,1.387.49l.308.118a13.025,13.025,0,0,1,1.185.579l.427.226c.361.2.7.424,1.044.656.621.419,1.261.787,1.917,1.144.117.062.233.126.352.191a16.462,16.462,0,0,0,4.2,1.735v-.266c-.08-.012-.158-.024-.241-.035a8.9,8.9,0,0,1-2.55-.9v-.266l-.308-.043a1.241,1.241,0,0,1-.755-.489l-.427-.231a5.928,5.928,0,0,1-1.351-1.09l-.227-.231A12.992,12.992,0,0,1-221.9,2.221c-.024-.149-.048-.3-.073-.452a10.741,10.741,0,0,1,.87-6.458c.06-.113.121-.225.185-.34a6.689,6.689,0,0,1,3.935-3.38A6.169,6.169,0,0,1-212.115-7.4Z" transform="translate(246.93 8.539)" fill="#ff0505"/>
  <path id="Path_28347" data-name="Path 28347" d="M-87.63,0h.4l.069.225A8.535,8.535,0,0,0-86.575,1.7,10.872,10.872,0,0,1-85.9,3.467c.109.335.229.659.359.985a1.978,1.978,0,0,1,.166,1h.266c.788,1.959.788,1.959,1.013,2.566.27.722.558,1.435.848,2.147q.359.887.7,1.782c.045.117.089.234.136.355a2.039,2.039,0,0,1,.1.857h.532v-.266c.264-.209.529-.4.805-.59l.509-.355.27-.189c.282-.2.558-.4.834-.609l.272-.2c.175-.132.351-.262.525-.395.609-.452.609-.452.9-.452V9.833a4.771,4.771,0,0,1,.543-.4l.341-.234.361-.242c.117-.082.235-.163.357-.247.885-.6.885-.6,1.187-.6V7.84c.719-.532.719-.532,1.063-.532A2.113,2.113,0,0,1-74,8.446a8.532,8.532,0,0,0-.436,1.919c-.025.174-.025.174-.052.351q-.062.423-.122.845h-.266c.005.113.011.225.016.34a3.827,3.827,0,0,1-.2,1.1,22.682,22.682,0,0,0-.617,2.816h-.266c0,.243,0,.243.008.49a4.857,4.857,0,0,1-.141,1.237h-.266c0,.147.005.3.008.449a1.175,1.175,0,0,1-.141.747c-.024.207-.043.415-.058.623a7.166,7.166,0,0,1-.34,1.636h-.266l-.133,1.727h-.266c0,.21,0,.21.008.424a5.574,5.574,0,0,1-.141,1.171l-7.582.007q-1.76,0-3.52,0h-3.067l-1.625,0h-3.287c-.319-.016-.319-.016-.452-.149q-.008-.4,0-.8h-.266c-.012-.076-.023-.151-.035-.23q-.078-.512-.157-1.024c-.017-.12-.036-.238-.054-.361-.025-.17-.025-.17-.053-.344-.016-.1-.032-.21-.048-.318-.028-.248-.028-.248-.185-.38q-.008-.4,0-.8h-.266c-.027-.171-.054-.343-.082-.518-.036-.223-.073-.446-.109-.67-.017-.113-.036-.226-.054-.341s-.035-.215-.053-.326-.032-.2-.048-.3c-.031-.238-.031-.238-.185-.368-.005-.31-.005-.621,0-.93h-.266c-.016-.1-.032-.209-.049-.316a16.733,16.733,0,0,0-.482-2.208c-.138-.574-.268-1.151-.4-1.727l-.3-1.292q-.1-.45-.2-.9c-.033-.15-.068-.3-.1-.457-.031-.136-.061-.271-.092-.411a5.359,5.359,0,0,0-.243-.82,2.519,2.519,0,0,1-.122-1.036c.4,0,.4,0,.692.284l.371.38c.33.267.67.516,1.013.764l.27.2a3.815,3.815,0,0,0,1.11.631v.266l.239.113a4.371,4.371,0,0,1,.724.477c.643.493,1.313.945,1.985,1.4a13,13,0,0,1,1.211.908,1.212,1.212,0,0,0,.757.428c.016-.116.031-.231.048-.351a5.549,5.549,0,0,1,.392-1.218c.089-.207.089-.207.179-.42q.231-.522.469-1.042a8.994,8.994,0,0,0,.506-1.487h.266c.012-.181.012-.181.025-.365a6.8,6.8,0,0,1,.6-1.77c.207-.48.388-.963.567-1.452q.112-.3.225-.6c.057-.153.114-.307.174-.465h.266l.133-1.063h.266c.013-.14.028-.279.041-.424a2.92,2.92,0,0,1,.49-1.171c.1-.351.183-.706.266-1.063Z" transform="translate(128.873 33.35)" fill="#ffd702"/>
  <path id="Path_28348" data-name="Path 28348" d="M-18.181-.46h2.674l1.051,0,2.594,0,3.105,0q3.751-.006,7.505-.008H1.234Q7.841-.485,14.448-.487h3.446q6.169,0,12.336-.012Q36.569-.509,42.91-.51h2.146L50.73-.517q2.85-.006,5.7,0,1.694,0,3.388,0,1.132,0,2.263,0,.646,0,1.289,0c.464,0,.928,0,1.391,0l.4-.005A4.1,4.1,0,0,1,67.58.222,2.881,2.881,0,0,1,68.4,2.538c0,.129,0,.129,0,.259,0,.287,0,.573,0,.86,0,.2,0,.411,0,.615q0,.837,0,1.674c0,.348,0,.7,0,1.046q0,1.636,0,3.274,0,1.888.007,3.776,0,1.461,0,2.922,0,.871,0,1.743,0,.821,0,1.641c0,.2,0,.4,0,.6,0,.275,0,.549,0,.824v.464a2.911,2.911,0,0,1-1.112,2.036,2.713,2.713,0,0,1-1.657.549H56.226q-3.757,0-7.513,0H45.159L33,24.837H29.554q-6.173,0-12.347.005-6.524.006-13.047.005H2.372q-2.84,0-5.679,0-2.854,0-5.706,0-1.7,0-3.392,0H-15.96c-.464,0-.926,0-1.39,0l-.405,0a3.15,3.15,0,0,1-2.332-.767,3.035,3.035,0,0,1-.849-2.25c0-.085,0-.171,0-.259q0-.431,0-.86c0-.206,0-.411,0-.617q0-.837,0-1.676c0-.348,0-.7,0-1.047q0-1.636,0-3.275,0-1.89-.007-3.78,0-1.461,0-2.923,0-.871,0-1.745,0-.821,0-1.642c0-.2,0-.4,0-.6,0-.275,0-.549,0-.824V2.125A3.252,3.252,0,0,1-19.581-.143,2.358,2.358,0,0,1-18.181-.46Zm-1.274,2.01-.133.133c-.015.27-.019.539-.02.808,0,.086,0,.171,0,.259q0,.433,0,.865c0,.206,0,.412,0,.617q0,1.017-.007,2.033c0,.234,0,.466,0,.7q0,1.455-.007,2.907,0,2.087-.015,4.171-.008,1.465-.008,2.93,0,.877-.007,1.751-.006.823,0,1.648c0,.2,0,.4,0,.6,0,.275,0,.55,0,.827,0,.154,0,.308,0,.466a1.692,1.692,0,0,0,.747,1.074l.133.133c.187.013.375.017.561.017h2.679l1.052,0,2.6,0,3.111,0q3.761.006,7.521.008H1.22q6.615.006,13.229.008H17.9q6.179,0,12.356.012,6.348.008,12.7.009H45.1l5.685.007q2.854.006,5.71,0,1.7,0,3.4,0,1.134,0,2.266,0,.648,0,1.293,0c.464,0,.927,0,1.39,0l.408.005a1.812,1.812,0,0,0,1.414-.417c.084-.11.167-.221.252-.335l.133-.133c.015-.27.02-.539.02-.808,0-.129,0-.129,0-.259q0-.433,0-.865c0-.206,0-.412,0-.617q0-1.017.007-2.033c0-.234,0-.466,0-.7q0-1.455.007-2.909,0-2.085.015-4.17.008-1.465.008-2.93,0-.877.007-1.751.006-.823,0-1.648c0-.2,0-.4,0-.6,0-.275,0-.55,0-.827,0-.154,0-.308,0-.466a1.616,1.616,0,0,0-.747-1.074,2.693,2.693,0,0,0-.991-.15h-2.67l-1.048,0-2.588,0-3.1,0Q52.24.853,48.492.851H46.011Q39.42.843,32.827.841H29.388q-6.157,0-12.314-.012Q10.748.82,4.421.819H2.281L-3.384.812q-2.844-.006-5.69,0-1.69,0-3.382,0-1.13,0-2.258,0-.644,0-1.288,0c-.462,0-.924,0-1.386,0L-17.793.8A1.687,1.687,0,0,0-19.456,1.551Z" transform="translate(20.968 74.984)"/>
  <path id="Path_28349" data-name="Path 28349" d="M-54.129-1.772c.886.146,1.779.235,2.672.332a8.381,8.381,0,0,1,1.96.417c.433.068.865.122,1.3.173a2.042,2.042,0,0,1,.958.226c.268.021.537.036.807.049A17.353,17.353,0,0,1-44.29-.3a27.569,27.569,0,0,0,2.82.376l.3.028.26.021c.466.072.922.2,1.379.315V4.426l-1.595.133A16.581,16.581,0,0,0-51.756,10.8a10.7,10.7,0,0,0-1.462,2.525h-.266c-.013.14-.027.279-.041.423a1.58,1.58,0,0,1-.274.807,6.529,6.529,0,0,0-.615,1.827h-.266c-.007.114-.012.229-.02.347-.085,1.4-.226,2.781-.379,4.171q-1.042.01-2.085.015l-.711.005-1.019.005-.322,0c-.26,0-.52-.013-.78-.029-.38-.381-.336-.784-.369-1.3-.008-.1-.016-.206-.024-.312-.025-.33-.048-.66-.072-.991s-.047-.654-.072-.981c-.015-.2-.029-.407-.043-.611a11.493,11.493,0,0,0-.287-1.775c-.085-.373-.138-.747-.187-1.125-.02-.154-.04-.307-.061-.466s-.043-.322-.064-.489c-.166-1.244-.349-2.484-.565-3.721-.2-1.12-.34-2.238-.436-3.371a2.77,2.77,0,0,0-.213-1.071,5.863,5.863,0,0,1,.9-4.029q.211-.249.432-.489l.26-.282a6.845,6.845,0,0,1,1.6-1.313l.256-.15C-57.509-2.283-55.655-2.051-54.129-1.772Z" transform="translate(79.976 26.4)" fill="#ff0202"/>
  <path id="Path_28350" data-name="Path 28350" d="M-110.124-1.5a1.416,1.416,0,0,1,.449.59l.215.315q.464.074.93.133a1.232,1.232,0,0,1,.266.532A2.017,2.017,0,0,1-109.327.2c-.02.177-.02.177-.041.357a2.327,2.327,0,0,1-.49,1.1c-.218.1-.44.186-.664.266.048.08.1.158.146.239.066.11.134.221.2.334l.223.364a7.283,7.283,0,0,1,.419.8l.19.4c.053.121.108.243.165.369.244.335.244.335.743.409a4.365,4.365,0,0,0,1.608-.247,6.328,6.328,0,0,1,2.55-.275c.133.133.133.133.15.385-.007,2.4-.007,2.4-.416,2.8a6.134,6.134,0,0,1-.8,0l.146.3q.327.668.651,1.337l.23.47c.073.149.145.3.219.45l.2.416a1.3,1.3,0,0,1,.146.748l.254-.019a3.383,3.383,0,0,1,2.478.808.607.607,0,0,1,.158.606l-.1.332c-.058.514-.058.514.2.753a2.545,2.545,0,0,1,.27,1.547c0,.11.008.221.012.335a2.392,2.392,0,0,1-.743,1.883h-.266v.266a4.335,4.335,0,0,1-2.79.4,3.612,3.612,0,0,1-1.778-1.487,1.339,1.339,0,0,1-.082-.639l-.4.266h-.532l-.4-.8-.266.133c-.217.012-.435.016-.652.016h-.411l-.445,0h-.454l-1.442,0-.977,0-2.4-.007c-.017.1-.035.2-.052.3a3.59,3.59,0,0,1-1.277,1.956,4.063,4.063,0,0,1-2.825.179,3.261,3.261,0,0,1-1.536-1.672c-.064-.252-.112-.509-.157-.767l-.449.025-.481-.025a1.315,1.315,0,0,1-.266-1.063l-.4,0c-.485.005-.97.008-1.455.011l-.63.005c-.3,0-.6.005-.906.007l-.284,0a1.582,1.582,0,0,1-1.112-.3l.133-.532h5.182v-.4l-.3,0-1.345.007-.473,0h-.452l-.417,0a1,1,0,0,1-.6-.149l.133-.532h4.119v-.266h.266V12.16c.128-.06.128-.06.256-.122.11-.054.221-.11.334-.169.163-.08.163-.08.331-.163.308-.191.308-.191.38-.565.013-.153.013-.153.028-.31h-.4a2.417,2.417,0,0,1-.4-1.462l-.226.009c-.338.011-.674.017-1.011.024l-.355.013c-.856.013-.856.013-1.213-.264-.118-.314-.118-.314-.118-1.111h-4.385L-127,7.509c.133-.133.133-.133.55-.147h.849c.312,0,.623,0,.934,0h.633l1.552.007V6.845h-1.329l-.133-.532c.133-.133.133-.133.437-.146l.368.005.371,0,.286,0c0-.086,0-.173-.007-.262-.008-.392-.013-.783-.019-1.175,0-.136-.007-.272-.009-.412s0-.262,0-.4,0-.241-.007-.365a.875.875,0,0,1,.444-.712,2.064,2.064,0,0,1,.575-.053l.351-.005h.377l.389,0h.813c.416,0,.83,0,1.246-.008h.791l.377-.005c.838.009.838.009,1.2.267a4.013,4.013,0,0,1,.159,1.52c0,.114,0,.229,0,.347q0,.546-.012,1.092c0,.247,0,.494-.005.741q-.008.909-.02,1.816h.8c-.007-.1-.012-.2-.019-.3a11.489,11.489,0,0,1,1.746-6.208,3.3,3.3,0,0,1,.532-.4c-.031-.073-.061-.147-.092-.225a2.786,2.786,0,0,1-.008-2.408A2.288,2.288,0,0,1-110.124-1.5Z" transform="translate(186.713 78.859)" fill="#111102"/>
  <path id="Path_28351" data-name="Path 28351" d="M-97.985,0h4.518a23.2,23.2,0,0,1-.266,2.658H-94c-.009.171-.009.171-.02.347-.009.157-.02.314-.031.476s-.017.3-.028.462c-.136,1.621-.481,3.23-.772,4.829-.072.388-.141.776-.211,1.163-.193,1.06-.387,2.118-.621,3.169a25.794,25.794,0,0,0-.42,2.89,9.039,9.039,0,0,1-.555,2.344c-.068.181-.068.181-.138.365a5.1,5.1,0,0,1-2.652,2.558l-.307.155a4.971,4.971,0,0,1-1.561.151h-.351a17.944,17.944,0,0,1-4.311-.581,7.329,7.329,0,0,0-1.443-.19,7.672,7.672,0,0,1-1.7-.263,20.164,20.164,0,0,0-2.073-.316l-.359-.048-.322-.041A6.4,6.4,0,0,1-113,19.8V14.218l1.595-.266c.267-.058.533-.121.8-.191.412-.108.823-.213,1.238-.307l.431-.1.391-.088a1.48,1.48,0,0,0,.731-.51,4.983,4.983,0,0,1,.547-.25,15.8,15.8,0,0,0,7.292-6.793q.185-.283.373-.565a5.427,5.427,0,0,0,.6-1.4,3.67,3.67,0,0,1,.217-.577A10.661,10.661,0,0,0-98.375,1.5c.047-.227.092-.454.138-.682.02-.1.04-.2.06-.3A1.608,1.608,0,0,1-97.985,0Z" transform="translate(155.97 49.694)" fill="#ff0303"/>
  <path id="Path_28352" data-name="Path 28352" d="M0,0A14.409,14.409,0,0,1,2.371.4,10.91,10.91,0,0,0,4.26.664L5,.731l.365.033c.493.047.986.1,1.478.166L7.3.989a2.174,2.174,0,0,1,.7.2,4.753,4.753,0,0,0,1.272.248l.521.052.539.05.549.054,1.337.129v.266l.223-.008a18.721,18.721,0,0,1,3.032.248l.5.066a7.3,7.3,0,0,1,5.081,2.606,1.719,1.719,0,0,1,.327.808h.266c.878,2.375.42,5.331-.266,7.707-.045.315-.084.631-.117.946-.125,1.119-.338,2.215-.554,3.318-.129.659-.239,1.319-.34,1.984-.052.263-.052.263-.185.4-.364.012-.724.016-1.088.013h-.331q-.522,0-1.047,0h-.71l-1.741-.007c-.008-.141-.015-.282-.023-.427a16.336,16.336,0,0,0-1.786-7.028,1.216,1.216,0,0,1-.185-.784h-.266c-.4-.764-.4-.764-.4-1.063h-.266c-.186-.263-.36-.526-.532-.8a6.251,6.251,0,0,0-1.371-1.543,4.743,4.743,0,0,1-.539-.509,7.588,7.588,0,0,0-1.81-1.4V6.245L7.74,6.138a1.758,1.758,0,0,1-.683-.348,6.524,6.524,0,0,0-1.346-.7c-.251-.112-.5-.23-.747-.353A10.991,10.991,0,0,0,.687,3.749,2.126,2.126,0,0,1,0,3.588Z" transform="translate(42.837 27.237)" fill="#ff0303"/>
  <path id="Path_28353" data-name="Path 28353" d="M0,0H4.651c.074.384.147.767.225,1.163a12.683,12.683,0,0,0,.971,2.957,2.3,2.3,0,0,1,.266,1.063h.266c.065.147.065.147.133.3A10.085,10.085,0,0,0,8.068,7.885c.288.336.551.682.819,1.034a9.734,9.734,0,0,0,2.632,2.235l.44.274v.266l.28.1a11.8,11.8,0,0,1,1.207.61A14.413,14.413,0,0,0,19.663,14.2c.268.019.268.019.4.151.012.373.016.744.013,1.118,0,.167,0,.167,0,.339q0,.538,0,1.076c0,.243,0,.485,0,.728q0,.895-.007,1.789a11.083,11.083,0,0,1-2.658-.4c-.5-.077-1.006-.129-1.512-.183-1.331-.15-2.652-.34-3.974-.558-.761-.126-1.521-.241-2.287-.338a15.645,15.645,0,0,1-1.771-.318c-.335-.076-.671-.122-1.011-.173a6.42,6.42,0,0,1-3.928-2.55l-.207-.274a8.454,8.454,0,0,1-1.387-4.119c-.021-.163-.043-.328-.065-.5C1.143,9.049,1.031,8.1.921,7.157c-.012-.1-.024-.2-.036-.306Q.8,6.11.716,5.37A19.025,19.025,0,0,0,.326,2.938,14.038,14.038,0,0,1,.117,1.254C.078.84.04.427,0,0Z" transform="translate(20.381 49.694)" fill="#ff0303"/>
  <path id="Path_28354" data-name="Path 28354" d="M-7.466-.179l.3,0,.642,0c.324,0,.647-.005.971-.009h.623L-4.634-.2A3.28,3.28,0,0,1-2.471.471c.09.114.09.114.182.233L-2.1.936A3.35,3.35,0,0,1-1.792,2.8c0,.165,0,.165,0,.334,0,.364.005.727.007,1.091,0,.125,0,.248,0,.377q0,.987.005,1.975c0,.679.007,1.359.012,2.038q0,.783.005,1.569c0,.25,0,.5,0,.751,0,.351,0,.7,0,1.052,0,.1,0,.2.005.311a2.808,2.808,0,0,1-.6,1.765,3.522,3.522,0,0,1-2.526.683H-7.749c-.695,0-.695,0-.842-.151-.013-.189-.017-.38-.017-.57,0-.122,0-.246,0-.372,0-.2,0-.2,0-.412,0-.142,0-.286,0-.432v-2.4q0-1.03,0-2.06,0-1.325,0-2.648v-3c0-.454,0-.908,0-1.362,0-.136,0-.272,0-.412,0-.124,0-.246,0-.373V.225C-8.567-.367-7.924-.176-7.466-.179Z" transform="translate(12.496 78.414)" fill="#fb0000"/>
  <path id="Path_28355" data-name="Path 28355" d="M-4.093-.25l.593.005h.306l.749.007.266.532L-1.947.1A4.625,4.625,0,0,1,.761-.262l.524-.005h.5l.458,0a.689.689,0,0,1,.629.3,4.391,4.391,0,0,1,.153.579c.04.179.04.179.08.363l.085.392c.043.2.043.2.088.4q.14.636.276,1.272.094.431.189.861.231,1.056.458,2.113a17.864,17.864,0,0,0,.666-2.384c.023-.108.045-.214.069-.324q.108-.506.213-1.013t.215-1.024c.044-.211.089-.423.133-.634.151-.719.151-.719.3-.866.179-.012.357-.015.537-.013h.326L7-.245h.344l.844.007a2.021,2.021,0,0,1-.072,1.4c-.024.084-.047.167-.07.254q-.11.4-.223.805c-.072.263-.145.526-.217.789l-.144.521c-.214.779-.412,1.56-.6,2.344-.367,1.5-.748,3-1.184,4.485-.174.593-.324,1.18-.452,1.786A4.158,4.158,0,0,1,3.31,14.462a5.1,5.1,0,0,1-2.433.183c-.242-.242-.15-.573-.15-.894,0-.1,0-.2,0-.3,0-.15,0-.15,0-.3,0-.744,0-.744.15-.893.238-.015.476-.025.715-.033a1.4,1.4,0,0,0,1.038-.357A4.125,4.125,0,0,0,2.5,9.357c-.214-.674-.409-1.347-.589-2.03-.024-.092-.049-.185-.074-.28-.049-.19-.1-.381-.149-.571L1.3,4.986c-.025-.1-.05-.193-.077-.292Q.8,3.088.345,1.49l-.266.8-.4.024-.521.035-.518.032c-.4,0-.4,0-.553.175-.016.244-.024.489-.027.735,0,.157-.005.314-.008.476s-.005.341-.007.517-.007.348-.009.528L-1.984,6.2c-.007.472-.015.943-.021,1.415Q-2.027,9-2.046,10.393a2.8,2.8,0,0,1-1.329.149h-.3c-.732,0-.732,0-1.032-.15q0-2.051-.007-4.1,0-.953,0-1.9,0-.919,0-1.836c0-.234,0-.468,0-.7q0-.488,0-.979c0-.1,0-.2,0-.295C-4.719-.233-4.719-.233-4.093-.25Z" transform="translate(49.534 82.619)" fill="#f80000"/>
  <path id="Path_28356" data-name="Path 28356" d="M-21.435-.06H-21a3.191,3.191,0,0,1,2.476.848,2.475,2.475,0,0,1,.441,1.77v.319c0,.221,0,.441-.005.662-.005.339-.005.678-.007,1.017l0,.644c0,.153,0,.153,0,.308-.011.712-.011.712-.158.861-.286.011-.571.013-.857.012h-.525l-.554,0-.555,0-1.362-.005V8.362h1.462c0-.173-.007-.345-.009-.524s0-.36.009-.539c.133-.133.133-.133.367-.149l.3,0h.326l.343,0,.344,0,.844.007c.113,2.114.113,2.114-.266,2.689a3.389,3.389,0,0,1-2.644.97l-.421-.005-.423.005a3.069,3.069,0,0,1-2.093-.6,2.283,2.283,0,0,1-.691-1.8c0-.227,0-.227-.007-.458q-.008-1.036-.015-2.076c0-.364-.005-.73-.011-1.094-.008-.526-.009-1.052-.012-1.579,0-.162-.005-.326-.009-.493a2.654,2.654,0,0,1,.744-2.2A3.436,3.436,0,0,1-21.435-.06Z" transform="translate(61.499 82.392)" fill="#f90000"/>
  <path id="Path_28357" data-name="Path 28357" d="M-21.435-.06H-21a3.191,3.191,0,0,1,2.476.848,2.475,2.475,0,0,1,.441,1.77v.319c0,.221,0,.441-.005.662-.005.339-.005.678-.007,1.017l0,.644c0,.153,0,.153,0,.308-.011.712-.011.712-.158.861-.286.011-.571.013-.857.012h-.525l-.554,0-.555,0-1.362-.005V8.362h1.462c0-.173-.007-.345-.009-.524s0-.36.009-.539c.133-.133.133-.133.367-.149l.3,0h.326l.343,0,.344,0,.844.007c.113,2.114.113,2.114-.266,2.689a3.389,3.389,0,0,1-2.644.97l-.421-.005-.423.005a3.069,3.069,0,0,1-2.093-.6,2.283,2.283,0,0,1-.691-1.8c0-.227,0-.227-.007-.458q-.008-1.036-.015-2.076c0-.364-.005-.73-.011-1.094-.008-.526-.009-1.052-.012-1.579,0-.162-.005-.326-.009-.493a2.654,2.654,0,0,1,.744-2.2A3.436,3.436,0,0,1-21.435-.06Z" transform="translate(36.916 82.392)" fill="#f90000"/>
  <path id="Path_28358" data-name="Path 28358" d="M-2.48,0l.319,0h.343l.361,0h.364L-.2.015A25.784,25.784,0,0,1,.679,3.321q.092.423.186.845.086.379.167.76a4.629,4.629,0,0,0,.227.8c.035-.154.07-.308.106-.466q.193-.859.391-1.718c.056-.247.113-.5.169-.743q.12-.534.243-1.068c.024-.112.049-.222.074-.336s.048-.207.073-.314c.031-.137.031-.137.062-.275A4.233,4.233,0,0,1,2.721.015L3.768.007l.3,0c.749,0,.749,0,1.044.144a17.161,17.161,0,0,1-.481,2.525c-.036.14-.07.279-.106.421C4.242,4.2,3.927,5.3,3.6,6.4s-.618,2.2-.9,3.314c-.031.121-.062.242-.093.367-.028.106-.054.214-.081.324-.074.244-.074.244-.207.377-.38.011-.757.013-1.137.009l-.324,0-.8-.007a8.131,8.131,0,0,1-.78-2.292l-.211-.866-.1-.429c-.132-.529-.275-1.054-.424-1.577q-.427-1.519-.838-3.04c-.04-.149-.081-.3-.124-.45s-.076-.282-.114-.428c-.035-.125-.069-.25-.1-.379A10.585,10.585,0,0,1-2.86.147C-2.727.015-2.727.015-2.48,0Z" transform="translate(31.08 82.367)" fill="#f80000"/>
  <path id="Path_28359" data-name="Path 28359" d="M-5.966,0h.594A3.485,3.485,0,0,1-4.189.151V12.509h1.2c.242.242.15.571.151.893,0,.1,0,.2,0,.3,0,.149,0,.149,0,.3,0,.744,0,.744-.151.894-2.25.159-2.25.159-3.056-.532a1.555,1.555,0,0,1-.266-.532h-.266a4.964,4.964,0,0,1-.3-2.069c0-.126,0-.251,0-.381q0-.62,0-1.24V9.286q0-.9,0-1.8,0-1.16,0-2.319,0-.889,0-1.779V2.527l0-1.191c0-.118,0-.238,0-.36C-6.861,0-6.861,0-5.966,0Z" transform="translate(27.095 78.244)" fill="#f90000"/>
  <path id="Path_28360" data-name="Path 28360" d="M-5.909,0h.6c.739,0,.739,0,1.038.151v10.5a2.834,2.834,0,0,1-1.337.149h-.3c-.737,0-.737,0-.888-.15-.013-.327-.017-.65-.017-.977v-.31c0-.34,0-.679,0-1.019V6.16c0-.633,0-1.266,0-1.9,0-.485,0-.97,0-1.455V2.1c0-.326,0-.651,0-.977v-.3C-6.811,0-6.739,0-5.909,0Z" transform="translate(31.695 82.364)" fill="#f90000"/>
  <path id="Path_28361" data-name="Path 28361" d="M0-.063H1.86L1.993,1,2.158.8,2.376.543,2.59.287a1.088,1.088,0,0,1,.466-.349c.488-.019.974-.005,1.462,0V1.931L3.22,2a1.379,1.379,0,0,0-.961.466,1.989,1.989,0,0,0-.073.752c0,.233,0,.233-.008.468v.5c0,.17,0,.341-.007.517-.005.453-.008.9-.011,1.358s-.008.925-.013,1.387c-.011.906-.016,1.814-.021,2.72H0Z" transform="translate(45.096 82.71)" fill="#f90000"/>
  <path id="Path_28362" data-name="Path 28362" d="M0,0H1.595L1.86,1.063H3.588V0H5.182V5.049H0V4.518l1.462-.133v-.4L0,3.853V3.322l2.525-.133v-.4L0,2.658Z" transform="translate(64.895 82.382)" fill="#fcfc00"/>
  <path id="Path_28363" data-name="Path 28363" d="M-4.093-.25l.593.005h.306l.749.007.266.532L-1.947.1A4.625,4.625,0,0,1,.761-.262l.524-.005h.5l.458,0a.689.689,0,0,1,.629.3,4.391,4.391,0,0,1,.153.579c.04.179.04.179.08.363l.085.392c.043.2.043.2.088.4q.14.636.276,1.272.094.431.189.861.231,1.056.458,2.113a17.864,17.864,0,0,0,.666-2.384c.023-.108.045-.214.069-.324q.108-.506.213-1.013t.215-1.024c.044-.211.089-.423.133-.634.151-.719.151-.719.3-.866.179-.012.357-.015.537-.013h.326L7-.245h.344l.844.007a2.021,2.021,0,0,1-.072,1.4c-.024.084-.047.167-.07.254q-.11.4-.223.805c-.072.263-.145.526-.217.789l-.144.521c-.214.779-.412,1.56-.6,2.344-.367,1.5-.748,3-1.184,4.485-.174.593-.324,1.18-.452,1.786A4.158,4.158,0,0,1,3.31,14.462a5.1,5.1,0,0,1-2.433.183c-.242-.242-.15-.573-.15-.894,0-.1,0-.2,0-.3,0-.15,0-.15,0-.3,0-.744,0-.744.15-.893.238-.015.476-.025.715-.033a1.4,1.4,0,0,0,1.038-.357A4.125,4.125,0,0,0,2.5,9.357c-.214-.674-.409-1.347-.589-2.03-.024-.092-.049-.185-.074-.28-.049-.19-.1-.381-.149-.571L1.3,4.986c-.025-.1-.05-.193-.077-.292Q.8,3.088.345,1.49l-.266.8-.4.024-.521.035-.518.032c-.4,0-.4,0-.553.175-.016.244-.024.489-.027.735,0,.157-.005.314-.008.476s-.005.341-.007.517-.007.348-.009.528L-1.984,6.2c-.007.472-.015.943-.021,1.415Q-2.027,9-2.046,10.393a2.8,2.8,0,0,1-1.329.149h-.3c-.732,0-.732,0-1.032-.15q0-2.051-.007-4.1,0-.953,0-1.9,0-.919,0-1.836c0-.234,0-.468,0-.7q0-.488,0-.979c0-.1,0-.2,0-.295C-4.719-.233-4.719-.233-4.093-.25Zm-.345.279V10.26h2.126c0-.231,0-.462,0-.7q.008-1.146.021-2.292.008-.7.011-1.391c0-.532.009-1.064.016-1.6,0-.167,0-.334,0-.5,0-.154.005-.308.008-.468,0-.136,0-.271,0-.412a.765.765,0,0,1,.312-.582A2.479,2.479,0,0,1-.751,2.063l.83-.041V.029A2.364,2.364,0,0,0-1.93.41a2.369,2.369,0,0,0-.516.682L-2.578.029Zm4.651,0c.335,1.462.7,2.906,1.111,4.349q.211.747.417,1.5c.056.2.11.395.165.591q.175.63.348,1.258c.029.108.058.215.089.326.057.2.113.409.169.614.114.412.231.812.379,1.215a2.972,2.972,0,0,1,.1,1.195c-.009.136-.017.27-.027.408a1.309,1.309,0,0,1-.622.9,7.373,7.373,0,0,1-1.329.133v1.86a3.575,3.575,0,0,0,2.805-.55,7.243,7.243,0,0,0,1.713-3.7c.032-.126.065-.252.1-.383q.261-1.028.514-2.058c.3-1.234.636-2.46.981-3.682l.219-.783c.072-.256.145-.512.217-.768l.137-.485c.06-.215.06-.215.122-.435A14.36,14.36,0,0,0,8.052.029H5.793q-.281,1.308-.561,2.616-.094.446-.19.89c-.092.427-.183.854-.274,1.281-.029.132-.057.264-.086.4-.141.66-.266,1.317-.351,1.988H4.2l-.048-.248C3.82,5.265,3.475,3.579,3.1,1.9c-.035-.155-.068-.311-.1-.472-.048-.217-.048-.217-.1-.437C2.873.861,2.845.733,2.816.6A1.416,1.416,0,0,0,2.6.029Z" transform="translate(49.534 82.619)" fill="#211800"/>
  <path id="Path_28364" data-name="Path 28364" d="M0,0H1.727V10.1H0Z" transform="translate(6.428 80.654)" fill="#fcfc00"/>
  <path id="Path_28365" data-name="Path 28365" d="M-75.44,0c.041.106.084.211.126.32a10.8,10.8,0,0,0,1.07,2.072,9.759,9.759,0,0,1,.664,1.86l-.4.133v.266h-.266c-.061.124-.061.124-.125.25q-.136.273-.274.547h-.266c-.027.092-.054.182-.082.276A4.723,4.723,0,0,1-75.979,7a4.781,4.781,0,0,0-.922,1.1h-5.714l-.266-1.993a2.709,2.709,0,0,0-1.726-1.5A12.229,12.229,0,0,0-87,4.385v-.4h5.049l-.266,1.2a2.135,2.135,0,0,0,.4,1.595,4.558,4.558,0,0,0,2.658.457l.506.008a2.771,2.771,0,0,0,2.424-.864L-76,6.112l.23-.266a3.307,3.307,0,0,0,.468-2.525,14.342,14.342,0,0,0-.4-1.595c-.039-.13-.076-.26-.116-.395Q-75.958.864-76.1.4C-75.739,0-75.739,0-75.44,0Z" transform="translate(155.749 85.704)" fill="#f5f500"/>
  <path id="Path_28366" data-name="Path 28366" d="M-36.809-3.091a2.369,2.369,0,0,1,.737,1.1c.066.789.066.789.133,1.595H-42.45l.133-.532,1.993-.133.133-.532h-1.727l.133-.4,2.658-.133L-39-2.652h-2.126A3.8,3.8,0,0,1-36.809-3.091Z" transform="translate(108.408 94.202)" fill="#f5f500"/>
  <path id="Path_28367" data-name="Path 28367" d="M-18.21-.712A4.027,4.027,0,0,1-17.121.957c.047.1.094.2.142.31a11.692,11.692,0,0,1,.5,1.211l.316.049a14.906,14.906,0,0,1,2.208.482V3.54a6.878,6.878,0,0,1-3.056-.4,3.4,3.4,0,0,1-.538-1.021c-.112-.347-.112-.347-.5-.59l-.291-.117c-.033.1-.066.209-.1.316-.211.613-.454,1.209-.7,1.81L-21,3.274A7.088,7.088,0,0,1-19.273-.712,1.349,1.349,0,0,1-18.21-.712Z" transform="translate(93.602 81.765)" fill="#fafa00"/>
  <path id="Path_28368" data-name="Path 28368" d="M-.951,0l.639.058L.048.09A2.6,2.6,0,0,1,.777.266,2.223,2.223,0,0,1,.909.8L1.2.864c.428.1.854.2,1.282.307l.452.1c.142.035.284.07.432.1l.4.1a1.3,1.3,0,0,1,.736.517A2.906,2.906,0,0,1,4.53,2.7c-.005.21-.005.21-.011.424q-.058,1.164-.155,2.325h-.93V2.79H3.168V2.525L2.8,2.514C-.3,2.375-.3,2.375-1.084,1.595A4.7,4.7,0,0,1-.951,0Z" transform="translate(73.42 85.704)" fill="#fafa00"/>
  <path id="Path_28369" data-name="Path 28369" d="M-5.966,0h.594A3.485,3.485,0,0,1-4.189.151V12.509h1.2c.242.242.15.571.151.893,0,.1,0,.2,0,.3,0,.149,0,.149,0,.3,0,.744,0,.744-.151.894-2.25.159-2.25.159-3.056-.532a1.555,1.555,0,0,1-.266-.532h-.266a4.964,4.964,0,0,1-.3-2.069c0-.126,0-.251,0-.381q0-.62,0-1.24V9.286q0-.9,0-1.8,0-1.16,0-2.319,0-.889,0-1.779V2.527l0-1.191c0-.118,0-.238,0-.36C-6.861,0-6.861,0-5.966,0Zm-.615.284q-.018,2.5-.028,5,0,1.16-.012,2.321-.008,1.12-.011,2.242,0,.427-.005.854c0,.4,0,.8,0,1.2,0,.118,0,.235-.007.356a2.686,2.686,0,0,0,.872,2.022,2.317,2.317,0,0,0,1.745.365h.3l.736-.007v-1.86l-.59-.058c-.589-.058-.589-.058-.739-.207-.016-.38-.025-.757-.027-1.137,0-.12,0-.239,0-.361-.005-.4-.008-.792-.012-1.189L-4.373,9l-.02-2.167q-.01-1.1-.021-2.21Q-4.436,2.454-4.455.284Z" transform="translate(27.095 78.244)" fill="#292900"/>
  <path id="Path_28370" data-name="Path 28370" d="M-2.48,0l.319,0h.343l.361,0h.364L-.2.015A25.784,25.784,0,0,1,.679,3.321q.092.423.186.845.086.379.167.76a4.629,4.629,0,0,0,.227.8c.035-.154.07-.308.106-.466q.193-.859.391-1.718c.056-.247.113-.5.169-.743q.12-.534.243-1.068c.024-.112.049-.222.074-.336s.048-.207.073-.314c.031-.137.031-.137.062-.275A4.233,4.233,0,0,1,2.721.015L3.768.007l.3,0c.749,0,.749,0,1.044.144a17.161,17.161,0,0,1-.481,2.525c-.036.14-.07.279-.106.421C4.242,4.2,3.927,5.3,3.6,6.4s-.618,2.2-.9,3.314c-.031.121-.062.242-.093.367-.028.106-.054.214-.081.324-.074.244-.074.244-.207.377-.38.011-.757.013-1.137.009l-.324,0-.8-.007a8.131,8.131,0,0,1-.78-2.292l-.211-.866-.1-.429c-.132-.529-.275-1.054-.424-1.577q-.427-1.519-.838-3.04c-.04-.149-.081-.3-.124-.45s-.076-.282-.114-.428c-.035-.125-.069-.25-.1-.379A10.585,10.585,0,0,1-2.86.147C-2.727.015-2.727.015-2.48,0Zm-.114.28a20.238,20.238,0,0,0,.66,2.805c.225.743.419,1.491.6,2.244.23.943.485,1.874.765,2.8.235.787.439,1.58.63,2.379H2.189a15.964,15.964,0,0,0,.706-2.283c.227-.934.472-1.86.74-2.782q.48-1.66.93-3.33c.061-.229.061-.229.125-.46.037-.141.076-.282.114-.427.035-.126.068-.251.1-.381A1.217,1.217,0,0,0,4.98.28H2.721q-.249,1.052-.5,2.1c-.056.238-.113.476-.169.714a34.929,34.929,0,0,0-.8,4.357c-.02-.146-.039-.292-.06-.442C.889,4.74.324,2.513-.2.28Z" transform="translate(31.08 82.367)" fill="#110600"/>
  <path id="Path_28371" data-name="Path 28371" d="M-3.468,0a2.2,2.2,0,0,1,.4.93H-2.8l.133.266c.275.052.551.1.829.145C-.448,1.569-.448,1.569.013,2A4.549,4.549,0,0,1,.385,3.056L.5,3.442c.646,2.247.646,2.247.272,3.14a6,6,0,0,1-.524.727l-.8-.266c.005-.073.009-.147.015-.223A6.477,6.477,0,0,0-.774,2.788a1.808,1.808,0,0,0-.994-.46l-.395-.086-.409-.082-.416-.089C-3.324,2-3.662,1.928-4,1.86c.037-.21.077-.421.117-.631.021-.117.043-.234.065-.355A3.325,3.325,0,0,1-3.468,0Z" transform="translate(78.994 84.242)" fill="#f9f900"/>
  <path id="Path_28372" data-name="Path 28372" d="M-7.466-.179l.3,0,.642,0c.324,0,.647-.005.971-.009h.623L-4.634-.2A3.28,3.28,0,0,1-2.471.471c.09.114.09.114.182.233L-2.1.936A3.35,3.35,0,0,1-1.792,2.8c0,.165,0,.165,0,.334,0,.364.005.727.007,1.091,0,.125,0,.248,0,.377q0,.987.005,1.975c0,.679.007,1.359.012,2.038q0,.783.005,1.569c0,.25,0,.5,0,.751,0,.351,0,.7,0,1.052,0,.1,0,.2.005.311a2.808,2.808,0,0,1-.6,1.765,3.522,3.522,0,0,1-2.526.683H-7.749c-.695,0-.695,0-.842-.151-.013-.189-.017-.38-.017-.57,0-.122,0-.246,0-.372,0-.2,0-.2,0-.412,0-.142,0-.286,0-.432v-2.4q0-1.03,0-2.06,0-1.325,0-2.648v-3c0-.454,0-.908,0-1.362,0-.136,0-.272,0-.412,0-.124,0-.246,0-.373V.225C-8.567-.367-7.924-.176-7.466-.179Zm-.993.292V14.464c4.509.468,4.509.468,5.847-.532a2.458,2.458,0,0,0,.6-1.948c0-.113,0-.226,0-.343,0-.371,0-.743,0-1.114,0-.259,0-.518,0-.777q0-.813,0-1.628,0-1.04,0-2.082c0-.536,0-1.07,0-1.605,0-.256,0-.512,0-.768,0-.357,0-.716,0-1.074q0-.157,0-.319a2.191,2.191,0,0,0-.6-1.63C-3.95-.353-3.95-.353-8.459.114Z" transform="translate(12.496 78.414)" fill="#140100"/>
  <path id="Path_28373" data-name="Path 28373" d="M-21.435-.06H-21a3.191,3.191,0,0,1,2.476.848,2.475,2.475,0,0,1,.441,1.77v.319c0,.221,0,.441-.005.662-.005.339-.005.678-.007,1.017l0,.644c0,.153,0,.153,0,.308-.011.712-.011.712-.158.861-.286.011-.571.013-.857.012h-.525l-.554,0-.555,0-1.362-.005V8.362h1.462c0-.173-.007-.345-.009-.524s0-.36.009-.539c.133-.133.133-.133.367-.149l.3,0h.326l.343,0,.344,0,.844.007c.113,2.114.113,2.114-.266,2.689a3.389,3.389,0,0,1-2.644.97l-.421-.005-.423.005a3.069,3.069,0,0,1-2.093-.6,2.283,2.283,0,0,1-.691-1.8c0-.227,0-.227-.007-.458q-.008-1.036-.015-2.076c0-.364-.005-.73-.011-1.094-.008-.526-.009-1.052-.012-1.579,0-.162-.005-.326-.009-.493a2.654,2.654,0,0,1,.744-2.2A3.436,3.436,0,0,1-21.435-.06Zm-2.716,1.2a1.764,1.764,0,0,0-.379,1.257c0,.142,0,.283,0,.428s0,.306,0,.464,0,.314,0,.476c0,.334,0,.666,0,1,0,.509-.005,1.017-.009,1.525,0,.323,0,.646,0,.97,0,.151,0,.3-.005.46a2.813,2.813,0,0,0,.651,2.194,3.372,3.372,0,0,0,2.486.621l.457.012a2.509,2.509,0,0,0,2.036-.585,2.3,2.3,0,0,0,.672-1.886c0-.255-.005-.51-.008-.772h-2.126c-.02.171-.039.344-.058.522-.058.524-.058.524-.207.674-.244.012-.488.016-.731.016h-.4c-.327-.017-.327-.017-.46-.15-.032-.381-.057-.757-.076-1.139s-.039-.74-.057-1.12h4.119c.012-.611.023-1.22.028-1.83q0-.311.012-.622c.007-.3.009-.6.012-.9,0-.092.005-.183.008-.278A2.166,2.166,0,0,0-18.794.921,3.162,3.162,0,0,0-21.353.214L-21.809.2A2.48,2.48,0,0,0-24.151,1.136Z" transform="translate(61.499 82.392)" fill="#120b00"/>
  <path id="Path_28374" data-name="Path 28374" d="M-21.435-.06H-21a3.191,3.191,0,0,1,2.476.848,2.475,2.475,0,0,1,.441,1.77v.319c0,.221,0,.441-.005.662-.005.339-.005.678-.007,1.017l0,.644c0,.153,0,.153,0,.308-.011.712-.011.712-.158.861-.286.011-.571.013-.857.012h-.525l-.554,0-.555,0-1.362-.005V8.362h1.462c0-.173-.007-.345-.009-.524s0-.36.009-.539c.133-.133.133-.133.367-.149l.3,0h.326l.343,0,.344,0,.844.007c.113,2.114.113,2.114-.266,2.689a3.389,3.389,0,0,1-2.644.97l-.421-.005-.423.005a3.069,3.069,0,0,1-2.093-.6,2.283,2.283,0,0,1-.691-1.8c0-.227,0-.227-.007-.458q-.008-1.036-.015-2.076c0-.364-.005-.73-.011-1.094-.008-.526-.009-1.052-.012-1.579,0-.162-.005-.326-.009-.493a2.654,2.654,0,0,1,.744-2.2A3.436,3.436,0,0,1-21.435-.06Zm-2.716,1.2a1.764,1.764,0,0,0-.379,1.257c0,.142,0,.283,0,.428s0,.306,0,.464,0,.314,0,.476c0,.334,0,.666,0,1,0,.509-.005,1.017-.009,1.525,0,.323,0,.646,0,.97,0,.151,0,.3-.005.46a2.813,2.813,0,0,0,.651,2.194,3.372,3.372,0,0,0,2.486.621l.457.012a2.509,2.509,0,0,0,2.036-.585,2.3,2.3,0,0,0,.672-1.886c0-.255-.005-.51-.008-.772h-2.126c-.02.171-.039.344-.058.522-.058.524-.058.524-.207.674-.244.012-.488.016-.731.016h-.4c-.327-.017-.327-.017-.46-.15-.032-.381-.057-.757-.076-1.139s-.039-.74-.057-1.12h4.119c.012-.611.023-1.22.028-1.83q0-.311.012-.622c.007-.3.009-.6.012-.9,0-.092.005-.183.008-.278A2.166,2.166,0,0,0-18.794.921,3.162,3.162,0,0,0-21.353.214L-21.809.2A2.48,2.48,0,0,0-24.151,1.136Z" transform="translate(36.916 82.392)" fill="#0e0900"/>
  <path id="Path_28375" data-name="Path 28375" d="M-16.631,0a4.165,4.165,0,0,1,2.515.6,11.258,11.258,0,0,1-1.852,1.229l-.336.193-1,.571q-.291.165-.579.332-.64.367-1.281.731C-19.2,2.646-19.2,2.646-18.9,2.2h.266c.035-.077.07-.153.108-.233a4.362,4.362,0,0,1,.557-.83h.266c.035-.077.07-.153.108-.233C-17.169.093-17.169.093-16.631,0Z" transform="translate(99.209 90.683)" fill="#fafa00"/>
  <path id="Path_28376" data-name="Path 28376" d="M0,0H1.993c.323.323.3.5.3.937,0,.093,0,.186,0,.282s0,.2,0,.3c0,.326,0,.65,0,.975v.676c0,.473,0,.945,0,1.418q0,.911,0,1.82c0,.466,0,.931,0,1.4v.671c0,.314,0,.626,0,.938,0,.093,0,.186,0,.282-.005.64-.005.64-.3.937H0ZM.266.266v10.1H1.993V.266Z" transform="translate(6.163 80.389)" fill="#1d0a00"/>
  <path id="Path_28377" data-name="Path 28377" d="M-5.87-.108h.6c.739,0,.739,0,1.038.151q.006.56.008,1.12c0,.108,0,.214,0,.324,0,.271-.005.542-.012.815-.241.241-.567.15-.888.15h-.6c-.739,0-.739,0-1.039-.15l-.008-1.121q0-.159,0-.323c0-.272.005-.543.012-.815C-6.518-.2-6.191-.108-5.87-.108Z" transform="translate(31.656 78.352)" fill="#f90000"/>
  <path id="Path_28378" data-name="Path 28378" d="M-23.248-.037a1.163,1.163,0,0,1,.731.648,3.167,3.167,0,0,1-.1,2.149,2.626,2.626,0,0,1-1.709,1.107,2.185,2.185,0,0,1-1.781-.6,1.823,1.823,0,0,1-.706-1.18c.013-.093.027-.186.041-.282.219-.088.439-.177.664-.266a11.163,11.163,0,0,1,.532,1.329,3.182,3.182,0,0,0,2.026-.258,1.988,1.988,0,0,0,.233-1.6,3.583,3.583,0,0,0-.664-.8C-23.58-.053-23.58-.053-23.248-.037Z" transform="translate(108.008 92.534)" fill="#f9f900"/>
  <path id="Path_28379" data-name="Path 28379" d="M-5.909,0h.6c.739,0,.739,0,1.038.151v10.5a2.834,2.834,0,0,1-1.337.149h-.3c-.737,0-.737,0-.888-.15-.013-.327-.017-.65-.017-.977v-.31c0-.34,0-.679,0-1.019V6.16c0-.633,0-1.266,0-1.9,0-.485,0-.97,0-1.455V2.1c0-.326,0-.651,0-.977v-.3C-6.811,0-6.739,0-5.909,0Zm-.622.284V10.516H-4.4V.284Z" transform="translate(31.695 82.364)" fill="#110"/>
  <path id="Path_28380" data-name="Path 28380" d="M-.867-.157C-.518-.163-.17-.169.18-.173l.3-.008c.259,0,.52.011.779.024a1.3,1.3,0,0,1,.419.845c.027.12.053.239.08.363.041.194.041.194.084.392l.089.4c.093.424.185.846.275,1.27q.1.431.189.861.231,1.056.46,2.113A17.864,17.864,0,0,0,3.519,3.7c.023-.106.045-.214.069-.324.07-.338.142-.675.211-1.013s.144-.683.217-1.024c.044-.21.088-.423.132-.634.153-.719.153-.719.3-.866.178-.012.357-.015.537-.013H5.31l.341,0H6l.844.007a2.224,2.224,0,0,1-.116,1.543c-.027.1-.053.193-.081.292-.085.308-.173.615-.26.922-.058.209-.116.417-.174.626Q6,3.994,5.777,4.76a2.2,2.2,0,0,1,.086-1.484Q5.9,3.14,5.935,3q.116-.433.233-.865l.155-.589q.189-.72.384-1.438H4.448c-.025.26-.025.26-.052.525a17.4,17.4,0,0,1-.318,1.831c-.023.106-.045.213-.069.323q-.108.5-.218,1.009c-.308,1.424-.609,2.841-.805,4.285H2.853c-.02-.106-.04-.213-.061-.322C2.4,5.654,1.979,3.555,1.5,1.466c-.048-.211-.048-.211-.1-.425C1.377.918,1.349.795,1.32.668A1.836,1.836,0,0,1,1.259.109H-1Z" transform="translate(50.88 82.539)" fill="#0c0600"/>
  <path id="Path_28381" data-name="Path 28381" d="M0-.218Q.939-.234,1.878-.239l.635-.009A15.663,15.663,0,0,1,6.644.18c.066.2.066.2.133.4H0Z" transform="translate(67.951 88.447)" fill="#fefe00"/>
  <path id="Path_28382" data-name="Path 28382" d="M-8.928,0l.664.133c-.012.376-.025.753-.041,1.129-.005.158-.005.158-.009.319A5.367,5.367,0,0,1-8.8,3.588c-.967-.08-.967-.08-1.329-.282a2.232,2.232,0,0,1,0-1.7l.133-.407h.266V.93L-9.061.8Z" transform="translate(84.454 88.76)" fill="#f9f900"/>
  <path id="Path_28383" data-name="Path 28383" d="M-16.475-.864a9.6,9.6,0,0,1,.4.93,1.09,1.09,0,0,0,.532.266c-.5.648-.5.648-.8.8A2.12,2.12,0,0,1-18.07.839,3.46,3.46,0,0,1-18.6-.2l-.4.133V-.332l.664-.266V.067h.4c-.013-.1-.028-.2-.041-.307.041-.357.041-.357.323-.607A1.313,1.313,0,0,1-16.475-.864Z" transform="translate(100.372 94.407)" fill="#1b1b03"/>
  <path id="Path_28384" data-name="Path 28384" d="M0,0H5.847c.066.263.066.263.133.532-.133.133-.133.133-.371.149H4.162c-.416,0-.83,0-1.246,0H2.072L0,.664Z" transform="translate(59.58 90.355)" fill="#181803"/>
  <path id="Path_28385" data-name="Path 28385" d="M0-.2a2.582,2.582,0,0,1,.8,0,2.741,2.741,0,0,1,.4.664c.239.295.239.295.569.3L2.118.754l.352,0A1.488,1.488,0,0,0,3.189.6a4.129,4.129,0,0,0,.266-.8h.8a1.963,1.963,0,0,1-.532,1.329H3.455v.266a2.974,2.974,0,0,1-1.993.266A5.76,5.76,0,0,1,.133.6C.08.331.035.065,0-.2Z" transform="translate(67.154 94.675)" fill="#f9f900"/>
  <path id="Path_28386" data-name="Path 28386" d="M-3.989,0l.639,0h.339l1.076,0h.728L.582.015c.065.33.065.33.133.664H-4.6C-4.6.02-4.6.02-3.989,0Z" transform="translate(66.173 89.276)" fill="#0a0a01"/>
  <path id="Path_28387" data-name="Path 28387" d="M0,0H1.462V1.86H0Z" transform="translate(39.382 84.774)" fill="#fefe00"/>
  <path id="Path_28388" data-name="Path 28388" d="M0,0H1.462V1.86H0Z" transform="translate(14.8 84.774)" fill="#fefe00"/>
  <path id="Path_28389" data-name="Path 28389" d="M-13.007,0l-.133,1.86H-14.6c-.027-.338-.052-.675-.078-1.013s-.028-.34-.32-.582l.547-.133.31-.074A4.809,4.809,0,0,1-13.007,0Z" transform="translate(94.911 83.844)" fill="#efef00"/>
  <path id="Path_28390" data-name="Path 28390" d="M-5.87-.108h.6c.739,0,.739,0,1.038.151q.006.56.008,1.12c0,.108,0,.214,0,.324,0,.271-.005.542-.012.815-.241.241-.567.15-.888.15h-.6c-.739,0-.739,0-1.039-.15l-.008-1.121q0-.159,0-.323c0-.272.005-.543.012-.815C-6.518-.2-6.191-.108-5.87-.108Zm-.622.284V2.17h2.126V.177Z" transform="translate(31.656 78.352)" fill="#100b00"/>
  <path id="Path_28391" data-name="Path 28391" d="M-4.085,0l.395,0L-3.3,0c.336.036.336.036.6.3.019.364.025.715.016,1.079,0,.1,0,.2,0,.3,0,.247-.008.494-.013.743H-4.687c-.008-.349-.012-.7-.017-1.047,0-.1,0-.2-.007-.3,0-.26.011-.52.024-.779C-4.421.036-4.421.036-4.085,0Zm-.336.3v1.86h1.462V.3Z" transform="translate(43.804 84.473)" fill="#191700"/>
  <path id="Path_28392" data-name="Path 28392" d="M-4.085,0l.395,0L-3.3,0c.336.036.336.036.6.3.019.364.025.715.016,1.079,0,.1,0,.2,0,.3,0,.247-.008.494-.013.743H-4.687c-.008-.349-.012-.7-.017-1.047,0-.1,0-.2-.007-.3,0-.26.011-.52.024-.779C-4.421.036-4.421.036-4.085,0Zm-.336.3v1.86h1.462V.3Z" transform="translate(19.221 84.473)" fill="#191700"/>
  <path id="Path_28393" data-name="Path 28393" d="M-10.241,0l.468,0,.355,0c-.3.809-.3.809-.8,1.063a2.195,2.195,0,0,1-.93,0A2.762,2.762,0,0,1-11.81.4V.136A6.284,6.284,0,0,1-10.241,0Z" transform="translate(86.14 79.189)" fill="#f9f900"/>
  <path id="Path_28394" data-name="Path 28394" d="M-5.463-.068c.391.108.391.108.656.506a1.828,1.828,0,0,1-.133.664c-.4.266-.4.266-.739.233a.964.964,0,0,1-.59-.365,2.507,2.507,0,0,1,0-.8C-5.869-.094-5.869-.094-5.463-.068Z" transform="translate(88.969 93.504)" fill="#fcfc00"/>
  <path id="Path_28395" data-name="Path 28395" d="M-.867,0l.8.4V.664L.86.93V1.2l.334.112,2.457.819v.266A12.112,12.112,0,0,1-1,.532Z" transform="translate(30.815 19.131)" fill="#ffc8c8"/>
  <path id="Path_28396" data-name="Path 28396" d="M0,0,.133.266,5.049.4V1.462l-.266-.133V.664l-.4,0C3.9.674,3.418.676,2.933.679L2.3.684C2,.688,1.7.69,1.4.691l-.284,0A1.582,1.582,0,0,1,0,.4Z" transform="translate(60.377 92.746)" fill="#474703"/>
  <path id="Path_28397" data-name="Path 28397" d="M0,0,4.518.133,4.385.664A1.692,1.692,0,0,1,3.271.88L3.056.8l.8-.266-.3-.02C3.113.481,2.67.448,2.226.415L1.759.384,1.31.349.9.32A2.073,2.073,0,0,1,0,0Z" transform="translate(40.711 21.258)" fill="#ffaeae"/>
  <path id="Path_28398" data-name="Path 28398" d="M-10.405-.172a2.638,2.638,0,0,1,.532.532c-.266.266-.773.187-1.137.207L-11.3.584l-.7.041c.237-.51.237-.51.5-.7A2.226,2.226,0,0,1-10.405-.172Z" transform="translate(86.33 78.036)" fill="#f0f000"/>
  <path id="Path_28399" data-name="Path 28399" d="M-17.342,0l.266.133Q-17.637.7-18.2,1.268c-.126.129-.254.258-.38.388q-.273.277-.549.553c-.11.112-.219.223-.334.338-.274.244-.274.244-.539.244A3.859,3.859,0,0,1-18.97,1.47c.068-.068.137-.136.206-.206C-18.31.815-17.838.4-17.342,0Z" transform="translate(48.619 34.014)" fill="#ffcfcf"/>
  <path id="Path_28400" data-name="Path 28400" d="M0-.173q.456-.01.914-.016L1.427-.2c.433.027.433.027.7.292A2.17,2.17,0,0,1,.764.374L.33.367,0,.358Z" transform="translate(76.456 91.99)" fill="#dbdb00"/>
  <path id="Path_28401" data-name="Path 28401" d="M-6.937,0l.266.133L-6.8.4h2.79V.532L-5.334.664-5.707.7A19.737,19.737,0,0,1-8,.8V.532c.171-.093.343-.183.516-.274.094-.052.19-.1.288-.154Z" transform="translate(10.309 22.453)" fill="#ff4a4a"/>
  <path id="Path_28402" data-name="Path 28402" d="M-4.4,0h.133a9.092,9.092,0,0,1-.266,2.525l-.133.133c-.053.335-.1.668-.141,1-.012.094-.024.189-.037.287l-.088.7h-.133a11.462,11.462,0,0,1,.332-3.072c.032-.153.064-.306.1-.462Q-4.523.558-4.4,0Z" transform="translate(65.048 60.324)" fill="#ff8484"/>
  <path id="Path_28403" data-name="Path 28403" d="M-6.07,0h.4l.133.664L-5.671.4a1.745,1.745,0,0,0-.6.981,4.6,4.6,0,0,1-.6,1.278L-7,2.392a3.363,3.363,0,0,1,.241-.481A6.228,6.228,0,0,0-6.2.266Z" transform="translate(47.313 33.35)" fill="#ffe351"/>
  <path id="Path_28404" data-name="Path 28404" d="M-13.874-.486l-.238.117A4.088,4.088,0,0,0-15.734.976L-16,.843C-15.511.074-14.9-.827-13.874-.486Z" transform="translate(52.858 83.001)" fill="#312300"/>
  <path id="Path_28405" data-name="Path 28405" d="M-13.874-.486l-.238.117A4.088,4.088,0,0,0-15.734.976L-16,.843C-15.511.074-14.9-.827-13.874-.486Z" transform="translate(28.275 83.001)" fill="#312300"/>
  <path id="Path_28406" data-name="Path 28406" d="M0,0H.8C.8.222.8.442.8.664.664.8.664.8.324.805L0,.8Z" transform="translate(67.154 82.249)" fill="#696904"/>
  <path id="Path_28407" data-name="Path 28407" d="M0,0A1.93,1.93,0,0,1,.772.532a2.343,2.343,0,0,0,1.221.532v.266A2.225,2.225,0,0,1,.266.532V.266H0Z" transform="translate(20.514 91.816)" fill="#332600"/>
  <path id="Path_28408" data-name="Path 28408" d="M-6.269,0h.323l.336,0h.34l.83.007V.145q-.472.068-.947.133l-.267.039A9.776,9.776,0,0,1-7.23.411V.145A2.54,2.54,0,0,1-6.269,0Z" transform="translate(8.875 23.106)" fill="#ffaeae"/>
  <path id="Path_28409" data-name="Path 28409" d="M0,0C.074.1.147.2.225.3a5.7,5.7,0,0,0,.971.9l.266.266A1.352,1.352,0,0,1,.266.93,1.121,1.121,0,0,1,0,0Z" transform="translate(12.408 91.418)" fill="#2a1d00"/>
  <path id="Path_28410" data-name="Path 28410" d="M-1.717,0a1.534,1.534,0,0,1,.233,1.155c-.017.157-.017.157-.036.316l-.064.256-.266.133c-.029-.21-.057-.421-.082-.631C-1.949,1.112-1.965,1-1.98.874A1.4,1.4,0,0,1-1.717,0Z" transform="translate(34.057 88.096)" fill="#2e1400"/>
  <path id="Path_28411" data-name="Path 28411" d="M0,0A2.727,2.727,0,0,1,1.37,1.237l.092.225C.929,1.284.749.962.4.532L0,.266Z" transform="translate(41.907 82.515)" fill="#2e1d00"/>
  <path id="Path_28412" data-name="Path 28412" d="M0,0A2.727,2.727,0,0,1,1.37,1.237l.092.225C.929,1.284.749.962.4.532L0,.266Z" transform="translate(17.325 82.515)" fill="#2e1d00"/>
  <path id="Path_28413" data-name="Path 28413" d="M-7.8,0h.266a1.726,1.726,0,0,1-.8,1.2A2.353,2.353,0,0,1-9,1.329l.3-.215A4.905,4.905,0,0,0-7.8,0Z" transform="translate(18.086 91.55)" fill="#241700"/>
  <path id="Path_28414" data-name="Path 28414" d="M0,0H1.329C.93.4.93.4.59.449L.266.4Z" transform="translate(68.616 94.474)" fill="#f8f800"/>
  <path id="Path_28415" data-name="Path 28415" d="M-9.538-1.42v.266A3.369,3.369,0,0,1-11-1.553,2.145,2.145,0,0,1-9.538-1.42Z" transform="translate(44.004 22.677)" fill="#ff9494"/>
  <path id="Path_28416" data-name="Path 28416" d="M-1.734,0c.025.128.025.128.05.258s.04.136.082.274l.266.133a7.321,7.321,0,0,1-.4.664H-2Q-1.866.665-1.734,0Z" transform="translate(39.124 10.361)" fill="#ffc5c5"/>
  <path id="Path_28417" data-name="Path 28417" d="M-1.734,0l.664.4-.133.664L-1.336.532-2,.8Z" transform="translate(76.33 84.641)" fill="#2b2b05"/>
  <path id="Path_28418" data-name="Path 28418" d="M0,0H.4L.532.4H.266v.93H.133Z" transform="translate(27.822 40.658)" fill="#ffe55f"/>
  <path id="Path_28419" data-name="Path 28419" d="M-4.336,0V.4l.266.266L-5,.8A1.249,1.249,0,0,1-4.336,0Z" transform="translate(55.677 20.46)" fill="#ffc2c2"/>
  <path id="Path_28420" data-name="Path 28420" d="M-.867,0,.462.133V.266L-1,.4Z" transform="translate(47.824 22.985)" fill="#ff4242"/>
</svg>
