<svg id="mobilenumber" xmlns="http://www.w3.org/2000/svg" width="20" height="20" viewBox="0 0 20 20">
  <rect id="back" width="20" height="20" fill="none"/>
  <g id="call" transform="translate(1 1)">
    <path id="Path_11871" data-name="Path 11871" d="M17.477,13.7l-3.6-2.4a1.15,1.15,0,0,0-1.56.26l-1.05,1.34a.328.328,0,0,1-.42.09l-.2-.11a12.2,12.2,0,0,1-3.11-2.44,12.2,12.2,0,0,1-2.44-3.1l-.11-.2a.328.328,0,0,1,.09-.42l1.35-1.04a1.17,1.17,0,0,0,.25-1.57L4.277.525a1.166,1.166,0,0,0-1.57-.36l-1.5.9a2.21,2.21,0,0,0-1.02,1.33c-.55,2-.15,5.45,4.9,10.5,3.38,3.38,6.44,5.1,9.08,5.1h.03a5.136,5.136,0,0,0,1.4-.19,2.268,2.268,0,0,0,1.33-1.02l.9-1.5a1.175,1.175,0,0,0-.35-1.58M4.247,7.555l.11.19a12.958,12.958,0,0,0,2.58,3.3,12.741,12.741,0,0,0,3.31,2.58l.19.11a1.164,1.164,0,0,0,1.49-.31l1.04-1.34a.331.331,0,0,1,.44-.08L17,14.4a.335.335,0,0,1,.12.42l-.92,1.52a1.365,1.365,0,0,1-.82.65c-1.79.49-4.92.07-9.69-4.7S.507,4.395,1,2.615a1.386,1.386,0,0,1,.64-.82l1.5-.9a.262.262,0,0,1,.17-.05.319.319,0,0,1,.27.14l2.4,3.59a.326.326,0,0,1-.07.44l-1.35,1.05a1.164,1.164,0,0,0-.31,1.49" fill="#6133bd"/>
    <path id="Path_11872" data-name="Path 11872" d="M15.917,8.1v.02a.4.4,0,0,1-.35.35.2.2,0,0,1-.07.01.438.438,0,0,1-.25-.08.4.4,0,0,1-.16-.28,4.934,4.934,0,0,0-4.91-4.92h-.1a.391.391,0,0,1-.3-.18.382.382,0,0,1-.07-.31.425.425,0,0,1,.49-.35,5.749,5.749,0,0,1,5.72,5.74" fill="#6133bd"/>
    <path id="Path_11873" data-name="Path 11873" d="M14.147,8.1a.282.282,0,0,1,0,.13.437.437,0,0,1-.42.35.22.22,0,0,1-.08-.01.421.421,0,0,1-.34-.49,3.144,3.144,0,0,0-3.13-3.11h-.02a.424.424,0,0,1-.28-.66.432.432,0,0,1,.28-.18,3.99,3.99,0,0,1,3.99,3.97" fill="#6133bd"/>
    <path id="Path_11874" data-name="Path 11874" d="M12.367,8.1a.282.282,0,0,1,0,.13.411.411,0,0,1-.17.27.431.431,0,0,1-.24.08.22.22,0,0,1-.08-.01.421.421,0,0,1-.34-.49,1.362,1.362,0,0,0-1.36-1.33h-.12v-.03a.43.43,0,0,1-.25-.32.439.439,0,0,1,.07-.32.459.459,0,0,1,.28-.17,2.257,2.257,0,0,1,1.57.64,2.185,2.185,0,0,1,.64,1.55" fill="#6133bd"/>
  </g>
</svg>
