<svg xmlns="http://www.w3.org/2000/svg" xmlns:xlink="http://www.w3.org/1999/xlink" width="1057.929" height="610.453" viewBox="0 0 1057.929 610.453">
  <defs>
    <linearGradient id="linear-gradient" x1="0.5" y1="-0.227" x2="0.5" y2="0.708" gradientUnits="objectBoundingBox">
      <stop offset="0" stop-color="#e5e5e5"/>
      <stop offset="0.603" stop-color="#eeeeef"/>
      <stop offset="1" stop-color="#eef2f9"/>
    </linearGradient>
  </defs>
  <g id="no_internet" transform="translate(-951.927 -488.041)">
    <path id="Path_5741" data-name="Path 5741" d="M2092.62,905.9a17.731,17.731,0,0,1-13.042-5.7,287.735,287.735,0,0,0-81.889-61.792,17.778,17.778,0,0,1,15.972-31.768,322.86,322.86,0,0,1,92,69.4,17.774,17.774,0,0,1-13.037,29.858Zm-433.888-5.728a286.787,286.787,0,0,1,210.406-92.4,270.432,270.432,0,0,1,67.053,8.16,17.776,17.776,0,1,0,8.822-34.44,306.6,306.6,0,0,0-75.875-9.268A322.4,322.4,0,0,0,1632.588,876.1a17.771,17.771,0,1,0,26.145,24.075Zm59.607,63.548a198.55,198.55,0,0,1,144.566-69.014,17.808,17.808,0,0,0,17.28-18.285,18.042,18.042,0,0,0-18.289-17.269,234.359,234.359,0,0,0-170.48,81.376,17.778,17.778,0,1,0,26.937,23.186Zm326.714,1.852a17.8,17.8,0,0,0,1.821-25.084,233.854,233.854,0,0,0-101.636-68.666,17.781,17.781,0,1,0-11.392,33.688,198.007,198.007,0,0,1,86.121,58.242,17.784,17.784,0,0,0,25.084,1.821Zm-60.527,65.464a17.785,17.785,0,0,0,3.876-24.846,148.2,148.2,0,0,0-119.261-60.633,55.569,55.569,0,0,0-6.6.314,17.658,17.658,0,0,0-15.376,19.632,17.968,17.968,0,0,0,19.673,15.664,16.524,16.524,0,0,1,2.309-.051,112.492,112.492,0,0,1,90.545,46.03,17.775,17.775,0,0,0,24.836,3.87Zm-54.253,62.464a61.134,61.134,0,1,0-61.134,61.134,61.134,61.134,0,0,0,61.134-61.134Zm-35.559,0a25.572,25.572,0,1,1-25.571-25.572,25.571,25.571,0,0,1,25.571,25.572ZM1706.24,1062.63l300.01-304.415a17.776,17.776,0,1,0-25.309-24.968L1680.93,1037.672a17.774,17.774,0,1,0,25.311,24.959Z" transform="translate(-510.738 -239.913)" opacity="0.05"/>
    <path id="Path_5741-2" data-name="Path 5741" d="M2092.62,905.9a17.731,17.731,0,0,1-13.042-5.7,287.735,287.735,0,0,0-81.889-61.792,17.778,17.778,0,0,1,15.972-31.768,322.86,322.86,0,0,1,92,69.4,17.774,17.774,0,0,1-13.037,29.858Zm-433.888-5.728a286.787,286.787,0,0,1,210.406-92.4,270.432,270.432,0,0,1,67.053,8.16,17.776,17.776,0,1,0,8.822-34.44,306.6,306.6,0,0,0-75.875-9.268A322.4,322.4,0,0,0,1632.588,876.1a17.771,17.771,0,1,0,26.145,24.075Zm59.607,63.548a198.55,198.55,0,0,1,144.566-69.014,17.808,17.808,0,0,0,17.28-18.285,18.042,18.042,0,0,0-18.289-17.269,234.359,234.359,0,0,0-170.48,81.376,17.778,17.778,0,1,0,26.937,23.186Zm326.714,1.852a17.8,17.8,0,0,0,1.821-25.084,233.854,233.854,0,0,0-101.636-68.666,17.781,17.781,0,1,0-11.392,33.688,198.007,198.007,0,0,1,86.121,58.242,17.784,17.784,0,0,0,25.084,1.821Zm-60.527,65.464a17.785,17.785,0,0,0,3.876-24.846,148.2,148.2,0,0,0-119.261-60.633,55.569,55.569,0,0,0-6.6.314,17.658,17.658,0,0,0-15.376,19.632,17.968,17.968,0,0,0,19.673,15.664,16.524,16.524,0,0,1,2.309-.051,112.492,112.492,0,0,1,90.545,46.03,17.775,17.775,0,0,0,24.836,3.87Zm-54.253,62.464a61.134,61.134,0,1,0-61.134,61.134,61.134,61.134,0,0,0,61.134-61.134Zm-35.559,0a25.572,25.572,0,1,1-25.571-25.572,25.571,25.571,0,0,1,25.571,25.572ZM1706.24,1062.63l300.01-304.415a17.776,17.776,0,1,0-25.309-24.968L1680.93,1037.672a17.774,17.774,0,1,0,25.311,24.959Z" transform="translate(-510.738 -239.913)" fill="#6133bd" opacity="0.05"/>
    <g id="Group_4865" data-name="Group 4865" transform="translate(951.927 879.8)">
      <path id="Path_5726" data-name="Path 5726" d="M1790.355,912.242a5.736,5.736,0,0,0-11.333,1.773c.822,5.343,1.872,22.077-3.9,28.814a7.711,7.711,0,0,1-4.658,2.677l.525-31.873a8.292,8.292,0,1,0-16.578.068l1.5,60.49a7.735,7.735,0,0,1-4.852-2.7c-5.776-6.734-4.726-23.468-3.9-28.814a5.736,5.736,0,1,0-11.333-1.773c-.412,2.632-3.727,26.066,6.516,38.034a19.434,19.434,0,0,0,13.859,6.819l.652,26.329h12.517l.907-55.007a19.379,19.379,0,0,0,13.567-6.792C1794.072,938.312,1790.765,914.881,1790.355,912.242Z" transform="translate(-999.61 -905.144)" fill="#bdbdbd"/>
      <path id="Path_5727" data-name="Path 5727" d="M1222.6,967.1a3.656,3.656,0,1,0-7.225,1.128c.525,3.41,1.193,14.075-2.489,18.368a4.915,4.915,0,0,1-2.966,1.7l.341-20.318a5.285,5.285,0,1,0-10.569.045l.954,38.559a4.927,4.927,0,0,1-3.093-1.722c-3.682-4.292-3.014-14.961-2.489-18.367a3.656,3.656,0,0,0-7.225-1.129c-.263,1.677-2.386,16.618,4.153,24.246a12.376,12.376,0,0,0,8.834,4.344l.416,16.785h7.978l.58-35.067a12.361,12.361,0,0,0,8.65-4.33C1224.958,983.72,1222.878,968.8,1222.6,967.1Z" transform="translate(-966.255 -908.731)" fill="#bdbdbd"/>
      <path id="Path_5742" data-name="Path 5742" d="M522.779,0C811.5,0,1057.928,146.122,1057.928,146.122H0S234.055,0,522.779,0Z" transform="translate(0 72.572)" fill="url(#linear-gradient)"/>
    </g>
    <g id="Group_4866" data-name="Group 4866" transform="translate(1405.365 552.719)">
      <path id="Path_5728" data-name="Path 5728" d="M1579.1,949.422s-.239,14.061,0,15.469-5.5,9.649-7.842,9.284a25.718,25.718,0,0,1-7.719-1.929c-.683-.781-.379-2.626-.141-4.313s2-17,2-17.784S1576.478,947.284,1579.1,949.422Z" transform="translate(-1442.562 -580.758)" fill="#ffbe9d"/>
      <path id="Path_5729" data-name="Path 5729" d="M1569.9,965.015c-2.936,1.585-4.586,6.413-5,6.478s-1.2-.058-1.2-.535.12-2.087-.416-2.087-1.136,2.625-1.251,6.441-1.476,12.919,0,14.078c.928.726,9.424,5.189,9.663,5.8s-.181,4.774.535,5.428,2.386,2.267,3.7,2.329a56.983,56.983,0,0,0,12.468,0,27.448,27.448,0,0,0,8.231-3.042,43.88,43.88,0,0,0-2.028-11.869c-1.132-1.251-9.3-12.466-9.963-13.481a11.563,11.563,0,0,1-1.135-4.892,6.305,6.305,0,0,0-3.707-5.306A16.836,16.836,0,0,0,1569.9,965.015Z" transform="translate(-1442.461 -581.689)" fill="#6133bd"/>
      <path id="Path_5730" data-name="Path 5730" d="M1488.871,958.081s0,8.183-.235,9.6,5.507,9.649,7.842,9.284a25.729,25.729,0,0,0,7.72-1.93c.682-.781.382-2.629.136-4.313s-1.756-11.125-1.756-11.91S1491.463,955.943,1488.871,958.081Z" transform="translate(-1438.038 -581.285)" fill="#ffbe9d"/>
      <path id="Path_5731" data-name="Path 5731" d="M1496.172,765.6a421.882,421.882,0,0,0-9.6,73.579c0,20.116-2.012,71.393-2.012,79.188s-.838,27.13,1.173,28.136a20.117,20.117,0,0,0,13.089,3.021,8.616,8.616,0,0,0,8.223-8.729c.167-3.692,1.678-30.209,3.189-40.448s6.88-29.984,10.406-42.685,11.75-38.242,13.932-38.143,15.773,56.051,16.9,59.221,3.291,48.222,3.43,52.006,0,7.423,2.387,8.964a41.79,41.79,0,0,0,13.44,5.6c3.781.283,6.3-5.741,7-7.562s1.94-62.082,1.493-78.615.859-47.359.1-57.411a288.031,288.031,0,0,0-4.773-36.142C1572.957,761.069,1496.172,765.6,1496.172,765.6Z" transform="translate(-1437.78 -569.503)" fill="#263238"/>
      <path id="Path_5732" data-name="Path 5732" d="M1470.89,612.76c3.171-3.522,17.968-20.2,20.907-20.8s10.083-1.882,11.678-3.522,8.333-22.807,5.667-26.656-12.957-2.755-16.086,3.795-2.963,9.983-8.111,14.508-27.577,22.865-29.664,24.716,2.046,10.853,5.329,12.414S1470.89,612.76,1470.89,612.76Z" transform="translate(-1435.972 -557.083)" fill="#ffbe9d"/>
      <path id="Path_5733" data-name="Path 5733" d="M1510.583,620.652c-7.562,1.586-20.117,2.929-24.27,4.269s-20.488,7.075-20.366,4.634,7.563-13.168,6.219-14.269-9.39-2.438-10.73-4.146-3.171-5.728-5-5.244-23.039,20.243-21.586,27.805c3.41,17.829,53.53,30.823,54.69,38.6s-3.887,82.338-1.142,85.083,31.791,13.267,46.428,14.18,40.315-4.183,41.716-8.036-7.143-77.936-6.137-77.936,1.272,23.322,12.421,29.353a19.572,19.572,0,0,0,19.435-2.319c1.937-2.2-6.918-33.2-10.911-43.643s-7.842-32.05-16.9-39.729-21.853-6.363-26.254-8.166-19.179-.512-22.9-.9A136.339,136.339,0,0,0,1510.583,620.652Z" transform="translate(-1434.777 -559.895)" fill="#6133bd"/>
      <path id="Path_5734" data-name="Path 5734" d="M1615.049,703.841s-13.035,3.941-14.051,5.295-2.823,6.778,0,9.039,5.923,3.952,9.274,1.344,6.407-6.117,8.343-6.56,7.729.389,10.161-.566,7.044-19.394,5.183-20.509S1615.049,703.841,1615.049,703.841Z" transform="translate(-1444.8 -565.13)" fill="#ffbe9d"/>
      <path id="Path_5735" data-name="Path 5735" d="M1514.622,615.179c-4.208-.873-12.329-8.814-13.072-16.884-.727-7.866-6.509-29.96,13.621-38.249,18.886-7.781,38.32.222,41.113,9.816,2.608,8.957-19.561,9.359-27.689,15.193s-8.681,9.707-10.709,8.783S1514.622,615.179,1514.622,615.179Z" transform="translate(-1438.748 -556.91)" fill="#263238"/>
      <path id="Path_5736" data-name="Path 5736" d="M1515.162,601.952c-.266,3.6-1.173,21.02.341,23.584a13.479,13.479,0,0,0,13.5,8.9c9.653-.3,15.913-9.956,16.441-11.084s-.6-15.084-.6-17.42-12.957-7.842-18.173-7.7S1515.4,598.563,1515.162,601.952Z" transform="translate(-1439.629 -559.429)" fill="#f7b796"/>
      <path id="Path_5737" data-name="Path 5737" d="M1515.544,600.417c1.087-.031-.2,6.608,1.776,8.776s10.569,13.485,19.639,12.377c7.842-.955,6.727-7.723,7.859-13.3,1.023-5.06,4.293-5.5,5.455-18.705.443-5.114,2.861-13.117-1.579-14.6s-21.1-5.425-25.231,0-4.539,18.443-6.707,16.765-6.707-9.861-9.37-5.425S1509.714,600.587,1515.544,600.417Z" transform="translate(-1439.118 -557.846)" fill="#ffbe9d"/>
      <path id="Path_5738" data-name="Path 5738" d="M10.266,1.129.218,28.17c-.522,1.4-.048,3.471.8,3.44L19.6,30.928c.31,0,.6-.341.781-.856l9.489-27C30.318,1.807,29.881,0,29.134,0L11.043.324C10.74.341,10.457.624,10.266,1.129Z" transform="translate(163.842 115.389) rotate(0.974)" fill="#6133bd"/>
      <path id="Path_5739" data-name="Path 5739" d="M1633.983,688.521c-2.571.256-6.308,1.7-6.308,3.052s3,1.7,3.826,1.841,1.913.385,1.6.8-.931,2.479-2.585,2.121a101.824,101.824,0,0,0-10.29-.467c-1.4,0-3.051.982-3.154,2.018s-.413,1.241-1.241,1.292-2.329.828-2.329,2.172,3.321,2.554,3.321,3.031a59.423,59.423,0,0,0,7.794,5.2c1.279.74,3.665,2.622,5.009,2.622a4.068,4.068,0,0,0,3.75-3.126c.167-1.848,2.82-3.191,2.857-4.092s-.842-1.579-.74-2.151,2.42-1.364,2.42-2.823a16.415,16.415,0,0,0-1.04-4c-.133-.6-.682-1.916-.133-2.083s2.417-1.916,2.083-3.529S1635.141,688.4,1633.983,688.521Z" transform="translate(-1445.64 -564.928)" fill="#ffbe9d"/>
      <path id="Path_5740" data-name="Path 5740" d="M1496.577,967.417c2.936,1.585,4.583,6.413,5,6.478s1.2-.061,1.2-.535-.12-2.087.419-2.087,1.132,2.625,1.251,6.444,1.477,12.919,0,14.078c-.927.726-9.424,5.189-9.663,5.8s.177,4.773-.535,5.428-2.387,2.267-3.7,2.325a56.992,56.992,0,0,1-12.466,0,27.443,27.443,0,0,1-8.231-3.041,43.8,43.8,0,0,1,2.046-11.869c1.135-1.252,9.3-12.469,9.962-13.482a11.555,11.555,0,0,0,1.132-4.889,6.3,6.3,0,0,1,3.707-5.309,16.8,16.8,0,0,1,9.877.662Z" transform="translate(-1436.902 -581.831)" fill="#6133bd"/>
    </g>
  </g>
</svg>
