<svg xmlns="http://www.w3.org/2000/svg" width="1388" height="645" viewBox="0 0 1388 645">
  <g id="placeholder" transform="translate(2456 -1932)">
    <rect id="Placeholder_Rectangle" width="1388" height="645" transform="translate(-2456 1932)" fill="none"/>
    <g id="homelogo" transform="translate(-2013.157 2057.839)" opacity="0.55">
      <g id="sublogo">
        <path id="Path_5852" data-name="Path 5852" d="M36.872-29.913q2.019,8.1,7.066,11.453T57.243-15.1a58.805,58.805,0,0,0,11.929-1.382A68.272,68.272,0,0,0,82.2-20.633,66.174,66.174,0,0,1,86.7-8.391,62.047,62.047,0,0,1,88.81,6.419a89.409,89.409,0,0,1-33.4,6.516q-13.214,0-22.665-3.948A40.143,40.143,0,0,1,17.326-1.973,44.945,44.945,0,0,1,8.517-18.656,74.664,74.664,0,0,1,5.674-39.784,73.776,73.776,0,0,1,8.608-60.915a49.7,49.7,0,0,1,8.81-17.179A41.852,41.852,0,0,1,32.1-89.645,46.848,46.848,0,0,1,52.653-93.89,40.558,40.558,0,0,1,70-90.336a37.888,37.888,0,0,1,12.939,9.774A43.284,43.284,0,0,1,91.1-65.555,61.551,61.551,0,0,1,93.944-46.5a89.873,89.873,0,0,1-.459,9.577q-.459,4.245-.827,7.01Zm14.682-38.9A14.258,14.258,0,0,0,41.46-64.865Q37.239-60.916,36.5-52.622H65.869A20.169,20.169,0,0,0,61.92-64.173Q58.339-68.813,51.554-68.813Zm109.565-7.306a153.259,153.259,0,0,1,13.857,6.812,41.865,41.865,0,0,1,10.553,8.294,33.53,33.53,0,0,1,6.791,11.65A50.144,50.144,0,0,1,194.7-32.875a49.888,49.888,0,0,1-3.4,18.857,39.074,39.074,0,0,1-10,14.412,45.273,45.273,0,0,1-16.242,9.281,68.946,68.946,0,0,1-22.115,3.258,91.551,91.551,0,0,1-20.1-1.975A119.27,119.27,0,0,1,104.045,4.84a119.615,119.615,0,0,1,2.569-14.711q1.835-7.8,4.4-15.9,16.884,7.9,29.364,7.9,9.36,0,14.59-3.059T160.2-31.494a12.343,12.343,0,0,0-1.1-5.43,11.817,11.817,0,0,0-2.936-3.85,18.28,18.28,0,0,0-4.129-2.666q-2.294-1.086-4.68-2.073l-10.28-4.145a64.164,64.164,0,0,1-12.021-6.122,39.348,39.348,0,0,1-9.268-8.392,36.063,36.063,0,0,1-5.965-11.156,46.844,46.844,0,0,1-2.109-14.809,48.813,48.813,0,0,1,3.3-18.561,38.672,38.672,0,0,1,9.268-13.723,38.841,38.841,0,0,1,14.407-8.491,58.619,58.619,0,0,1,18.9-2.863,81.585,81.585,0,0,1,18.077,1.975,140.783,140.783,0,0,1,18.628,5.728,107.721,107.721,0,0,1-2.661,13.921,92.188,92.188,0,0,1-4.864,14.316q-4.772-2.172-11.2-4.542a46.519,46.519,0,0,0-15.967-2.37,25.7,25.7,0,0,0-5.6.592,15.654,15.654,0,0,0-4.772,1.876,9.605,9.605,0,0,0-3.4,3.554,11.294,11.294,0,0,0-1.285,5.628q0,5.728,3.487,8.491a34.331,34.331,0,0,0,8.259,4.739Zm109.566,48.97H243.523V10.368q-4.772.79-8.626,1.184a69.018,69.018,0,0,1-6.974.395,69.018,69.018,0,0,1-6.974-.395q-3.854-.395-8.442-1.184V-91.521A57.845,57.845,0,0,1,220.49-92.9q3.946-.395,7.616-.395,3.487,0,7.524.395a52.245,52.245,0,0,1,7.891,1.382v34.753h27.162V-91.521a57.843,57.843,0,0,1,7.983-1.382q3.946-.395,7.617-.395,3.487,0,7.524.395a52.251,52.251,0,0,1,7.891,1.382V10.368q-4.772.79-8.626,1.184a69.019,69.019,0,0,1-6.974.395,69.017,69.017,0,0,1-6.974-.395q-3.854-.395-8.442-1.184Zm46.983-12.835A75.551,75.551,0,0,1,320.7-62a47.843,47.843,0,0,1,8.993-17.08,39.765,39.765,0,0,1,14.773-10.96,50.466,50.466,0,0,1,20.372-3.85,50.963,50.963,0,0,1,20.555,3.85,39.764,39.764,0,0,1,14.774,10.959A47.843,47.843,0,0,1,409.156-62a75.553,75.553,0,0,1,3.028,22.017,72.84,72.84,0,0,1-3.028,21.622,47.022,47.022,0,0,1-8.993,16.784A39.294,39.294,0,0,1,385.389,9.181a52.134,52.134,0,0,1-20.555,3.752,51.624,51.624,0,0,1-20.372-3.752A39.3,39.3,0,0,1,329.688-1.581a47.021,47.021,0,0,1-8.993-16.784,72.839,72.839,0,0,1-3.027-21.619Zm63.133,0q0-12.637-3.946-19.352t-12.021-6.713q-8.075,0-11.929,6.714t-3.854,19.352q0,12.44,3.854,19.154t11.929,6.714q8.075,0,12.021-6.714T380.8-39.984ZM458.434-38.8a16.94,16.94,0,0,0,2.294.3q1.376.1,2.294.1a15.884,15.884,0,0,0,10.553-3.456q4.129-3.456,4.129-11.749,0-7.109-4.129-10.959a14.372,14.372,0,0,0-10.186-3.85h-2.11a21.348,21.348,0,0,0-2.843.2ZM428.152-91.128q8.442-1.38,17.343-2.069t17.16-.691a80.951,80.951,0,0,1,16.517,1.678,39.215,39.215,0,0,1,14.5,6.121,32.19,32.19,0,0,1,10.369,12.243q3.946,7.8,3.946,20.242,0,11.255-3.579,18.956a34.161,34.161,0,0,1-9.452,12.44A36.61,36.61,0,0,1,481.649-15.4a56.093,56.093,0,0,1-15.141,2.073q-3.12,0-5.324-.2a15.091,15.091,0,0,1-2.753-.395V10.37a69.611,69.611,0,0,1-8.534,1.283q-3.762.3-6.7.3-3.12,0-6.7-.3a70.76,70.76,0,0,1-8.35-1.283Z" transform="translate(-5.671 296.278)" fill="#6133bd"/>
        <path id="Delivery_Time" data-name="Delivery Time" d="M19.322,6.491c0,10.372-8.435,13.013-10.488,13.013a.78.78,0,0,1-.446-.1c-.223-.24-.312-4.514-.312-9.316,0-6.146.134-13.157.312-13.349,0-.048.223-.048.58-.048C11.2-3.3,19.322-2.248,19.322,6.491ZM4.728,25.314c7.052,0,20.53-4.418,20.53-18.775,0-9.172-6.828-15.366-19.414-15.366a18.6,18.6,0,0,0-5.266.48c-.045.048-.045.1-.045.192A21.114,21.114,0,0,0,2.541-2.489c0,5.81-.134,11.621-.134,18.967,0,4.658.089,8.355.312,8.6A5.508,5.508,0,0,0,4.728,25.314ZM41.37,8.508c0,3.217-3.927,6.1-5.8,6.146-.179,0-.179-.144-.179-.672,0-3.793,2.187-6.867,4.6-6.867A1.3,1.3,0,0,1,41.37,8.508ZM39.406,24.882c4.329,0,5.847-1.1,5.847-1.1a8.232,8.232,0,0,0,1.116-4.322c0-.288-.045-.912-.134-.912a.153.153,0,0,0-.089.048,10.167,10.167,0,0,1-5.356,1.3c-2.321,0-3.258-1.008-3.258-1.3,5.713-2.113,9.06-6.483,9.06-10.564,0-4.274-3.526-5.234-5.623-5.234-7.23,0-10.8,5.714-10.8,11.957C30.168,20.368,33.158,24.882,39.406,24.882ZM57.258,3.946c0-3.6.134-11.765.223-12.485,0-.1-.714-.192-1.116-.192-1.607,0-4.2,1.056-4.2,1.729,0,.528.179,1.729.179,6.579,0,7.635-.179,12.485-.179,17.383,0,2.353,0,4.274.045,5.042.268,2.977,1.205,4.226,1.384,4.226,1.874,0,4.954-2.017,4.954-2.593a8.1,8.1,0,0,1-1.294-3.841c-.089-.768-.089-2.257-.089-4.082C57.169,11.149,57.258,7.547,57.258,3.946ZM70.291-1.672c0-2.017-1.16-3.217-2.767-3.217a3.4,3.4,0,0,0-3.169,3.217c0,2.113,1.071,3.265,2.722,3.265A3.409,3.409,0,0,0,70.291-1.672Zm-1.7,6a5.866,5.866,0,0,0-3.615.864c-.179.384-.312,7.683-.312,12.629,0,1.969.045,3.553.089,4.178.268,2.977,1.16,4.226,1.339,4.226,1.874,0,4.954-2.017,4.954-2.593a8.237,8.237,0,0,1-1.205-3.841c-.089-.816-.134-2.737-.134-4.946,0-4.418.134-9.988.134-10.228C69.621,4.33,68.595,4.33,68.595,4.33ZM83.635,17.151c-.134.24-.179,0-.179,0-1.384-3.313-4.106-15.222-4.106-15.222-3.258,0-4.731,1.248-4.731,1.393,0,3.505,5.668,18.919,5.668,21.224a5.679,5.679,0,0,0,2.053.288s3.7-.144,4.285-.768S93.409,2.073,93.409.153c0,0-.268-.48-2.722-.48-1.026,0-2.722.336-2.767.72C87.7,2.938,84.751,14.99,83.635,17.151Zm24.993-8.643c0,3.217-3.927,6.1-5.8,6.146-.179,0-.179-.144-.179-.672,0-3.793,2.187-6.867,4.6-6.867A1.3,1.3,0,0,1,108.628,8.508Zm-1.964,16.374c4.329,0,5.847-1.1,5.847-1.1a8.232,8.232,0,0,0,1.116-4.322c0-.288-.045-.912-.134-.912a.153.153,0,0,0-.089.048,10.167,10.167,0,0,1-5.356,1.3c-2.321,0-3.258-1.008-3.258-1.3,5.713-2.113,9.06-6.483,9.06-10.564,0-4.274-3.526-5.234-5.623-5.234-7.23,0-10.8,5.714-10.8,11.957C97.426,20.368,100.416,24.882,106.665,24.882Zm25.082-20.12a3.938,3.938,0,0,0-.357-1.825c-4.151,0-6.65,3.841-6.65,3.841-.089.1-.134.1-.179.1a4.235,4.235,0,0,1-.089-1.1c0-1.248.089-3.073.134-3.505,0-.144-.536-.24-.937-.24a6.524,6.524,0,0,0-4.061,1.345,11.5,11.5,0,0,0-.179,3.025c0,2.785.089,7.059.089,10.9a56.853,56.853,0,0,1-.312,7.587c0,.144.179.144.357.144,1.16,0,3.838-.192,4.909-1.3a53.915,53.915,0,0,0,.134-5.906V13.6a5.9,5.9,0,0,1,5.757-4.562,4.38,4.38,0,0,1,.58.1S131.747,7.98,131.747,4.762Zm15.576,17.095c0,10.468-4.82,11.332-7.676,11.765a4.513,4.513,0,0,1-.8.048c0,2.3,1.384,4.946,1.651,4.946,3.437,0,11.782-2.209,11.782-15.462,0-2.353-.045-7.827-.045-12.773a59.056,59.056,0,0,1,.357-7.779c0-.144-.312-.144-.669-.144-1.205,0-3.749.384-4.6,1.3a20.661,20.661,0,0,0-.223,4.418c0,2.785.089,5.81.089,5.81s-.536,3.7-3.481,3.7c-2.41,0-2.9-3.649-2.9-8.259a61.025,61.025,0,0,1,.491-7.347,4.079,4.079,0,0,0-1.428-.24c-1.919,0-3.615.768-3.615,1.008a31.494,31.494,0,0,0-.491,5.57c0,8.211.134,15.174,5.713,15.174a6.666,6.666,0,0,0,5.534-3.265q.067-.144.134-.144c.089,0,.134.192.134.288C147.278,20.7,147.323,21.377,147.323,21.857Zm29.813,3.986c3.3,0,5-.96,5-1.2v-.048c-1.071-2.113-1.339-10.132-1.339-16.9,0-5.57.179-10.324.312-10.468a7.742,7.742,0,0,1,2.1-.144,33.86,33.86,0,0,1,4.6.24c.446-.48.759-4.034.759-5.618a15.821,15.821,0,0,0-3.347-.192c-1.741,0-7.141.192-8.837.288-3.7.24-7.186.288-7.186.288a11.911,11.911,0,0,0-.982,4.61,6.683,6.683,0,0,0,.134,1.248s4.508-.672,6.2-.672a1.247,1.247,0,0,1,.625.1,11.435,11.435,0,0,1,.134,2.593c0,4.562-.312,13.973-.312,19.976,0,3.025.089,5.186.312,5.474A3.4,3.4,0,0,0,177.136,25.843ZM199.184-1.672c0-2.017-1.16-3.217-2.767-3.217a3.4,3.4,0,0,0-3.169,3.217c0,2.113,1.071,3.265,2.722,3.265A3.409,3.409,0,0,0,199.184-1.672Zm-1.7,6a5.866,5.866,0,0,0-3.615.864c-.179.384-.312,7.683-.312,12.629,0,1.969.045,3.553.089,4.178.268,2.977,1.16,4.226,1.339,4.226,1.874,0,4.954-2.017,4.954-2.593a8.236,8.236,0,0,1-1.205-3.841c-.089-.816-.134-2.737-.134-4.946,0-4.418.134-9.988.134-10.228C198.514,4.33,197.488,4.33,197.488,4.33Zm23.3,6.386A3.256,3.256,0,0,1,223.463,8.6c2.544,0,2.722,3.457,2.722,8.355a84.337,84.337,0,0,1-.491,8.451,4.079,4.079,0,0,0,1.428.24c1.919,0,3.838-.72,3.838-.96,0,0,.179-2.449.179-5.618,0-8.211-.134-16.759-5.713-16.759-2.5,0-4.329,1.873-5.623,3.841a4.5,4.5,0,0,0-4.374-2.785c-2.41,0-4.82,2.833-4.82,2.833-.089.1-.134.1-.179.1-.089,0-.089-.24-.089-.24,0-.912.134-3.553.179-4.082,0-.1-.536-.192-.937-.192A6.248,6.248,0,0,0,205.7,3.226a12.571,12.571,0,0,0-.223,3.313c0,2.977.134,7.395.134,11.284a56.78,56.78,0,0,1-.312,7.059c0,.144.179.144.357.144,1.607,0,3.66-.1,4.686-1.152a33.575,33.575,0,0,0,.179-4.946c0-2.833-.045-5.81-.045-6.1,0-.576,1.116-3.89,3.481-3.89,1.919,0,2.008,2.209,2.008,6.1a63.4,63.4,0,0,1-.4,7.3,4.079,4.079,0,0,0,1.428.24c1.919,0,3.749-.72,3.749-.96a19.722,19.722,0,0,0,.178-3.793C220.919,13.79,220.919,12.253,220.785,10.717ZM247.7,8.508c0,3.217-3.927,6.1-5.8,6.146-.178,0-.178-.144-.178-.672,0-3.793,2.187-6.867,4.6-6.867A1.3,1.3,0,0,1,247.7,8.508Zm-1.964,16.374c4.329,0,5.847-1.1,5.847-1.1a8.232,8.232,0,0,0,1.116-4.322c0-.288-.045-.912-.134-.912a.153.153,0,0,0-.089.048,10.167,10.167,0,0,1-5.356,1.3c-2.321,0-3.258-1.008-3.258-1.3,5.713-2.113,9.06-6.483,9.06-10.564,0-4.274-3.526-5.234-5.623-5.234-7.23,0-10.8,5.714-10.8,11.957C236.495,20.368,239.485,24.882,245.733,24.882Z" transform="translate(123.715 354.928)" fill="#6133bd"/>
        <g id="icon" transform="translate(204.571)">
          <path id="Path_6287" data-name="Path 6287" d="M356.174,223.2l-25.481,1.231,25.481,1.231Z" transform="translate(-259.843 -88.384)" fill="#6133bd"/>
          <path id="Path_6288" data-name="Path 6288" d="M383.207,227.346c-3.9.919-7.66.925-10.221-1.729-.049-.052-.107-.137-.159-.2l-47,1.9,57.107,2.307C383,228.857,383.085,228.1,383.207,227.346Z" transform="translate(-267.44 -84.493)" fill="#6133bd"/>
          <path id="Path_6289" data-name="Path 6289" d="M391.772,228.493c0-.267.026-.534.031-.8l-71.737,2.422,71.993,2.433A32.061,32.061,0,0,1,391.772,228.493Z" transform="translate(-276.422 -80.512)" fill="#6133bd"/>
          <path id="Path_6290" data-name="Path 6290" d="M400.946,230.116l-86.419,2.527,87.84,2.566A31.073,31.073,0,0,1,400.946,230.116Z" transform="translate(-285.05 -76.267)" fill="#6133bd"/>
          <path id="Path_6291" data-name="Path 6291" d="M411.631,232.535l-102.644,2.643,105.637,2.72A30.524,30.524,0,0,1,411.631,232.535Z" transform="translate(-293.682 -72.024)" fill="#6133bd"/>
          <path id="Path_6292" data-name="Path 6292" d="M424.864,234.946l-121.858,2.781,127.779,2.915A28.785,28.785,0,0,1,424.864,234.946Z" transform="translate(-303.006 -67.8)" fill="#6133bd"/>
          <path id="Path_6293" data-name="Path 6293" d="M394.506,244.253c-6.524-.066-11.8-5.732-11.874-12.751,0-.374.074-.723.1-1.087a13.147,13.147,0,0,1,3.288-7.813,83.186,83.186,0,0,0-21.635.625q-3.016.475-6.013,1.173c-1.266.295-2.536.562-3.792.916-.465.13-1.141.38-1.9.663h0a25.547,25.547,0,0,0-1.192,2.695l0,.011c-.056.148-.1.305-.155.454-.161.452-.328.9-.465,1.365-.087.295-.155.594-.23.89-.071.272-.135.548-.2.823-.155.7-.281,1.4-.383,2.12-.041.278-.089.562-.12.848-.013.1-.036.206-.046.311-.052.57-.069,1.151-.089,1.729-.01.316-.043.628-.043.945h0a27.077,27.077,0,0,0,.35,4.2c.082.518.172,1.032.282,1.542a26.221,26.221,0,0,0,1.783,5.357c.2.445.4.881.627,1.307.21.4.445.779.672,1.162a22.009,22.009,0,0,0,3.351,4.468c.328.347.672.672,1.018,1a22.454,22.454,0,0,0,15.382,6.211h.021a21.783,21.783,0,0,0,2.216-.121c.245-.025.489-.069.734-.1.484-.066.964-.14,1.44-.237.286-.061.569-.13.854-.2.42-.1.837-.217,1.246-.344q.449-.141.891-.3c.381-.135.755-.286,1.128-.445.3-.127.6-.251.9-.389.343-.162.676-.344,1.01-.523.3-.167.614-.316.911-.5.235-.14.46-.3.691-.452a23.4,23.4,0,0,0,2.157-1.572c.141-.116.286-.222.425-.341.384-.33.752-.683,1.115-1.038.13-.13.266-.256.394-.389q.553-.566,1.067-1.168c.1-.116.2-.234.3-.353.362-.435.711-.884,1.044-1.346.043-.061.087-.124.13-.187a25.95,25.95,0,0,0,4.091-9.216h0Zm-21.282,3.121c-4.719,0-8.546-4.117-8.546-9.2s3.827-9.2,8.548-9.2,8.549,4.117,8.549,9.2S377.944,247.37,373.224,247.375Z" transform="translate(-230.141 -90.197)" fill="#6133bd"/>
          <path id="Path_6294" data-name="Path 6294" d="M444.628,237.8c-.028-.284-.082-.556-.118-.84-.087-.638-.181-1.272-.31-1.891-.064-.3-.141-.6-.215-.9-.146-.6-.3-1.186-.491-1.765-.087-.278-.181-.545-.276-.815q-.326-.913-.714-1.79c-.092-.212-.184-.427-.284-.636q-.484-1.016-1.047-1.976c-.056-.1-.11-.2-.172-.3a24.73,24.73,0,0,0-5.176-6.105h0c-1.678.278-3.533.652-5.511,1.168-9.589,2.513-21.617,8.225-25.923,21.23a6.533,6.533,0,0,1-5.565,4.578h0c.138.5.3.98.465,1.464.074.215.141.429.218.638.166.454.348.9.538,1.335.1.226.2.452.3.675.2.427.4.848.62,1.258.115.215.235.421.356.631.233.41.468.823.724,1.217.064.1.138.193.2.292a25,25,0,0,0,1.681,2.236c.189.226.371.454.569.672.258.286.53.556.8.831.235.237.471.473.714.7.266.248.538.487.814.723s.565.463.854.686c.264.2.527.41.8.6.362.253.734.49,1.11.723.218.137.429.284.652.413q.886.512,1.819.941c.212.1.435.182.652.278.442.187.885.366,1.341.526.256.091.517.171.775.25.437.135.879.259,1.323.366.264.063.527.124.793.179.481.1.967.174,1.458.24.235.03.468.072.7.1.724.072,1.453.118,2.193.118h.021a21.932,21.932,0,0,0,5.4-.7A21.14,21.14,0,0,0,432.5,262.8a25.429,25.429,0,0,0,12.187-19.936c.061-.746.094-1.5.094-2.263h0A27.284,27.284,0,0,0,444.628,237.8Zm-23.313,12c-4.721,0-8.547-4.12-8.546-9.2s3.827-9.195,8.547-9.2,8.549,4.117,8.549,9.2-3.831,9.192-8.55,9.2Z" transform="translate(-153.679 -92.622)" fill="#6133bd"/>
          <path id="Path_6295" data-name="Path 6295" d="M387.971,238.777c-.133-.187-.284-.358-.413-.553-.151-.234-.341-.484-.5-.723h-19.18a.928.928,0,0,1,0-1.85h17.838c-.468-.608-.962-1.223-1.5-1.85H367.874a.847.847,0,0,1-.761-.455.984.984,0,0,1,0-.937.847.847,0,0,1,.761-.455H382.54c-.594-.62-1.244-1.236-1.912-1.853H367.874a.927.927,0,0,1,0-1.85h10.585a45.556,45.556,0,0,0-6.645-4.471c-.606-.334-1.269-.644-1.909-.964-.854-.141-1.709-.264-2.566-.377a11.434,11.434,0,0,0-3.312,12.087,10.249,10.249,0,0,0,9.48,7.4l1.858-.052,15.044-.421A15.328,15.328,0,0,1,387.971,238.777Z" transform="translate(-209.166 -89.72)" fill="#6133bd"/>
          <path id="Path_6296" data-name="Path 6296" d="M481.15,266.335a35.44,35.44,0,0,1,1.922-8.459,29.808,29.808,0,0,1,10.713-14.188,22.544,22.544,0,0,1,9.679-4.091,22.3,22.3,0,0,1,2.679-.27l-15.328-36.695-2.354,1.057-4.122,1.847-2.364,1.06,4.2,15.818-.745.567-.742.564h0l-4.518,3.436a3.47,3.47,0,0,0-1.328,2.566l-1.049,18.716v0a3.522,3.522,0,0,0,.084.945c.016.072.033.143.052.215a3.433,3.433,0,0,0,.893,1.533c.041.041.084.082.128.121a3.168,3.168,0,0,0,.732.5h0a3.044,3.044,0,0,0,.865.237,2.654,2.654,0,0,0,.394.044h.706l-.323.4-1.409,9.59a11.136,11.136,0,0,1-4.124,7.209,9.66,9.66,0,0,1-7.663,1.917l-20.054-3.625a10.271,10.271,0,0,1-7.239-5.5,11.737,11.737,0,0,1-.518-9.519l7.149-18.716a10.238,10.238,0,0,1-3.142,1.1,16.407,16.407,0,0,1-2.865.259c-.4,0-.786-.011-1.144-.028-6.34-.278-12.427-2.224-18.314-4.11-3.259-1.043-6.635-2.122-9.988-2.9a40.025,40.025,0,0,0-6.517-.445,55.868,55.868,0,0,1-10.692-.936,14.54,14.54,0,0,1-2.748-.909l-1.868,2.043a11.507,11.507,0,0,1-8.438,3.8H367.152l-.617-.922-.578-.861h0l-3.454-5.153h16.442a2.688,2.688,0,0,0,2.579-2.778,2.911,2.911,0,0,0-.192-1.016,2.969,2.969,0,0,0-.494-.831H342.309a2.814,2.814,0,0,0-.678,1.792c0,.019-.01.038-.01.056a2.688,2.688,0,0,0,2.579,2.778h11.943l4.726,7.052.5.746.5.751a8.98,8.98,0,0,0-3.482,7.179v6.026c.862-.906,1.724-1.759,2.553-2.53.445-.415.885-.815,1.308-1.187a41.925,41.925,0,0,1,15.041-8.36,51.382,51.382,0,0,1,11.884-2.257c.617-.044,1.22-.118,1.847-.143a38.868,38.868,0,0,1,30.2,12.974c3.347,3.752,8.886,10.747,8.4,15.46a3.869,3.869,0,0,1-1.637,3.083,3.717,3.717,0,0,1-2.024.521,10.184,10.184,0,0,1-3.311-.7c-.747-.264-1.469-.576-2.165-.886-.307-.138-.627-.278-.913-.41-.635-.292-1.189-.539-1.632-.707-.046-.017-.1-.044-.146-.056a84.838,84.838,0,0,0-8.487-2.428,45.771,45.771,0,0,1,13.31,13.183,14.046,14.046,0,0,0,1.205,1.557,12.733,12.733,0,0,0,5.01,3.529,11.817,11.817,0,0,0,4.224.809h37.7a12.746,12.746,0,0,0,10.219-5.351c-.052-1.148-.069-2.409-.008-3.781C481.007,267.9,481.068,267.122,481.15,266.335Z" transform="translate(-242.825 -124.437)" fill="#6133bd"/>
          <path id="Path_6297" data-name="Path 6297" d="M405.337,251.164a5.134,5.134,0,0,0,.663-1.313c4.373-13.2,16.094-19.25,25.851-22.039,1.827-.521,3.579-.933,5.207-1.25.865-.171,1.706-.322,2.489-.445a1.528,1.528,0,0,0,1.232-1.244,1.642,1.642,0,0,0-.659-1.674c-4.037-2.7-10.337-6.023-17.206-6.488-.322-.019-.642-.047-.967-.056-.207-.005-.409-.036-.62-.036-.11,0-.223.008-.335.011a21.511,21.511,0,0,0-2.709.2,20.815,20.815,0,0,0-9.446,3.87c-8.431,6.122-11.189,14.57-11.888,21.337-.1,1.008-.164,1.968-.187,2.888-.018.691-.023,1.357-.008,1.985.013.548.033,1.071.064,1.561l.005.1a4.877,4.877,0,0,0,4.723,4.674c.026,0,.049-.014.074-.014A4.62,4.62,0,0,0,405.337,251.164Z" transform="translate(-156.912 -99.916)" fill="#6133bd"/>
          <path id="Path_6298" data-name="Path 6298" d="M362.3,217.921a6.438,6.438,0,0,0,.79.457,9.294,9.294,0,0,0,.867.369,16.884,16.884,0,0,0,2.9.741,65.959,65.959,0,0,0,9.3.65,39.563,39.563,0,0,1,6.839.484c3.421.788,6.826,1.877,10.122,2.929,5.785,1.852,11.767,3.766,17.894,4.036a14.158,14.158,0,0,0,4.739-.465,7.449,7.449,0,0,0,2.218-1.016,5.109,5.109,0,0,0,.517-.47,6.242,6.242,0,0,0,1.22-1.622,6.754,6.754,0,0,0,.681-2.5,6.971,6.971,0,0,0-.077-1.572c-.842-.088-1.709-.151-2.579-.217-.724-.056-1.4-.146-2.146-.185a108.185,108.185,0,0,1-19.2-2.252,11.481,11.481,0,0,1-4.685-2.329,10.514,10.514,0,0,1-3.526-5.2c-.537-.339-1.069-.686-1.615-1-2.41-1.385-8.425-2.962-14.077-2.962-3.354,0-6.583.553-8.865,2.034A6.778,6.778,0,0,0,360.442,214a5.683,5.683,0,0,0,.491,2.453A3.833,3.833,0,0,0,362.3,217.921Z" transform="translate(-213.455 -118.917)" fill="#6133bd"/>
          <path id="Path_6299" data-name="Path 6299" d="M404.9,208.746h7.219a7.472,7.472,0,0,0,2.692-1.415,6.505,6.505,0,0,0,1.681-2.051,8.354,8.354,0,0,0,0-7.182,6.822,6.822,0,0,0-2.733-2.786,6.664,6.664,0,0,0-1.64-.677l-9.689,6.863-.23.167h0l-.732.518-.732.518-1.256-3.295-2.321,3.865c-.041.072-.074.146-.115.217a5.7,5.7,0,0,1,1.1,1.861c.113.3.2.612.292.919a15.234,15.234,0,0,1,.65,5.271,7.1,7.1,0,0,1-.918,3.075,3.09,3.09,0,0,1-1.906,1.619,1.656,1.656,0,0,1-.279.036l.76,2.571,2.362-1.06,3.953-1.77,2.351-1.057h0l-2.364-6.206Z" transform="translate(-158.092 -138.454)" fill="#6133bd"/>
          <path id="Path_6300" data-name="Path 6300" d="M342.326,220.684v6.477h7.217c.005-.033.008-.063.016-.1a11.966,11.966,0,0,1,.768-2.466,26.214,26.214,0,0,1,2.126-3.912H342.326Z" transform="translate(-241.724 -92.8)" fill="#6133bd"/>
          <path id="Path_6301" data-name="Path 6301" d="M345.928,239.044c-.243,1-.223,1.751.13,2.117h0c1.551,1.6,8.27-.933,11.5-2.155.908-.341,1.648-.612,2.264-.815.177-.056.394-.138.54-.179l.01,0c1.775-.5,3.562-.93,5.353-1.316a85.1,85.1,0,0,1,17.892-1.919q3.477,0,6.952.295c1.149.093,2.29.278,3.436.418l.218.031c.409.049.819.1,1.225.154.494.072.99.111,1.484.19l.052.006c.207.033.413.047.62.08a86.558,86.558,0,0,1,10.712,2.574c.663.2,1.325.389,1.985.606.517.171,1.047.292,1.566.473.141.049.32.13.486.2.422.174.893.38,1.433.628,2.029.933,5.437,2.494,6.87,1.583.167-.1.665-.418.8-1.69.292-2.849-2.674-8.074-7.934-13.97a37.011,37.011,0,0,0-28.9-12.407c-10.981.452-20.576,4.03-27.75,10.343-.688.606-1.512,1.362-2.395,2.23-.819.806-1.686,1.718-2.553,2.7-.289.325-.573.661-.859,1s-.578.693-.86,1.057c-.33.421-.642.859-.957,1.3a25.839,25.839,0,0,0-2.728,4.691,11.7,11.7,0,0,0-.555,1.6C345.951,238.926,345.943,238.981,345.928,239.044Z" transform="translate(-236.362 -104.68)" fill="#6133bd"/>
          <path id="Path_6302" data-name="Path 6302" d="M374.69,255.69c-2.5,2.761-3.359,5.39-2.7,8.146a8.867,8.867,0,0,0,.437,1.346c.052.127.087.25.146.377a9.029,9.029,0,0,0,.773,1.255,9.181,9.181,0,0,0,1.359,1.577,9.735,9.735,0,0,0,4.4,2.391,106.911,106.911,0,0,0,18.917,2.211c.652.036,1.251.116,1.891.162.724.052,1.43.111,2.131.182.33.033.672.049,1,.086s.672.047.99.086c1.973.237,3.866.542,5.662.911l.827.16c1.74.314,3.385.612,3.577,3.383s-1.323,5.464-2.663,7.841a27.56,27.56,0,0,0-1.571,3.066l-.681,1.69a80.151,80.151,0,0,0-4.173,12.184c.635.107,1.259.261,1.87.415l.879.212a.941.941,0,0,1-.033,1.817,16.874,16.874,0,0,0-1.993,3.43,20.193,20.193,0,0,0-1.64,7.034c1.3.242,2.467.353,3.7.465l.627.061a5.849,5.849,0,0,1,.383-1.506.863.863,0,0,1,.786-.545.761.761,0,0,1,.174.019,12.741,12.741,0,0,1,4.017,1.831,20.2,20.2,0,0,0,2.285,1.261,12.379,12.379,0,0,0,7.125.95,3.279,3.279,0,0,0,2.3-1.142,1.409,1.409,0,0,0,.151-1.123.591.591,0,0,0-.32-.408,12.01,12.01,0,0,0-1.96-.355c-2.2-.295-4.946-.658-5.662-2.725a9.272,9.272,0,0,1,.369-5.769.909.909,0,0,1,.465-.548.817.817,0,0,1,.686-.008,6.307,6.307,0,0,0,2.584.534.917.917,0,0,0,.383-.056h0a.91.91,0,0,1,.008-.272,199.97,199.97,0,0,1,4.263-24.288c.465-2.113.93-4.236,1.374-6.367.13-.617.292-1.263.455-1.927.706-2.819,1.43-5.734.159-7.87-1.1-1.845-3.411-3.317-6.874-4.383a45.049,45.049,0,0,0-12.038-2.356.862.862,0,0,1-.78-.576.975.975,0,0,1,.186-1c.54-.586,1.4-1.8,2.395-3.207,3.065-4.325,5.719-7.845,7.967-9.009-1.031.176-2.688.415-4.787.6-.576.049-1.18.1-1.819.135a56.749,56.749,0,0,1-8.087-.1,43.092,43.092,0,0,1-4.557-.7c-.775-.179-1.581-.369-2.315-.6a4.81,4.81,0,0,1-2.418-1.4,4.939,4.939,0,0,1-1.21-2.758,4.8,4.8,0,0,1,.079-1.577,8.709,8.709,0,0,1,.425-1.279,25.087,25.087,0,0,1,2.249-4.41,38.192,38.192,0,0,1,5.47-6.486,57.207,57.207,0,0,1,4.452-3.841c1.11-.87,1.773-1.327,1.773-1.327L407,223.2c-1,1-2.378,2.5-3.991,4.305a47.063,47.063,0,0,0-4.9,6.632,23.606,23.606,0,0,0-2,4.157,6.982,6.982,0,0,0-.33,1.076,3.049,3.049,0,0,0-.01.919,3.234,3.234,0,0,0,.788,1.7,3.148,3.148,0,0,0,1.648.972c.755.259,1.463.44,2.187.631a40.769,40.769,0,0,0,4.38.79,74.531,74.531,0,0,0,7.924.655c.939.027,1.8.049,2.6.066,1.192.025,2.241.038,3.057.019l1.586-.008a2.514,2.514,0,0,1,1.509-.093,12.639,12.639,0,0,0,7.212.091,2.449,2.449,0,0,1,1.52-.077,2.162,2.162,0,0,1,.93.667l.016.014a5.293,5.293,0,0,1,.824,1.349c.169.372.315.749.453,1.121.1.278.2.553.315.82a3.761,3.761,0,0,0,.371.68c.246.358.471.521.583.5.465-.093,1.2-1.266,1.369-2.689.013-.1.046-.2.052-.3a13.2,13.2,0,0,0-.346-3.585,12.839,12.839,0,0,0-.468-1.8,5.819,5.819,0,0,0-.362-.785,2.253,2.253,0,0,0-.414-.564,1.752,1.752,0,0,0-.233-.151,2.341,2.341,0,0,0-.8-.334,6.093,6.093,0,0,0-1.387-.107,19.708,19.708,0,0,0-5.1.79,5.337,5.337,0,0,1-2.392.344,2.455,2.455,0,0,1-2.1-2.346,3.355,3.355,0,0,1,.54-1.646,82.892,82.892,0,0,0,3.566-7.606c3.121-7.273,6.668-15.515,13.742-18.584,2.773-1.2,5.206-.779,7.786-.334l1.213.206a2.89,2.89,0,0,0,1.678-.033,2.993,2.993,0,0,0,1.062-1.335,14.948,14.948,0,0,0,.967-3.378,11.888,11.888,0,0,1,1.535-4.473,4.562,4.562,0,0,1,2.36-1.414c.93-.319,1.512-.542,1.683-1.129.245-.834.059-1.06-1.43-1.724a4.22,4.22,0,0,1-2.5-2.04,4.151,4.151,0,0,1-.261-1.132l-.632-5.214a.916.916,0,0,1,.74-1.038,15.956,15.956,0,0,0,8.218-3.628,3.294,3.294,0,0,0,1.2-1.475l.008-.03c.133-.633-.01-.895-.151-1.057-1.223-1.426-6.616-.606-8.911-.256-1.847.278-2.233.341-2.636.014a1.007,1.007,0,0,1-.348-.636,6.735,6.735,0,0,0-2.116-3.945,10.218,10.218,0,0,0-9.08-2.343,15.644,15.644,0,0,0-8.8,5.142,14.578,14.578,0,0,0-3.122,5.085,10.646,10.646,0,0,0-.164,6.365c.307.925,1.246,3.744-1.561,5.126a3.455,3.455,0,0,1-1.21.344,5.338,5.338,0,0,0,.581.619,2.5,2.5,0,0,0,2.216.716.838.838,0,0,1,.946.438.98.98,0,0,1-.122,1.1,4.378,4.378,0,0,1-2.848,1.44,2.98,2.98,0,0,0,1.691.463.8.8,0,0,1,.834.567c.366.942-2.669,5.222-2.7,5.252a9.528,9.528,0,0,1-4.211,1.55,15.977,15.977,0,0,0-1.922.452,45.57,45.57,0,0,0-13.266,6.417c-4.539,3.344-8.758,6.829-12.289,9.8-6.171,5.186-13.133,11.036-21.4,13.1a34.468,34.468,0,0,0,7.346,10.177,1.613,1.613,0,0,1,.461,1.173,1.542,1.542,0,0,1-.494,1.112C378.388,252.048,374.985,255.365,374.69,255.69Zm38.752-17.956a37.471,37.471,0,0,0-4.92-.608l-1.53-.066,1.167-1.162q2.556-2.544,5.224-4.955c1.753-1.641,3.608-3.144,5.232-4.818a16.815,16.815,0,0,0,3.915-5.728,10.115,10.115,0,0,0,.259-7.086,9.55,9.55,0,0,1,.775,7.468,16.2,16.2,0,0,1-3.82,6.568,66.387,66.387,0,0,1-5.283,4.991c-1.422,1.258-2.881,2.469-4.344,3.67,2.876.562,5.562,1.685,8.336,2.417A40.689,40.689,0,0,1,413.442,237.733Z" transform="translate(-195.817 -174.228)" fill="#6133bd"/>
          <path id="Path_6303" data-name="Path 6303" d="M398.763,201.192a3.811,3.811,0,0,0-.9-.622,3.6,3.6,0,0,0-.589-.215,3.489,3.489,0,0,0-.962-.148,3.681,3.681,0,0,0-3.04,1.654l-.005.006a4.242,4.242,0,0,0-.757,2.408l0,.022a3.961,3.961,0,0,0,3.8,4.094h.008a3.279,3.279,0,0,0,.937-.14c.041-.011.079-.028.12-.041a3.847,3.847,0,0,0,2.18-1.8,4.151,4.151,0,0,0,.279-.586,4.386,4.386,0,0,0,.225-.928c.008-.061.01-.121.016-.182q.029-.2.038-.41a4.268,4.268,0,0,0-.458-1.9,4.088,4.088,0,0,0-.9-1.2Zm-2.446,5.492h0a2.379,2.379,0,1,1,2.213-2.387,2.295,2.295,0,0,1-2.213,2.387Z" transform="translate(-163.503 -128.688)" fill="#6133bd"/>
          <path id="Path_6304" data-name="Path 6304" d="M380.018,205.8H339.938v6.777h44.724v-6.8h-4.6C380.046,205.778,380.036,205.8,380.018,205.8Z" transform="translate(-245.444 -118.926)" fill="#6133bd"/>
          <path id="Path_6305" data-name="Path 6305" d="M345.842,209.443h36.667v-6.8H337.789v6.8Z" transform="translate(-248.794 -124.419)" fill="#6133bd"/>
          <path id="Path_6306" data-name="Path 6306" d="M377.916,206.082h5.9v-6.8H339.1v6.8Z" transform="translate(-246.755 -130.312)" fill="#6133bd"/>
          <path id="Path_6307" data-name="Path 6307" d="M378.276,195.963H341.02v6.8H385.74v-6.8Z" transform="translate(-243.76 -136.129)" fill="#6133bd"/>
          <path id="Path_6308" data-name="Path 6308" d="M346.565,199.621h37.254v-6.8H339.1v6.8h7.466Z" transform="translate(-246.755 -141.636)" fill="#6133bd"/>
          <path id="Path_6309" data-name="Path 6309" d="M379.958,196.479h4.7v-6.8H339.938v6.8h40.02Z" transform="translate(-245.444 -147.142)" fill="#6133bd"/>
        </g>
      </g>
    </g>
  </g>
</svg>
