<svg xmlns="http://www.w3.org/2000/svg" width="1388" height="645" viewBox="0 0 1388 645">
  <g id="placeholder" transform="translate(2456 -1932)">
    <rect id="Placeholder_Rectangle" width="1388" height="645" transform="translate(-2456 1932)" fill="none"/>
    <g id="PremiumGift_Delivery_App_Icon" data-name="PremiumGift Delivery App Icon" transform="translate(-1940.611 2055.018)" opacity="0.55">
      <path id="Path_28343" data-name="Path 28343" d="M-9.834-.249c.489,0,.982-.005,1.487-.005h1.63c.573,0,1.147,0,1.742-.005H.849c1.4-.005,2.8-.005,4.2-.011Q10.234-.278,15.414-.28q6.2,0,12.409-.011,14.99-.024,29.99-.032,4.97,0,9.935-.005,26.4-.024,52.806-.032,6.117,0,12.234-.005h1.535q24.651-.008,49.3-.048,25.328-.032,50.667-.037h8.575Q254.2-.458,265.534-.477q11.39-.024,22.779-.016,6.77.008,13.54-.016,4.524-.008,9.043,0,2.581.008,5.151-.005c1.853-.011,3.706-.005,5.56.005.531-.005,1.062-.011,1.6-.021a16.364,16.364,0,0,1,9.659,3.005c2.766,2.835,3.25,5.432,3.26,9.255.005.515.005.515.005,1.035.005,1.147.005,2.289.005,3.435.005.818.005,1.641.011,2.458q.008,3.345.011,6.69c0,1.391.005,2.788.005,4.179q.016,6.539.016,13.083,0,7.543.027,15.091.016,5.838.016,11.676,0,3.481.016,6.967.016,3.281.005,6.558c0,.8,0,1.6.005,2.4.005,1.1.005,2.193,0,3.292v1.853a11.631,11.631,0,0,1-4.444,8.135,10.843,10.843,0,0,1-6.621,2.193c-.733,0-.733,0-1.481.005-.812-.005-.812-.005-1.635-.005-.866,0-.866,0-1.742.005h-5.836c-1.4,0-2.8.005-4.2.005q-5.185.008-10.375.005-6.212,0-12.42.005-15.014.016-30.022.016-7.1,0-14.2.005l-48.58.016H180.917q-24.667,0-49.339.021-26.069.024-52.137.021H72.3q-11.35,0-22.694.016-11.406.008-22.8.005-6.778,0-13.556.011-4.524,0-9.048-.005-2.573,0-5.156.005c-1.853.005-3.7,0-5.554-.005-.536.005-1.073.011-1.619.011-3.781-.027-6.377-.52-9.319-3.064a12.129,12.129,0,0,1-3.393-8.99c0-.34-.005-.685-.005-1.035q-.008-1.72-.005-3.435c0-.823-.005-1.641-.011-2.464q-.008-3.345-.011-6.7c0-1.391-.005-2.788-.005-4.184q-.008-6.539-.016-13.089,0-7.551-.027-15.107-.016-5.838-.016-11.682,0-3.481-.016-6.972-.008-3.281-.005-6.563c0-.8,0-1.6-.005-2.405-.005-1.1-.005-2.193,0-3.292V10.079c.467-4.152,2.469-6.457,5.538-9.064A9.422,9.422,0,0,1-9.834-.249Z" transform="translate(20.968 298.049)" fill="#fdfd00"/>
      <path id="Path_28346" data-name="Path 28346" d="M-114.731-4.005c.781.6,1.556,1.205,2.326,1.827.5.361,1,.722,1.524,1.094a17.03,17.03,0,0,1,3.255,4.216V4.193h1.062c4.009,8.528,5.713,17.65,3.717,27.08-.356.526-.7,1.051-1.062,1.593q-.47,1.362-.866,2.75c-.138.483-.276.961-.419,1.455-.154.547-.154.547-.308,1.1h1.062c.122-.377.244-.749.372-1.136a18.987,18.987,0,0,1,3.175-4.641c.382-.441.382-.441.775-.9A101.751,101.751,0,0,1-74.174,10.034q.956-.605,1.922-1.211c5.6-3.441,11.363-5.2,17.724-6.754.361-.1.722-.2,1.1-.3C-46.7.222-39.91,2.1-34.09,5.468a23.783,23.783,0,0,1,7.7,7.752v1.062h1.062c3.085,5.851,5.777,11.591,3.86,18.351q-.526,1.29-1.115,2.554a44.151,44.151,0,0,0-1.72,4.848C-27.9,50.214-35.354,58.784-42.315,66.849c-.356.409-.706.823-1.067,1.248-2.023,2.347-4.152,4.551-6.367,6.717q-.8.8-1.593,1.593,3.17-.852,6.335-1.726l1.8-.483A50.722,50.722,0,0,0-34.276,71a13.353,13.353,0,0,1,4.174-.961V68.973c.425-.2.85-.4,1.29-.6,10.5-5.3,17.576-14.363,24.516-23.528,2.416-3.181,4.9-6.244,7.6-9.186,1-1.089,1.965-2.2,2.926-3.324,5.65-6.462,12.245-12.983,20.48-15.93h1.593V15.344a138.346,138.346,0,0,1,14.432-4.418c.361-.08.722-.165,1.1-.255a52.014,52.014,0,0,1,10.906-1.3c.584-.011.584-.011,1.184-.016,1.269-.011,2.533-.021,3.8-.027.435,0,.866,0,1.312-.005a129.217,129.217,0,0,1,24.08,2.3V13.22c-.674.265-1.349.531-2.028.8-.377.149-.749.292-1.136.446a5.854,5.854,0,0,1-2.676.35v1.062c-8.156,3.717-8.156,3.717-10.62,3.717v1.062c-.435.133-.435.133-.881.271a60.286,60.286,0,0,0-7.646,3.037,4.791,4.791,0,0,1-2.623.409v1.062l-.961.255a55.449,55.449,0,0,0-8.735,3.319c-1.853.855-3.749,1.593-5.655,2.32a8.536,8.536,0,0,0-2.7,1.54H37.864v1.062c-.313.112-.621.223-.94.335a67.036,67.036,0,0,0-10.71,5.405l-1.625.95A281.765,281.765,0,0,0,.164,56.761l-2.326,1.689c-4.428,3.234-8.814,6.494-13.036,9.993-5.83,4.779-5.83,4.779-8,4.779-.175.526-.356,1.051-.531,1.593a12.281,12.281,0,0,1-2.347,1.03l-1.466.547-1.5.547c-.441.17-.876.34-1.327.515a104.692,104.692,0,0,1-21.409,5.559c-.409.064-.818.133-1.243.2-4.561.727-9.112,1.359-13.721,1.689.595-1.789.86-1.949,2.352-2.952,9.717-7.083,16.986-19.269,21.011-30.5.287-.775.287-.775.584-1.561,2.193-6.1,4.5-14.814,1.736-21.038A10.79,10.79,0,0,0-45.5,24.9c-.175-.35-.356-.7-.531-1.062-8.23-3.09-18.191-1.917-26.2,1.428-7.9,3.632-14.284,9.09-20.523,15.032C-114.4,59.947-114.4,59.947-120.9,59.947c.313-1.343.637-2.681.961-4.014.085-.377.175-.749.266-1.136a39.705,39.705,0,0,1,2.49-7.062c.2-.706.388-1.407.531-2.124h1.062c.037-.473.037-.473.074-.956A20.629,20.629,0,0,1-114,38.176c1.1-5.607.887-10.944-2.124-15.93-2.347-2.984-4.731-4.694-8.5-5.31-4.943-.4-9.08-.441-13.062,2.666-4.524,3.913-6.818,7.7-7.275,13.715-.25,7.79,1.986,13.014,6.531,19.2.86.908,1.742,1.795,2.655,2.655l.961.961a34.136,34.136,0,0,0,9.659,5.942v1.062l1.593.4a26.979,26.979,0,0,1,5.23,2.225c1.179.579,2.368,1.057,3.595,1.524a71.982,71.982,0,0,1,6.574,3.021,56.1,56.1,0,0,0,14.294,5.2,18.02,18.02,0,0,1,3.106.908,21.631,21.631,0,0,0,5.278.866c.658.042,1.317.09,2,.133l2.066.127,2.1.138c1.71.117,3.42.223,5.135.329-11.931,7.949-32.188,7.306-45.665,4.779-.632-.1-1.264-.2-1.917-.3a103.882,103.882,0,0,1-25.418-7.434,35.714,35.714,0,0,0-6.351-1.827,56.457,56.457,0,0,1-8.793-2.655c-.706-.186-1.418-.366-2.124-.531V68.973c-.361-.058-.722-.117-1.094-.175a39.515,39.515,0,0,1-7.174-1.752c-5.1-1.593-11.8-1.651-16.641.727-4.142,2.485-8.087,5.719-10.36,10.067-.839,1.221-.839,1.221-2.055,1.673-.489.058-.972.117-1.476.175-.563.074-1.126.149-1.71.223-.653.069-1.3.138-1.97.212-.775.085-1.55.17-2.326.26-1.237.133-2.474.271-3.712.4-4.03.435-8,1.094-11.979,1.864a123.415,123.415,0,0,1-19.684,1.72V83.31c.595-.266,1.189-.531,1.805-.8.8-.361,1.6-.727,2.405-1.089.393-.175.781-.345,1.184-.52a39,39,0,0,0,8.411-5.554q1.266-.964,2.543-1.922c.43-.319.86-.637,1.3-.966s.876-.658,1.327-1c2.777-2.066,5.538-4.136,8.246-6.287a83.416,83.416,0,0,1,17.379-10.535c.34-.159.685-.313,1.041-.478,8.14-3.377,17.942-2.634,26.533-1.747l1.152.112a21.449,21.449,0,0,1,6.85,2.113c.69.228,1.386.441,2.087.627l1.63.435v1.062c.446.053.9.106,1.359.165a24.7,24.7,0,0,1,5.544,1.959l1.232.473a52.043,52.043,0,0,1,4.736,2.315c.563.3,1.126.595,1.7.9,1.444.8,2.8,1.694,4.174,2.623,2.48,1.673,5.039,3.143,7.662,4.572.467.25.929.5,1.407.765,5.437,2.942,10.715,5.549,16.784,6.935V76.407c-.319-.048-.632-.1-.961-.138a35.555,35.555,0,0,1-10.19-3.579V71.628l-1.232-.17A4.96,4.96,0,0,1-131.52,69.5c-.563-.3-1.126-.611-1.7-.924a23.686,23.686,0,0,1-5.4-4.354l-.908-.924c-7.482-7.811-12.945-18.059-14.289-28.843-.1-.595-.191-1.189-.292-1.805-1.041-8.2-.8-18.5,3.478-25.806.239-.451.483-.9.738-1.359,3.68-6.308,8.517-11.522,15.723-13.508A24.652,24.652,0,0,1-114.731-4.005Z" transform="translate(253.85 8.539)" fill="#ff0505"/>
      <path id="Path_28347" data-name="Path 28347" d="M-47.4,0h1.593c.09.3.181.589.276.9a34.1,34.1,0,0,0,2.347,5.9,43.446,43.446,0,0,1,2.713,7.051c.435,1.338.913,2.634,1.434,3.935a7.905,7.905,0,0,1,.664,3.982h1.062c3.149,7.827,3.149,7.827,4.046,10.253,1.078,2.883,2.23,5.735,3.388,8.581q1.434,3.544,2.788,7.12c.181.467.356.935.542,1.418a8.149,8.149,0,0,1,.388,3.425h2.124V51.505c1.057-.834,2.113-1.6,3.218-2.358q1.02-.709,2.034-1.418c.356-.25.712-.5,1.078-.754,1.126-.8,2.23-1.609,3.335-2.432.361-.265.717-.531,1.089-.807.7-.526,1.4-1.046,2.1-1.577,2.432-1.805,2.432-1.805,3.611-1.805V39.293A19.065,19.065,0,0,1-5.4,37.679c.446-.308.9-.616,1.365-.935s.95-.637,1.444-.966c.467-.329.94-.653,1.428-.988,3.536-2.4,3.536-2.4,4.742-2.4V31.328C6.449,29.2,6.449,29.2,7.824,29.2a8.444,8.444,0,0,1-.749,4.545,34.093,34.093,0,0,0-1.742,7.667c-.1.7-.1.7-.207,1.4Q4.88,44.507,4.638,46.2H3.576c.021.451.042.9.064,1.359a15.293,15.293,0,0,1-.786,4.381A90.639,90.639,0,0,0,.391,63.187H-.671c.016.972.016.972.032,1.959A19.41,19.41,0,0,1-1.2,70.09H-2.264c.011.589.021,1.184.032,1.795-.032,1.922-.032,1.922-.563,2.984-.1.828-.17,1.657-.234,2.49A28.634,28.634,0,0,1-4.388,83.9H-5.45l-.531,6.9H-7.043c.016.839.016.839.032,1.694a22.273,22.273,0,0,1-.563,4.678q-15.149.016-30.3.027-7.033.008-14.066.016-6.125.008-12.255.005-3.242.008-6.494.011h-6.1c-.749,0-1.5.005-2.246.005h-4.789c-1.274-.064-1.274-.064-1.805-.595q-.032-1.593,0-3.186h-1.062c-.048-.3-.09-.605-.138-.919q-.311-2.047-.627-4.094c-.069-.478-.143-.95-.218-1.444-.1-.68-.1-.68-.212-1.375-.064-.419-.127-.839-.191-1.269-.112-.993-.112-.993-.738-1.519q-.032-1.593,0-3.186h-1.062c-.106-.685-.218-1.37-.329-2.071-.143-.892-.292-1.784-.435-2.676-.069-.451-.143-.9-.218-1.365-.069-.43-.138-.86-.212-1.3-.064-.4-.127-.8-.191-1.205-.122-.95-.122-.95-.738-1.471-.021-1.237-.021-2.48,0-3.717h-1.062c-.064-.419-.127-.834-.2-1.264a66.863,66.863,0,0,0-1.927-8.825c-.552-2.294-1.073-4.6-1.593-6.9l-1.195-5.161q-.414-1.8-.818-3.6c-.133-.6-.271-1.205-.409-1.827-.122-.542-.244-1.083-.366-1.641a21.412,21.412,0,0,0-.972-3.276,10.067,10.067,0,0,1-.488-4.142c1.593,0,1.593,0,2.766,1.136.489.5.977,1,1.481,1.519,1.317,1.067,2.676,2.06,4.046,3.053.536.393.536.393,1.078.8a15.245,15.245,0,0,0,4.434,2.522v1.062l.956.451a17.466,17.466,0,0,1,2.894,1.906c2.57,1.97,5.246,3.775,7.933,5.581A51.956,51.956,0,0,1-70.6,50.858a4.845,4.845,0,0,0,3.027,1.71c.064-.462.122-.924.191-1.4A22.173,22.173,0,0,1-65.818,46.3c.356-.828.356-.828.717-1.678q.924-2.087,1.874-4.163A35.94,35.94,0,0,0-61.2,34.514h1.062c.048-.722.048-.722.1-1.46a27.168,27.168,0,0,1,2.411-7.073c.828-1.917,1.551-3.85,2.267-5.8q.446-1.195.9-2.389c.228-.611.457-1.227.7-1.858h1.062l.531-4.248h1.062c.053-.558.111-1.115.165-1.694A11.667,11.667,0,0,1-48.991,5.31c.419-1.4.733-2.82,1.062-4.248Z" transform="translate(212.204 133.265)" fill="#ffd702"/>
      <path id="Path_28348" data-name="Path 28348" d="M-9.834-.249c.489,0,.982-.005,1.487-.005h1.63c.573,0,1.147,0,1.742-.005H.849c1.4-.005,2.8-.005,4.2-.011Q10.234-.278,15.414-.28q6.2,0,12.409-.011,14.99-.024,29.99-.032,4.97,0,9.935-.005,26.4-.024,52.806-.032,6.117,0,12.234-.005h1.535q24.651-.008,49.3-.048,25.328-.032,50.667-.037h8.575Q254.2-.458,265.534-.477q11.39-.024,22.779-.016,6.77.008,13.54-.016,4.524-.008,9.043,0,2.581.008,5.151-.005c1.853-.011,3.706-.005,5.56.005.531-.005,1.062-.011,1.6-.021a16.364,16.364,0,0,1,9.659,3.005c2.766,2.835,3.25,5.432,3.26,9.255.005.515.005.515.005,1.035.005,1.147.005,2.289.005,3.435.005.818.005,1.641.011,2.458q.008,3.345.011,6.69c0,1.391.005,2.788.005,4.179q.016,6.539.016,13.083,0,7.543.027,15.091.016,5.838.016,11.676,0,3.481.016,6.967.016,3.281.005,6.558c0,.8,0,1.6.005,2.4.005,1.1.005,2.193,0,3.292v1.853a11.631,11.631,0,0,1-4.444,8.135,10.843,10.843,0,0,1-6.621,2.193c-.733,0-.733,0-1.481.005-.812-.005-.812-.005-1.635-.005-.866,0-.866,0-1.742.005h-5.836c-1.4,0-2.8.005-4.2.005q-5.185.008-10.375.005-6.212,0-12.42.005-15.014.016-30.022.016-7.1,0-14.2.005l-48.58.016H180.917q-24.667,0-49.339.021-26.069.024-52.137.021H72.3q-11.35,0-22.694.016-11.406.008-22.8.005-6.778,0-13.556.011-4.524,0-9.048-.005-2.573,0-5.156.005c-1.853.005-3.7,0-5.554-.005-.536.005-1.073.011-1.619.011-3.781-.027-6.377-.52-9.319-3.064a12.129,12.129,0,0,1-3.393-8.99c0-.34-.005-.685-.005-1.035q-.008-1.72-.005-3.435c0-.823-.005-1.641-.011-2.464q-.008-3.345-.011-6.7c0-1.391-.005-2.788-.005-4.184q-.008-6.539-.016-13.089,0-7.551-.027-15.107-.016-5.838-.016-11.682,0-3.481-.016-6.972-.008-3.281-.005-6.563c0-.8,0-1.6-.005-2.405-.005-1.1-.005-2.193,0-3.292V10.079c.467-4.152,2.469-6.457,5.538-9.064A9.422,9.422,0,0,1-9.834-.249Zm-5.092,8.034-.531.531c-.058,1.078-.074,2.156-.08,3.228-.005.345-.005.685-.011,1.035q-.008,1.728-.011,3.457c-.005.823-.011,1.646-.016,2.464q-.016,4.062-.027,8.124c-.005.935-.005,1.864-.011,2.793q-.016,5.814-.027,11.618-.016,8.339-.058,16.668-.032,5.854-.032,11.708,0,3.5-.027,7-.024,3.289-.011,6.584c0,.807-.005,1.614-.016,2.416-.011,1.1-.005,2.2,0,3.3,0,.616,0,1.232-.005,1.864.43,2.124,1.365,2.91,2.984,4.29l.531.531c.749.053,1.5.069,2.241.069.489,0,.977.005,1.481.005H-6.9c.573,0,1.147,0,1.736.005H.674c1.4.005,2.8.005,4.205.011q5.193.008,10.381.011,6.22,0,12.43.011,15.03.024,30.054.032,4.978,0,9.951.005,26.435.024,52.865.032,6.125,0,12.255.005h1.54q24.691.008,49.376.048,25.368.032,50.735.037h8.586q11.358.008,22.715.027,11.406.024,22.816.016,6.786-.008,13.567.016,4.532.008,9.053,0,2.589-.008,5.167.005c1.853.011,3.706.005,5.554-.005.542.005,1.078.011,1.63.021,3.074-.037,3.074-.037,5.65-1.667.335-.441.669-.881,1.009-1.338l.531-.531c.058-1.078.08-2.156.08-3.228.005-.515.005-.515.011-1.035q.008-1.728.011-3.457c.005-.823.011-1.646.016-2.464q.016-4.062.027-8.124c.005-.935.011-1.864.011-2.793q.016-5.814.027-11.623.016-8.331.058-16.662.032-5.854.032-11.708.008-3.5.027-7,.024-3.289.011-6.584c0-.807.005-1.614.016-2.416.011-1.1.005-2.2,0-3.3,0-.616.005-1.232.005-1.864-.43-2.145-1.306-2.931-2.984-4.29a10.763,10.763,0,0,0-3.961-.6c-.489,0-.977-.005-1.476-.005h-1.635c-.86,0-.86,0-1.736-.005h-5.82c-1.4-.005-2.793-.005-4.189-.011q-5.169-.008-10.344-.011-6.2,0-12.393-.011-14.966-.024-29.942-.032-4.954,0-9.913-.005-26.34-.024-52.684-.032-6.109,0-12.207-.005h-1.535q-24.6-.008-49.206-.048-25.28-.032-50.56-.037H71.932Q60.614,4.852,49.3,4.833,37.931,4.809,26.56,4.817q-6.754.008-13.514-.016-4.516-.008-9.021,0Q1.452,4.809-1.121,4.8c-1.848-.011-3.69-.005-5.538.005C-7.2,4.8-7.731,4.79-8.284,4.78-11.432,4.822-12.919,5.125-14.926,7.785Z" transform="translate(20.968 298.049)"/>
      <path id="Path_28349" data-name="Path 28349" d="M-29.278-.958c3.542.584,7.11.94,10.678,1.327a33.492,33.492,0,0,1,7.832,1.667c1.731.271,3.457.489,5.2.69,2.671.324,2.671.324,3.828.9,1.073.085,2.145.143,3.223.2A69.345,69.345,0,0,1,10.041,4.92a110.164,110.164,0,0,0,11.267,1.5c.589.053.589.053,1.195.112l1.041.085c1.864.287,3.685.8,5.512,1.258v15.93c-3.154.26-3.154.26-6.372.531A66.258,66.258,0,0,0-19.795,49.294a42.767,42.767,0,0,0-5.841,10.089H-26.7c-.053.558-.106,1.115-.165,1.689a6.312,6.312,0,0,1-1.094,3.223,26.091,26.091,0,0,0-2.458,7.3h-1.062c-.027.457-.048.913-.08,1.386-.34,5.575-.9,11.114-1.513,16.668q-4.166.04-8.331.058c-.95.005-1.9.011-2.841.021q-2.031.016-4.073.021l-1.285.016c-1.041,0-2.076-.053-3.117-.117-1.519-1.524-1.343-3.133-1.476-5.182-.032-.409-.064-.823-.1-1.248-.1-1.317-.191-2.639-.287-3.961q-.135-1.959-.287-3.919c-.058-.812-.117-1.625-.17-2.443A45.925,45.925,0,0,0-56.178,65.8c-.34-1.492-.552-2.984-.749-4.5-.08-.616-.159-1.227-.244-1.864s-.17-1.285-.255-1.954c-.664-4.97-1.4-9.924-2.257-14.868-.781-4.476-1.359-8.942-1.742-13.471a11.069,11.069,0,0,0-.85-4.28c-.52-5.655.218-11.384,3.584-16.1q.844-1,1.726-1.954c.345-.372.685-.743,1.041-1.126A27.351,27.351,0,0,1-49.53.443c.34-.2.674-.4,1.025-.6C-42.781-3-35.374-2.073-29.278-.958Z" transform="translate(132.562 99.371)" fill="#ff0202"/>
      <path id="Path_28350" data-name="Path 28350" d="M-59.565-.812A5.658,5.658,0,0,1-57.77,1.545c.281.414.568.828.86,1.258q1.856.295,3.717.531a4.922,4.922,0,0,1,1.062,2.124c-1.439.722-2.66.568-4.248.531-.08.706-.08.706-.165,1.428A9.3,9.3,0,0,1-58.5,11.831c-.871.382-1.758.743-2.655,1.062.191.319.388.632.584.956.266.441.536.881.807,1.333.3.483.589.961.892,1.455a29.094,29.094,0,0,1,1.673,3.2c.25.526.5,1.046.759,1.588.212.483.43.972.658,1.476.977,1.338.977,1.338,2.968,1.635a17.442,17.442,0,0,0,6.425-.988,25.287,25.287,0,0,1,10.19-1.1c.531.531.531.531.6,1.54-.027,9.574-.027,9.574-1.662,11.2a24.511,24.511,0,0,1-3.186,0c.191.393.388.791.584,1.195q1.306,2.668,2.6,5.342c.3.621.605,1.243.919,1.88.292.595.579,1.189.876,1.8l.807,1.662a5.175,5.175,0,0,1,.584,2.989c.335-.021.669-.048,1.014-.074,4.131-.175,6.637.759,9.9,3.228a2.425,2.425,0,0,1,.632,2.421c-.2.658-.2.658-.4,1.327-.234,2.055-.234,2.055.781,3.011,1.28,1.949,1.083,3.9,1.078,6.181.016.441.032.881.048,1.338.011,3.335-.738,5.034-2.968,7.524h-1.062V76.08c-3.5,2-7.19,2.06-11.151,1.593a14.433,14.433,0,0,1-7.1-5.942,5.351,5.351,0,0,1-.329-2.554l-1.593,1.062h-2.124l-1.593-3.186-1.062.531c-.866.048-1.736.064-2.607.064h-1.641l-1.779-.011H-57.85l-5.761-.016c-1.3-.005-2.6-.005-3.9-.011q-4.787-.008-9.574-.027c-.069.4-.138.8-.207,1.211a14.345,14.345,0,0,1-5.1,7.816,16.236,16.236,0,0,1-11.289.717,13.03,13.03,0,0,1-6.138-6.68c-.255-1.009-.446-2.034-.627-3.064-.589.032-1.184.069-1.795.1-.632-.032-1.269-.064-1.922-.1a5.256,5.256,0,0,1-1.062-4.248l-1.582.016c-1.938.021-3.876.032-5.814.042-.839.005-1.678.016-2.517.021-1.211.016-2.416.021-3.621.027l-1.136.016a6.321,6.321,0,0,1-4.444-1.184l.531-2.124h20.708V58.557c-.4.005-.791.005-1.2.011-1.789.011-3.579.016-5.374.027l-1.89.011c-.595,0-1.189.005-1.805.005l-1.667.011a4.009,4.009,0,0,1-2.4-.595l.531-2.124h16.461V54.84h1.062V53.778c.51-.239.51-.239,1.025-.489.441-.218.881-.441,1.333-.674.653-.319.653-.319,1.322-.653,1.232-.765,1.232-.765,1.519-2.257.053-.611.053-.611.111-1.237h-1.593c-1.593-3.451-1.593-3.451-1.593-5.841-.446.016-.446.016-.9.037-1.349.042-2.692.069-4.041.1-.467.021-.935.037-1.418.053-3.42.053-3.42.053-4.848-1.057-.473-1.253-.473-1.253-.473-4.439h-17.523L-127,35.194c.531-.531.531-.531,2.2-.589.738,0,1.481,0,2.219.005.388.005.775.005,1.173.005,1.248,0,2.49.011,3.733.016.844.005,1.683.005,2.527.005,2.065.005,4.136.016,6.2.027V32.539h-5.31l-.531-2.124c.531-.531.531-.531,1.747-.584l1.471.021,1.481.016,1.142.016c-.011-.345-.016-.69-.027-1.046-.032-1.566-.053-3.127-.074-4.694-.011-.542-.027-1.089-.037-1.646-.005-.526-.011-1.046-.016-1.582-.011-.483-.016-.961-.027-1.46a3.5,3.5,0,0,1,1.774-2.846,8.247,8.247,0,0,1,2.3-.212c.462-.005.924-.016,1.4-.021.749,0,.749,0,1.508.005l1.556-.011q1.625,0,3.25.005c1.662,0,3.319-.011,4.981-.032,1.051,0,2.108,0,3.159.005.5-.005.993-.016,1.508-.021,3.35.037,3.35.037,4.811,1.067a16.036,16.036,0,0,1,.637,6.074c0,.457-.005.913-.005,1.386q-.016,2.182-.048,4.365c-.011.988-.016,1.975-.021,2.963q-.032,3.632-.08,7.259h3.186c-.027-.4-.048-.8-.074-1.211-.292-8.628,2.512-17.438,6.977-24.808a13.2,13.2,0,0,1,2.124-1.593c-.122-.292-.244-.589-.366-.9-1.333-3.542-1.614-6.059-.032-9.621C-67.843-2.113-63.516-2.378-59.565-.812Z" transform="translate(365.613 309.932)" fill="#111102"/>
      <path id="Path_28351" data-name="Path 28351" d="M-53,0h18.053c-.595,7.763-.595,7.763-1.062,10.62h-1.062c-.037.685-.037.685-.08,1.386-.037.627-.08,1.253-.122,1.9-.032.611-.069,1.216-.111,1.848-.542,6.478-1.922,12.908-3.085,19.3-.287,1.55-.563,3.1-.844,4.646-.77,4.237-1.545,8.464-2.48,12.664a103.08,103.08,0,0,0-1.678,11.549,36.117,36.117,0,0,1-2.219,9.367c-.271.722-.271.722-.552,1.46a20.37,20.37,0,0,1-10.6,10.221c-.605.308-.605.308-1.227.621a19.863,19.863,0,0,1-6.239.605c-.462,0-.924,0-1.4-.005a71.7,71.7,0,0,1-17.225-2.32A29.288,29.288,0,0,0-90.7,83.1a30.656,30.656,0,0,1-6.8-1.051,80.575,80.575,0,0,0-8.283-1.264c-.473-.064-.945-.127-1.434-.191-.637-.08-.637-.08-1.285-.165a25.574,25.574,0,0,1-4.5-1.312v-22.3l6.372-1.062c1.067-.234,2.129-.483,3.186-.765,1.646-.43,3.287-.85,4.949-1.227.568-.133,1.136-.265,1.72-.4.515-.117,1.03-.228,1.561-.35a5.913,5.913,0,0,0,2.92-2.039,19.91,19.91,0,0,1,2.188-1c12.77-5.474,22.185-15.345,29.14-27.144q.741-1.131,1.492-2.257a21.685,21.685,0,0,0,2.395-5.613,14.663,14.663,0,0,1,.866-2.3A42.6,42.6,0,0,0-54.56,6.005c.186-.908.366-1.816.552-2.724.08-.4.159-.8.239-1.216A6.426,6.426,0,0,1-53,0Z" transform="translate(284.709 198.576)" fill="#ff0303"/>
      <path id="Path_28352" data-name="Path 28352" d="M0,0C6.956.935,6.956.935,9.473,1.6a43.6,43.6,0,0,0,7.551,1.057c.988.085,1.97.175,2.958.265.483.042.961.09,1.46.133,1.97.186,3.94.414,5.9.664.913.117.913.117,1.843.234A8.687,8.687,0,0,1,32,4.768a18.991,18.991,0,0,0,5.082.993c1.03.1,1.03.1,2.081.207.717.069,1.439.138,2.156.2.733.074,1.46.149,2.193.218q2.668.263,5.342.515V7.965l.892-.032a74.81,74.81,0,0,1,12.117.993c.664.09,1.333.175,2.018.265,8.751,1.216,14.363,3.674,20.3,10.413a6.867,6.867,0,0,1,1.306,3.228H86.55c3.51,9.489,1.678,21.3-1.062,30.8-.181,1.258-.335,2.522-.467,3.781-.5,4.471-1.349,8.852-2.214,13.259-.515,2.634-.956,5.273-1.359,7.928-.207,1.051-.207,1.051-.738,1.582-1.455.048-2.894.064-4.349.053-.435,0-.871-.005-1.322-.005q-2.087,0-4.184-.016c-.945,0-1.89-.005-2.835-.005q-3.473-.008-6.956-.027c-.032-.563-.058-1.126-.09-1.7C60.41,68.47,58.6,59.3,53.836,50.39a4.86,4.86,0,0,1-.738-3.133H52.036C50.443,44.2,50.443,44.2,50.443,43.01H49.382c-.743-1.051-1.439-2.1-2.124-3.186a24.979,24.979,0,0,0-5.48-6.165,18.952,18.952,0,0,1-2.156-2.034,30.323,30.323,0,0,0-7.232-5.607V24.956c-.483-.143-.966-.287-1.46-.43A7.026,7.026,0,0,1,28.2,23.135a26.071,26.071,0,0,0-5.379-2.782c-1-.446-2-.919-2.984-1.412C14.464,16.275,8.7,15.356,2.745,14.979A8.495,8.495,0,0,1,0,14.337Z" transform="translate(171.178 108.839)" fill="#ff0303"/>
      <path id="Path_28353" data-name="Path 28353" d="M0,0H18.584c.3,1.535.589,3.064.9,4.646a50.683,50.683,0,0,0,3.881,11.814,9.172,9.172,0,0,1,1.062,4.248h1.062c.26.589.26.589.531,1.189a40.3,40.3,0,0,0,6.223,9.611c1.152,1.343,2.2,2.724,3.271,4.131a38.9,38.9,0,0,0,10.519,8.931c.579.361,1.158.722,1.758,1.094v1.062c.372.138.738.276,1.12.419a47.132,47.132,0,0,1,4.821,2.437,57.6,57.6,0,0,0,24.845,7.158c1.073.074,1.073.074,1.6.605.048,1.492.064,2.974.053,4.466,0,.669,0,.669-.005,1.354q0,2.15-.016,4.3c0,.972-.005,1.938-.005,2.91q-.008,3.576-.027,7.147a44.287,44.287,0,0,1-10.62-1.593c-2.007-.308-4.02-.515-6.043-.733-5.32-.6-10.6-1.359-15.882-2.23-3.043-.5-6.08-.961-9.138-1.349a62.517,62.517,0,0,1-7.078-1.269c-1.338-.3-2.681-.488-4.041-.69a25.656,25.656,0,0,1-15.7-10.19c-.276-.361-.547-.722-.828-1.094-3.595-5.039-4.8-10.4-5.543-16.461-.085-.653-.17-1.312-.26-1.981C4.566,36.16,4.12,32.379,3.68,28.6c-.048-.4-.1-.807-.143-1.221q-.342-2.963-.674-5.92A76.025,76.025,0,0,0,1.3,11.74,56.1,56.1,0,0,1,.467,5.012C.313,3.356.159,1.7,0,0Z" transform="translate(81.442 198.576)" fill="#ff0303"/>
      <path id="Path_28354" data-name="Path 28354" d="M-4.038-.1c.4-.005.8-.005,1.216-.011.855-.005,1.71-.005,2.565-.011,1.3-.005,2.586-.021,3.881-.037C4.458-.16,5.286-.16,6.114-.16L7.277-.182A13.106,13.106,0,0,1,15.921,2.5c.361.457.361.457.727.929.255.308.5.611.765.929,1.423,2.294,1.216,4.837,1.221,7.46.005.658.005.658.011,1.333.011,1.455.021,2.9.027,4.359,0,.5,0,.993.005,1.508q.016,3.943.021,7.89c.005,2.713.027,5.432.048,8.145q.016,3.13.021,6.271c0,1,.005,2,.016,3,.016,1.4.011,2.8.011,4.205.005.409.011.818.021,1.243a11.22,11.22,0,0,1-2.395,7.051c-3,2.565-6.329,2.74-10.094,2.729H5.089c-.86,0-1.72,0-2.581-.005q-1.983,0-3.966.005H-5.169c-2.777-.011-2.777-.011-3.366-.605-.053-.754-.069-1.519-.069-2.278,0-.489-.005-.982-.005-1.487,0-.818,0-.818.005-1.646,0-.568-.005-1.142-.005-1.726V42.217q0-4.118.005-8.23,0-5.3-.005-10.583V11.4c0-1.816,0-3.627.005-5.443,0-.542-.005-1.089-.005-1.646,0-.494.005-.982.005-1.492v-1.3C-8.44-.851-5.87-.086-4.038-.1Z" transform="translate(24.137 312.726)" fill="#fb0000"/>
      <path id="Path_28355" data-name="Path 28355" d="M-2.214-.135c.791.005,1.582.011,2.368.021.4,0,.807,0,1.221.005,1,.005,2,.016,2.995.027L5.432,2.042c.308-.255.616-.5.929-.765,3.1-2.15,7.211-1.46,10.821-1.46.69-.005,1.381-.011,2.092-.021h1.991C21.872-.21,22.477-.21,23.1-.215A2.752,2.752,0,0,1,25.61.98a17.545,17.545,0,0,1,.611,2.315c.159.717.159.717.319,1.45.112.515.223,1.03.34,1.566.17.791.17.791.35,1.6q.558,2.541,1.1,5.082.374,1.72.754,3.441.924,4.221,1.832,8.443a71.384,71.384,0,0,0,2.66-9.526c.09-.43.181-.855.276-1.3q.43-2.023.85-4.046.422-2.047.86-4.094c.175-.844.356-1.689.531-2.533C36.7.507,36.7.507,37.291-.082c.717-.048,1.428-.058,2.145-.053.43,0,.86.005,1.3.005L42.1-.114c.457,0,.908,0,1.375.005q1.689.008,3.372.027c.77,2.05.281,3.52-.287,5.591-.1.335-.186.669-.281,1.014q-.438,1.609-.892,3.218c-.287,1.051-.579,2.1-.866,3.154-.191.7-.382,1.391-.573,2.081-.855,3.112-1.646,6.234-2.411,9.367-1.466,6.005-2.989,11.984-4.731,17.921-.7,2.368-1.3,4.715-1.805,7.136-1.067,3.935-4.205,7.152-7.636,9.255-3,1.3-6.526,1-9.722.733-.966-.966-.6-2.289-.6-3.574,0-.4,0-.8.005-1.205-.005-.6-.005-.6-.005-1.211.005-2.974.005-2.974.6-3.568.95-.058,1.9-.1,2.857-.133,2.3-.159,2.3-.159,4.147-1.428a16.482,16.482,0,0,0-.5-10.014c-.855-2.692-1.635-5.384-2.352-8.113-.1-.366-.2-.738-.3-1.12-.2-.759-.4-1.524-.595-2.283q-.781-2.979-1.561-5.947c-.1-.388-.2-.77-.308-1.168q-1.689-6.42-3.515-12.8l-1.062,3.186-1.6.1c-.69.048-1.375.09-2.081.138L8.7,10.367c-1.6-.016-1.6-.016-2.209.7-.064.977-.1,1.954-.106,2.936-.011.627-.021,1.253-.032,1.9-.011.68-.021,1.365-.027,2.066s-.027,1.391-.037,2.108q-.04,2.772-.08,5.549c-.027,1.885-.058,3.77-.085,5.655Q6.04,36.842,5.963,42.4c-1.678.839-3.467.605-5.31.595C.069,43,.069,43-.531,43c-2.926-.005-2.926-.005-4.126-.6q-.016-8.2-.027-16.381,0-3.807-.011-7.6Q-4.7,14.74-4.7,11.074c0-.935-.005-1.869-.005-2.8q-.008-1.951-.005-3.913c0-.388-.005-.781-.005-1.179C-4.715-.066-4.715-.066-2.214-.135Z" transform="translate(183.798 329.281)" fill="#f80000"/>
      <path id="Path_28356" data-name="Path 28356" d="M-11.594-.032h1.726c4.1.048,6.781.52,9.892,3.388,1.742,2.267,1.811,4.312,1.763,7.073V11.7c-.005.881-.011,1.763-.021,2.644-.021,1.354-.021,2.708-.027,4.062-.005.86-.011,1.715-.016,2.575-.005.611-.005.611-.005,1.232-.042,2.846-.042,2.846-.632,3.441-1.142.042-2.283.053-3.425.048-.69,0-1.386,0-2.1-.005-.738-.005-1.476-.005-2.214-.011s-1.476-.005-2.22-.011c-1.816-.005-3.632-.016-5.443-.021v7.965h5.841c-.016-.69-.027-1.381-.037-2.092s-.005-1.439.037-2.156c.531-.531.531-.531,1.466-.595.4.005.8.005,1.205.011.43,0,.86,0,1.3.005s.9.005,1.37.011c.451.005.908.005,1.375.011q1.681.008,3.372.027c.451,8.448.451,8.448-1.062,10.747-3.08,3.064-6.3,3.855-10.567,3.876l-1.683-.021-1.689.021c-3.435-.016-5.575-.366-8.363-2.411-2.177-2.352-2.719-4.046-2.761-7.2-.011-.908-.011-.908-.027-1.832q-.032-4.142-.058-8.294c-.005-1.455-.021-2.915-.042-4.37-.032-2.1-.037-4.205-.048-6.308-.011-.648-.021-1.3-.037-1.97.011-3.844.3-5.952,2.974-8.788C-18.539-.245-15.576-.122-11.594-.032Z" transform="translate(171.688 329.031)" fill="#f90000"/>
      <path id="Path_28357" data-name="Path 28357" d="M-11.594-.032h1.726c4.1.048,6.781.52,9.892,3.388,1.742,2.267,1.811,4.312,1.763,7.073V11.7c-.005.881-.011,1.763-.021,2.644-.021,1.354-.021,2.708-.027,4.062-.005.86-.011,1.715-.016,2.575-.005.611-.005.611-.005,1.232-.042,2.846-.042,2.846-.632,3.441-1.142.042-2.283.053-3.425.048-.69,0-1.386,0-2.1-.005-.738-.005-1.476-.005-2.214-.011s-1.476-.005-2.22-.011c-1.816-.005-3.632-.016-5.443-.021v7.965h5.841c-.016-.69-.027-1.381-.037-2.092s-.005-1.439.037-2.156c.531-.531.531-.531,1.466-.595.4.005.8.005,1.205.011.43,0,.86,0,1.3.005s.9.005,1.37.011c.451.005.908.005,1.375.011q1.681.008,3.372.027c.451,8.448.451,8.448-1.062,10.747-3.08,3.064-6.3,3.855-10.567,3.876l-1.683-.021-1.689.021c-3.435-.016-5.575-.366-8.363-2.411-2.177-2.352-2.719-4.046-2.761-7.2-.011-.908-.011-.908-.027-1.832q-.032-4.142-.058-8.294c-.005-1.455-.021-2.915-.042-4.37-.032-2.1-.037-4.205-.048-6.308-.011-.648-.021-1.3-.037-1.97.011-3.844.3-5.952,2.974-8.788C-18.539-.245-15.576-.122-11.594-.032Z" transform="translate(73.456 329.031)" fill="#f90000"/>
      <path id="Path_28358" data-name="Path 28358" d="M-1.341,0-.067.011c.68,0,.68,0,1.37.005.478,0,.956.005,1.444.011S3.708.032,4.2.032C5.386.042,6.576.048,7.76.058a103.032,103.032,0,0,1,3.52,13.211q.366,1.689.743,3.377.342,1.513.669,3.037a18.5,18.5,0,0,0,.908,3.207c.138-.616.281-1.232.425-1.864q.773-3.433,1.561-6.866c.223-.988.451-1.981.674-2.968q.478-2.135.972-4.269c.1-.446.2-.887.3-1.343.1-.414.191-.828.292-1.253.122-.547.122-.547.25-1.1a16.913,16.913,0,0,1,1.37-3.17L23.625.027c.393-.005.791-.011,1.2-.011C27.82,0,27.82,0,29,.589a68.577,68.577,0,0,1-1.922,10.089c-.143.558-.281,1.115-.425,1.683-1.131,4.428-2.389,8.814-3.7,13.195s-2.469,8.8-3.584,13.243c-.122.483-.25.966-.372,1.466-.112.425-.218.855-.324,1.3-.3.977-.3.977-.828,1.508-1.519.042-3.027.053-4.545.037-.43-.005-.855-.005-1.3-.011q-1.593-.008-3.186-.027A32.491,32.491,0,0,1,5.7,33.909c-.281-1.152-.563-2.31-.844-3.462-.138-.568-.276-1.131-.419-1.715-.526-2.113-1.1-4.211-1.694-6.3Q1.043,16.36-.6,10.28C-.763,9.685-.927,9.09-1.1,8.48c-.149-.563-.3-1.126-.457-1.71-.138-.5-.276-1-.414-1.513A42.3,42.3,0,0,1-2.86.589C-2.329.058-2.329.058-1.341,0Z" transform="translate(115.628 329.138)" fill="#f80000"/>
      <path id="Path_28359" data-name="Path 28359" d="M-3.227,0c.393,0,.786.005,1.195.005.584,0,.584,0,1.179-.005A13.927,13.927,0,0,1,3.872.605V49.987H8.651c.966.966.6,2.283.605,3.568-.005.4-.005.8-.005,1.211,0,.595,0,.595.005,1.205-.005,2.974-.005,2.974-.605,3.574-8.99.637-8.99.637-12.213-2.124A6.216,6.216,0,0,1-4.623,55.3H-5.685a19.835,19.835,0,0,1-1.189-8.267c0-.5-.005-1-.005-1.524q0-2.477.011-4.954V37.105q0-3.608.016-7.211.008-4.635.011-9.266,0-3.552.005-7.11V10.1q.008-2.373.016-4.758c0-.473-.005-.95-.005-1.439C-6.806.005-6.806.005-3.227,0Z" transform="translate(87.657 312.665)" fill="#f90000"/>
      <path id="Path_28360" data-name="Path 28360" d="M-3.2,0C-2.6.005-2.6.005-2,.005c.589,0,.589,0,1.195-.005C2.151.005,2.151.005,3.346.605V42.553c-1.683.839-3.494.605-5.342.595-.4.005-.791.005-1.2.005-2.947-.005-2.947-.005-3.547-.6-.053-1.306-.069-2.6-.069-3.9V37.413c-.005-1.359,0-2.713,0-4.073V24.616c.005-2.527,0-5.06,0-7.588-.005-1.938,0-3.876,0-5.814v-2.8c-.005-1.3,0-2.6,0-3.9V3.324C-6.8-.005-6.515.005-3.2,0Z" transform="translate(106.237 329.125)" fill="#f90000"/>
      <path id="Path_28361" data-name="Path 28361" d="M0-.034H7.434l.531,4.248c.218-.26.435-.526.658-.8.287-.34.573-.68.871-1.03.281-.34.563-.674.855-1.025a4.346,4.346,0,0,1,1.864-1.4c1.949-.074,3.892-.021,5.841,0V7.931c-1.731.085-3.457.175-5.188.26a5.509,5.509,0,0,0-3.839,1.864,7.947,7.947,0,0,0-.292,3.005c-.016.929-.016.929-.032,1.869v2.018c-.011.68-.016,1.365-.027,2.066-.021,1.811-.032,3.616-.042,5.427-.011,1.848-.032,3.7-.053,5.543C8.538,33.6,8.517,37.231,8.5,40.852H0Z" transform="translate(180.205 330.294)" fill="#f90000"/>
      <path id="Path_28362" data-name="Path 28362" d="M0,0H6.372L7.434,4.248h6.9V0h6.372V20.177H0V18.053c2.894-.265,2.894-.265,5.841-.531V15.93L0,15.4V13.275l10.089-.531V11.151L0,10.62Z" transform="translate(259.321 329.198)" fill="#fcfc00"/>
      <path id="Path_28363" data-name="Path 28363" d="M-2.214-.135c.791.005,1.582.011,2.368.021.4,0,.807,0,1.221.005,1,.005,2,.016,2.995.027L5.432,2.042c.308-.255.616-.5.929-.765,3.1-2.15,7.211-1.46,10.821-1.46.69-.005,1.381-.011,2.092-.021h1.991C21.872-.21,22.477-.21,23.1-.215A2.752,2.752,0,0,1,25.61.98a17.545,17.545,0,0,1,.611,2.315c.159.717.159.717.319,1.45.112.515.223,1.03.34,1.566.17.791.17.791.35,1.6q.558,2.541,1.1,5.082.374,1.72.754,3.441.924,4.221,1.832,8.443a71.384,71.384,0,0,0,2.66-9.526c.09-.43.181-.855.276-1.3q.43-2.023.85-4.046.422-2.047.86-4.094c.175-.844.356-1.689.531-2.533C36.7.507,36.7.507,37.291-.082c.717-.048,1.428-.058,2.145-.053.43,0,.86.005,1.3.005L42.1-.114c.457,0,.908,0,1.375.005q1.689.008,3.372.027c.77,2.05.281,3.52-.287,5.591-.1.335-.186.669-.281,1.014q-.438,1.609-.892,3.218c-.287,1.051-.579,2.1-.866,3.154-.191.7-.382,1.391-.573,2.081-.855,3.112-1.646,6.234-2.411,9.367-1.466,6.005-2.989,11.984-4.731,17.921-.7,2.368-1.3,4.715-1.805,7.136-1.067,3.935-4.205,7.152-7.636,9.255-3,1.3-6.526,1-9.722.733-.966-.966-.6-2.289-.6-3.574,0-.4,0-.8.005-1.205-.005-.6-.005-.6-.005-1.211.005-2.974.005-2.974.6-3.568.95-.058,1.9-.1,2.857-.133,2.3-.159,2.3-.159,4.147-1.428a16.482,16.482,0,0,0-.5-10.014c-.855-2.692-1.635-5.384-2.352-8.113-.1-.366-.2-.738-.3-1.12-.2-.759-.4-1.524-.595-2.283q-.781-2.979-1.561-5.947c-.1-.388-.2-.77-.308-1.168q-1.689-6.42-3.515-12.8l-1.062,3.186-1.6.1c-.69.048-1.375.09-2.081.138L8.7,10.367c-1.6-.016-1.6-.016-2.209.7-.064.977-.1,1.954-.106,2.936-.011.627-.021,1.253-.032,1.9-.011.68-.021,1.365-.027,2.066s-.027,1.391-.037,2.108q-.04,2.772-.08,5.549c-.027,1.885-.058,3.77-.085,5.655Q6.04,36.842,5.963,42.4c-1.678.839-3.467.605-5.31.595C.069,43,.069,43-.531,43c-2.926-.005-2.926-.005-4.126-.6q-.016-8.2-.027-16.381,0-3.807-.011-7.6Q-4.7,14.74-4.7,11.074c0-.935-.005-1.869-.005-2.8q-.008-1.951-.005-3.913c0-.388-.005-.781-.005-1.179C-4.715-.066-4.715-.066-2.214-.135ZM-3.594.98V41.865H4.9c.005-.924.011-1.848.016-2.8Q4.949,34.482,5,29.9q.032-2.78.042-5.559c.011-2.124.037-4.253.064-6.382,0-.669.005-1.333.005-2.018.011-.616.021-1.232.032-1.869.005-.542.005-1.083.011-1.646A3.057,3.057,0,0,1,6.4,10.1a9.906,9.906,0,0,1,4.736-.993c1.094-.053,2.193-.112,3.319-.165V.98C10.11.544,10.11.544,6.431,2.5A9.466,9.466,0,0,0,4.37,5.228L3.839.98ZM14.99.98c1.338,5.841,2.8,11.613,4.439,17.379q.844,2.987,1.667,5.984c.223.786.441,1.577.658,2.363q.7,2.517,1.391,5.028c.117.43.234.86.356,1.3.228.818.451,1.635.674,2.453.457,1.646.924,3.244,1.513,4.853a11.877,11.877,0,0,1,.388,4.774c-.037.542-.069,1.078-.106,1.63a5.232,5.232,0,0,1-2.485,3.616,29.464,29.464,0,0,1-5.31.531v7.434c6.032.435,6.032.435,11.209-2.2,4.2-4.142,5.432-9.239,6.844-14.793.127-.5.26-1.009.393-1.529q1.043-4.11,2.055-8.225c1.216-4.933,2.543-9.829,3.919-14.714.292-1.041.584-2.087.876-3.127.287-1.025.579-2.044.865-3.069.271-.961.271-.961.547-1.938.239-.86.239-.86.489-1.736A57.384,57.384,0,0,0,46.318.98H37.291Q36.168,6.2,35.051,11.435q-.374,1.784-.759,3.558c-.366,1.7-.733,3.414-1.094,5.119-.117.526-.228,1.057-.345,1.6-.563,2.639-1.062,5.262-1.4,7.944H30.92c-.1-.494-.1-.494-.191-.993-1.322-6.754-2.7-13.492-4.189-20.215-.138-.621-.271-1.243-.414-1.885-.191-.866-.191-.866-.388-1.747-.117-.51-.228-1.019-.345-1.545A5.659,5.659,0,0,0,24.548.98Z" transform="translate(183.798 329.281)" fill="#211800"/>
      <path id="Path_28364" data-name="Path 28364" d="M0,0H6.9V40.355H0Z" transform="translate(25.688 322.295)" fill="#fcfc00"/>
      <path id="Path_28365" data-name="Path 28365" d="M-40.8,0c.165.425.335.844.5,1.28a43.172,43.172,0,0,0,4.274,8.278,38.995,38.995,0,0,1,2.655,7.434c-.791.265-.791.265-1.593.531v1.062h-1.062c-.244.494-.244.494-.5,1q-.542,1.091-1.094,2.188H-38.68c-.106.366-.218.727-.329,1.1a18.873,18.873,0,0,1-3.951,5.1,19.106,19.106,0,0,0-3.685,4.412H-69.478C-70,28.45-70,28.45-70.539,24.425a10.824,10.824,0,0,0-6.9-6.011A48.868,48.868,0,0,0-87,17.522V15.93h20.177l-1.062,4.779a8.533,8.533,0,0,0,1.593,6.372c3.457,2.1,6.69,1.848,10.62,1.827l2.023.032c4.492-.005,6.483-.324,9.685-3.451.3-.35.595-.7.9-1.062s.605-.7.919-1.062c2.4-3.165,2.15-6.228,1.869-10.089A57.31,57.31,0,0,0-41.866,6.9c-.154-.52-.3-1.041-.462-1.577q-.55-1.872-1.131-3.733C-42,0-42,0-40.8,0Z" transform="translate(361.72 342.472)" fill="#f5f500"/>
      <path id="Path_28366" data-name="Path 28366" d="M-19.91-1.672A9.465,9.465,0,0,1-16.963,2.74c.266,3.154.266,3.154.531,6.372H-42.45l.531-2.124,7.965-.531.531-2.124h-6.9L-39.8,2.74c5.257-.265,5.257-.265,10.62-.531l.531-2.124h-8.5C-33.03-4.024-24.864-4.741-19.91-1.672Z" transform="translate(306.019 365.751)" fill="#f5f500"/>
      <path id="Path_28367" data-name="Path 28367" d="M-9.849-.385C-7.6,1.409-6.653,3.725-5.5,6.284c.186.409.377.818.568,1.237a46.721,46.721,0,0,1,1.986,4.837c.419.064.834.127,1.264.2a59.564,59.564,0,0,1,8.825,1.927v2.124c-4.126.212-8.368.037-12.213-1.593a13.592,13.592,0,0,1-2.15-4.078c-.446-1.386-.446-1.386-2-2.358-.382-.154-.77-.308-1.163-.467-.133.414-.265.834-.4,1.264-.844,2.448-1.816,4.832-2.788,7.232L-21,15.544c.929-5.735,2.671-11.714,6.9-15.93A5.39,5.39,0,0,1-9.849-.385Z" transform="translate(311.118 324.273)" fill="#fafa00"/>
      <path id="Path_28368" data-name="Path 28368" d="M-.514,0c.85.074,1.7.154,2.554.234L3.479.361a10.4,10.4,0,0,1,2.91.7,8.883,8.883,0,0,1,.531,2.124c.377.09.754.175,1.147.265,1.71.4,3.414.818,5.124,1.227L15,5.1c.568.138,1.136.281,1.726.419.526.127,1.051.255,1.593.382a5.206,5.206,0,0,1,2.942,2.066,11.613,11.613,0,0,1,.133,2.82c-.021.839-.021.839-.042,1.694q-.231,4.651-.621,9.292H17.008V11.151H15.946V10.089c-.483-.016-.966-.027-1.46-.042C2.072,9.489,2.072,9.489-1.045,6.372A18.765,18.765,0,0,1-.514,0Z" transform="translate(290.102 342.472)" fill="#fafa00"/>
      <path id="Path_28369" data-name="Path 28369" d="M-3.227,0c.393,0,.786.005,1.195.005.584,0,.584,0,1.179-.005A13.927,13.927,0,0,1,3.872.605V49.987H8.651c.966.966.6,2.283.605,3.568-.005.4-.005.8-.005,1.211,0,.595,0,.595.005,1.205-.005,2.974-.005,2.974-.605,3.574-8.99.637-8.99.637-12.213-2.124A6.216,6.216,0,0,1-4.623,55.3H-5.685a19.835,19.835,0,0,1-1.189-8.267c0-.5-.005-1-.005-1.524q0-2.477.011-4.954V37.105q0-3.608.016-7.211.008-4.635.011-9.266,0-3.552.005-7.11V10.1q.008-2.373.016-4.758c0-.473-.005-.95-.005-1.439C-6.806.005-6.806.005-3.227,0ZM-5.685,1.136q-.072,9.988-.112,19.981-.016,4.635-.048,9.276-.032,4.476-.042,8.958-.008,1.7-.021,3.414c-.016,1.593-.016,3.191-.016,4.784-.011.473-.016.94-.027,1.423.027,3.568,1.1,5.411,3.483,8.082C-.4,58.86,1.913,58.541,4.5,58.514c.4-.005.8-.005,1.205-.005.982-.011,1.959-.016,2.942-.027V51.049c-.775-.08-1.556-.154-2.358-.234-2.352-.234-2.352-.234-2.952-.828-.064-1.519-.1-3.027-.106-4.545-.005-.478-.011-.956-.016-1.444-.021-1.582-.032-3.165-.048-4.752L3.14,35.964q-.04-4.333-.08-8.66-.04-4.412-.085-8.83Q2.887,9.807,2.81,1.136Z" transform="translate(87.657 312.665)" fill="#292900"/>
      <path id="Path_28370" data-name="Path 28370" d="M-1.341,0-.067.011c.68,0,.68,0,1.37.005.478,0,.956.005,1.444.011S3.708.032,4.2.032C5.386.042,6.576.048,7.76.058a103.032,103.032,0,0,1,3.52,13.211q.366,1.689.743,3.377.342,1.513.669,3.037a18.5,18.5,0,0,0,.908,3.207c.138-.616.281-1.232.425-1.864q.773-3.433,1.561-6.866c.223-.988.451-1.981.674-2.968q.478-2.135.972-4.269c.1-.446.2-.887.3-1.343.1-.414.191-.828.292-1.253.122-.547.122-.547.25-1.1a16.913,16.913,0,0,1,1.37-3.17L23.625.027c.393-.005.791-.011,1.2-.011C27.82,0,27.82,0,29,.589a68.577,68.577,0,0,1-1.922,10.089c-.143.558-.281,1.115-.425,1.683-1.131,4.428-2.389,8.814-3.7,13.195s-2.469,8.8-3.584,13.243c-.122.483-.25.966-.372,1.466-.112.425-.218.855-.324,1.3-.3.977-.3.977-.828,1.508-1.519.042-3.027.053-4.545.037-.43-.005-.855-.005-1.3-.011q-1.593-.008-3.186-.027A32.491,32.491,0,0,1,5.7,33.909c-.281-1.152-.563-2.31-.844-3.462-.138-.568-.276-1.131-.419-1.715-.526-2.113-1.1-4.211-1.694-6.3Q1.043,16.36-.6,10.28C-.763,9.685-.927,9.09-1.1,8.48c-.149-.563-.3-1.126-.457-1.71-.138-.5-.276-1-.414-1.513A42.3,42.3,0,0,1-2.86.589C-2.329.058-2.329.058-1.341,0ZM-1.8,1.12A80.871,80.871,0,0,0,.841,12.329c.9,2.968,1.673,5.958,2.405,8.968.919,3.77,1.938,7.487,3.058,11.2.94,3.143,1.752,6.313,2.517,9.5h8.5a63.791,63.791,0,0,0,2.82-9.122c.908-3.733,1.885-7.434,2.958-11.119q1.92-6.635,3.717-13.306c.244-.913.244-.913.5-1.837.149-.563.3-1.126.457-1.7.138-.5.271-1,.409-1.524a4.863,4.863,0,0,0,.292-2.273H19.441q-1,4.205-1.981,8.411c-.223.95-.451,1.9-.674,2.851A139.577,139.577,0,0,0,13.6,29.794c-.08-.584-.154-1.168-.239-1.768-1.243-9.085-3.5-17.984-5.6-26.9Z" transform="translate(115.628 329.138)" fill="#110600"/>
      <path id="Path_28371" data-name="Path 28371" d="M-1.876,0A8.8,8.8,0,0,1-.283,3.717H.779L1.31,4.779c1.1.207,2.2.4,3.313.579,5.57.913,5.57.913,7.413,2.639a18.178,18.178,0,0,1,1.487,4.216c.234.759.234.759.473,1.54,2.581,8.979,2.581,8.979,1.089,12.547a23.974,23.974,0,0,1-2.092,2.9L9.806,28.142c.021-.292.037-.589.058-.892,1.211-8.475,1.211-8.475-.972-16.11A7.224,7.224,0,0,0,4.921,9.3c-.52-.117-1.041-.228-1.577-.345S2.266,8.74,1.708,8.628L.046,8.273C-1.3,7.986-2.651,7.7-4,7.434c.149-.839.308-1.683.467-2.522.085-.467.17-.935.26-1.418A13.288,13.288,0,0,1-1.876,0Z" transform="translate(303.676 336.632)" fill="#f9f900"/>
      <path id="Path_28372" data-name="Path 28372" d="M-4.038-.1c.4-.005.8-.005,1.216-.011.855-.005,1.71-.005,2.565-.011,1.3-.005,2.586-.021,3.881-.037C4.458-.16,5.286-.16,6.114-.16L7.277-.182A13.106,13.106,0,0,1,15.921,2.5c.361.457.361.457.727.929.255.308.5.611.765.929,1.423,2.294,1.216,4.837,1.221,7.46.005.658.005.658.011,1.333.011,1.455.021,2.9.027,4.359,0,.5,0,.993.005,1.508q.016,3.943.021,7.89c.005,2.713.027,5.432.048,8.145q.016,3.13.021,6.271c0,1,.005,2,.016,3,.016,1.4.011,2.8.011,4.205.005.409.011.818.021,1.243a11.22,11.22,0,0,1-2.395,7.051c-3,2.565-6.329,2.74-10.094,2.729H5.089c-.86,0-1.72,0-2.581-.005q-1.983,0-3.966.005H-5.169c-2.777-.011-2.777-.011-3.366-.605-.053-.754-.069-1.519-.069-2.278,0-.489-.005-.982-.005-1.487,0-.818,0-.818.005-1.646,0-.568-.005-1.142-.005-1.726V42.217q0-4.118.005-8.23,0-5.3-.005-10.583V11.4c0-1.816,0-3.627.005-5.443,0-.542-.005-1.089-.005-1.646,0-.494.005-.982.005-1.492v-1.3C-8.44-.851-5.87-.086-4.038-.1ZM-8,1.071V58.418c18.016,1.869,18.016,1.869,23.363-2.124,2.22-2.565,2.432-4.54,2.395-7.784.005-.451.011-.9.016-1.37.005-1.481,0-2.968-.005-4.45,0-1.035.005-2.071.005-3.106q.008-3.25-.011-6.5-.016-4.158.005-8.321c.011-2.14.005-4.274,0-6.414,0-1.025,0-2.044.005-3.069.005-1.428,0-2.862-.016-4.29q.008-.629.016-1.274A8.753,8.753,0,0,0,15.359,3.2C10.012-.792,10.012-.792-8,1.071Z" transform="translate(24.137 312.726)" fill="#140100"/>
      <path id="Path_28373" data-name="Path 28373" d="M-11.594-.032h1.726c4.1.048,6.781.52,9.892,3.388,1.742,2.267,1.811,4.312,1.763,7.073V11.7c-.005.881-.011,1.763-.021,2.644-.021,1.354-.021,2.708-.027,4.062-.005.86-.011,1.715-.016,2.575-.005.611-.005.611-.005,1.232-.042,2.846-.042,2.846-.632,3.441-1.142.042-2.283.053-3.425.048-.69,0-1.386,0-2.1-.005-.738-.005-1.476-.005-2.214-.011s-1.476-.005-2.22-.011c-1.816-.005-3.632-.016-5.443-.021v7.965h5.841c-.016-.69-.027-1.381-.037-2.092s-.005-1.439.037-2.156c.531-.531.531-.531,1.466-.595.4.005.8.005,1.205.011.43,0,.86,0,1.3.005s.9.005,1.37.011c.451.005.908.005,1.375.011q1.681.008,3.372.027c.451,8.448.451,8.448-1.062,10.747-3.08,3.064-6.3,3.855-10.567,3.876l-1.683-.021-1.689.021c-3.435-.016-5.575-.366-8.363-2.411-2.177-2.352-2.719-4.046-2.761-7.2-.011-.908-.011-.908-.027-1.832q-.032-4.142-.058-8.294c-.005-1.455-.021-2.915-.042-4.37-.032-2.1-.037-4.205-.048-6.308-.011-.648-.021-1.3-.037-1.97.011-3.844.3-5.952,2.974-8.788C-18.539-.245-15.576-.122-11.594-.032ZM-22.447,4.747A7.047,7.047,0,0,0-23.961,9.77c-.005.568-.011,1.131-.016,1.71,0,.611,0,1.221-.005,1.853s-.005,1.253-.011,1.9c0,1.333-.005,2.66-.011,3.993,0,2.034-.021,4.062-.037,6.1,0,1.29-.005,2.581-.005,3.876-.011.605-.016,1.211-.021,1.837.011,3.457.127,6.117,2.6,8.767,3.414,2.612,5.713,2.443,9.935,2.48l1.827.048c3.409.021,5.565,0,8.135-2.336C.693,37.482,1.155,35.8,1.118,32.459c-.011-1.019-.021-2.039-.032-3.085h-8.5c-.08.685-.154,1.375-.234,2.087-.234,2.092-.234,2.092-.828,2.692-.977.048-1.949.064-2.92.064-.536,0-1.067.005-1.614.005-1.306-.069-1.306-.069-1.837-.6-.127-1.524-.228-3.027-.3-4.551-.074-1.476-.154-2.958-.228-4.476H1.086c.048-2.443.09-4.874.112-7.312q.016-1.243.048-2.485c.027-1.195.037-2.389.048-3.584.011-.366.021-.733.032-1.11A8.653,8.653,0,0,0-1.038,3.886C-4.431.9-6.868,1.1-11.265,1.062l-1.821-.048C-17.477.982-19.5,1.4-22.447,4.747Z" transform="translate(171.688 329.031)" fill="#120b00"/>
      <path id="Path_28374" data-name="Path 28374" d="M-11.594-.032h1.726c4.1.048,6.781.52,9.892,3.388,1.742,2.267,1.811,4.312,1.763,7.073V11.7c-.005.881-.011,1.763-.021,2.644-.021,1.354-.021,2.708-.027,4.062-.005.86-.011,1.715-.016,2.575-.005.611-.005.611-.005,1.232-.042,2.846-.042,2.846-.632,3.441-1.142.042-2.283.053-3.425.048-.69,0-1.386,0-2.1-.005-.738-.005-1.476-.005-2.214-.011s-1.476-.005-2.22-.011c-1.816-.005-3.632-.016-5.443-.021v7.965h5.841c-.016-.69-.027-1.381-.037-2.092s-.005-1.439.037-2.156c.531-.531.531-.531,1.466-.595.4.005.8.005,1.205.011.43,0,.86,0,1.3.005s.9.005,1.37.011c.451.005.908.005,1.375.011q1.681.008,3.372.027c.451,8.448.451,8.448-1.062,10.747-3.08,3.064-6.3,3.855-10.567,3.876l-1.683-.021-1.689.021c-3.435-.016-5.575-.366-8.363-2.411-2.177-2.352-2.719-4.046-2.761-7.2-.011-.908-.011-.908-.027-1.832q-.032-4.142-.058-8.294c-.005-1.455-.021-2.915-.042-4.37-.032-2.1-.037-4.205-.048-6.308-.011-.648-.021-1.3-.037-1.97.011-3.844.3-5.952,2.974-8.788C-18.539-.245-15.576-.122-11.594-.032ZM-22.447,4.747A7.047,7.047,0,0,0-23.961,9.77c-.005.568-.011,1.131-.016,1.71,0,.611,0,1.221-.005,1.853s-.005,1.253-.011,1.9c0,1.333-.005,2.66-.011,3.993,0,2.034-.021,4.062-.037,6.1,0,1.29-.005,2.581-.005,3.876-.011.605-.016,1.211-.021,1.837.011,3.457.127,6.117,2.6,8.767,3.414,2.612,5.713,2.443,9.935,2.48l1.827.048c3.409.021,5.565,0,8.135-2.336C.693,37.482,1.155,35.8,1.118,32.459c-.011-1.019-.021-2.039-.032-3.085h-8.5c-.08.685-.154,1.375-.234,2.087-.234,2.092-.234,2.092-.828,2.692-.977.048-1.949.064-2.92.064-.536,0-1.067.005-1.614.005-1.306-.069-1.306-.069-1.837-.6-.127-1.524-.228-3.027-.3-4.551-.074-1.476-.154-2.958-.228-4.476H1.086c.048-2.443.09-4.874.112-7.312q.016-1.243.048-2.485c.027-1.195.037-2.389.048-3.584.011-.366.021-.733.032-1.11A8.653,8.653,0,0,0-1.038,3.886C-4.431.9-6.868,1.1-11.265,1.062l-1.821-.048C-17.477.982-19.5,1.4-22.447,4.747Z" transform="translate(73.456 329.031)" fill="#0e0900"/>
      <path id="Path_28375" data-name="Path 28375" d="M-9,0C-5.04.032-2.305.26,1.056,2.405a44.987,44.987,0,0,1-7.4,4.912c-.446.255-.887.51-1.343.77q-2,1.147-4,2.283Q-12.85,11.031-14,11.7q-2.557,1.466-5.119,2.92c-.133-4.046-.133-4.046,1.062-5.841H-17c.138-.308.281-.611.43-.929a17.429,17.429,0,0,1,2.225-3.319h1.062c.138-.308.281-.611.43-.929C-11.146.372-11.146.372-9,0Z" transform="translate(338.977 362.368)" fill="#fafa00"/>
      <path id="Path_28376" data-name="Path 28376" d="M0,0H7.965C9.255,1.29,9.154,1.981,9.17,3.743c0,.372-.005.743-.005,1.126s.005.786.005,1.189c.005,1.3,0,2.6,0,3.9v2.7c0,1.89,0,3.775-.005,5.666q-.008,3.64.005,7.274c.005,1.864,0,3.722,0,5.581v2.681c.005,1.253,0,2.5-.005,3.749,0,.372.005.743.005,1.126-.021,2.559-.021,2.559-1.205,3.743H0ZM1.062,1.062V41.417h6.9V1.062Z" transform="translate(24.626 321.233)" fill="#1d0a00"/>
      <path id="Path_28377" data-name="Path 28377" d="M-3.175-.058c.595.005.595.005,1.2.005.589,0,.589,0,1.195-.005,2.952.005,2.952.005,4.147.605Q3.39,2.785,3.4,5.023c.005.43.011.855.016,1.3C3.42,7.4,3.393,8.485,3.366,9.574c-.961.961-2.267.6-3.547.6-.589,0-.589,0-1.2-.005-.589.005-.589.005-1.189.005-2.952-.005-2.952-.005-4.152-.6q-.016-2.246-.032-4.482-.008-.637-.016-1.29c0-1.089.021-2.172.048-3.255C-5.761-.419-4.455-.058-3.175-.058Z" transform="translate(106.216 312.723)" fill="#f90000"/>
      <path id="Path_28378" data-name="Path 28378" d="M-12.574-.02c1.635.573,2.012,1.131,2.92,2.591a12.654,12.654,0,0,1-.393,8.586,10.492,10.492,0,0,1-6.828,4.423,8.733,8.733,0,0,1-7.115-2.389c-1.487-1.444-2.591-2.581-2.82-4.715.053-.372.106-.743.165-1.126.876-.35,1.752-.706,2.655-1.062a44.608,44.608,0,0,1,2.124,5.31c4.227.366,4.227.366,8.1-1.03a7.946,7.946,0,0,0,.929-6.4A14.32,14.32,0,0,0-15.495.978C-13.9-.084-13.9-.084-12.574-.02Z" transform="translate(351.278 369.639)" fill="#f9f900"/>
      <path id="Path_28379" data-name="Path 28379" d="M-3.2,0C-2.6.005-2.6.005-2,.005c.589,0,.589,0,1.195-.005C2.151.005,2.151.005,3.346.605V42.553c-1.683.839-3.494.605-5.342.595-.4.005-.791.005-1.2.005-2.947-.005-2.947-.005-3.547-.6-.053-1.306-.069-2.6-.069-3.9V37.413c-.005-1.359,0-2.713,0-4.073V24.616c.005-2.527,0-5.06,0-7.588-.005-1.938,0-3.876,0-5.814v-2.8c-.005-1.3,0-2.6,0-3.9V3.324C-6.8-.005-6.515.005-3.2,0ZM-5.681,1.136V42.022h8.5V1.136Z" transform="translate(106.237 329.125)" fill="#110"/>
      <path id="Path_28380" data-name="Path 28380" d="M-.469-.085c1.4-.027,2.788-.048,4.184-.064l1.2-.032c1.035-.005,2.076.042,3.112.1A5.174,5.174,0,0,1,9.7,3.292c.106.478.212.956.319,1.45.165.775.165.775.335,1.566s.175.791.356,1.6c.372,1.694.738,3.382,1.1,5.076q.382,1.72.754,3.441.924,4.221,1.837,8.443a71.383,71.383,0,0,0,2.66-9.526c.09-.425.181-.855.276-1.3.281-1.349.568-2.7.844-4.046q.43-2.047.866-4.094c.175-.839.35-1.689.526-2.533C20.181.5,20.181.5,20.77-.085c.712-.048,1.428-.058,2.145-.053.425.005.855.005,1.3.005l1.365.016c.457,0,.908.005,1.375.005,1.126.005,2.246.016,3.372.027.871,2.156.149,4.035-.462,6.165-.106.388-.212.77-.324,1.168-.34,1.232-.69,2.458-1.041,3.685-.234.834-.462,1.667-.7,2.5q-.852,3.066-1.726,6.128c-.812-2.092-.223-3.86.345-5.931q.143-.542.287-1.1.462-1.728.929-3.457c.207-.786.414-1.566.621-2.352Q29.019,3.847,29.8.977H20.77c-.1,1.041-.1,1.041-.207,2.1a69.544,69.544,0,0,1-1.269,7.317c-.09.425-.181.85-.276,1.29q-.43,2.015-.871,4.03C16.915,21.4,15.715,27.064,14.93,32.836H14.4c-.08-.425-.159-.85-.244-1.285C12.567,23.135,10.9,14.746,9,6.4c-.191-.844-.191-.844-.388-1.7-.112-.489-.223-.982-.34-1.487A7.335,7.335,0,0,1,8.027.977H-1Z" transform="translate(200.32 329.283)" fill="#0c0600"/>
      <path id="Path_28381" data-name="Path 28381" d="M0-.118Q3.751-.182,7.5-.2C8.347-.214,9.2-.224,10.041-.24A62.588,62.588,0,0,1,26.549,1.475c.265.791.265.791.531,1.593H0Z" transform="translate(271.534 352.679)" fill="#fefe00"/>
      <path id="Path_28382" data-name="Path 28382" d="M-4.829,0l2.655.531c-.048,1.5-.1,3.011-.165,4.513-.021.632-.021.632-.037,1.274A21.447,21.447,0,0,1-4.3,14.337c-3.866-.319-3.866-.319-5.31-1.126-1.158-2.177-.642-4.535,0-6.807l.531-1.625h1.062V3.717l2.655-.531Z" transform="translate(306.629 354.685)" fill="#f9f900"/>
      <path id="Path_28383" data-name="Path 28383" d="M-8.911-.467A38.351,38.351,0,0,1-7.318,3.25,4.355,4.355,0,0,0-5.194,4.312C-7.186,6.9-7.186,6.9-8.38,7.5c-2.692.335-4.662.473-6.9-1.163a13.827,13.827,0,0,1-2.124-4.147L-19,2.719V1.657L-16.345.595V3.25h1.593c-.053-.4-.112-.812-.165-1.227.165-1.428.165-1.428,1.29-2.427A5.248,5.248,0,0,1-8.911-.467Z" transform="translate(344.163 374.268)" fill="#1b1b03"/>
      <path id="Path_28384" data-name="Path 28384" d="M0,0H23.363c.265,1.051.265,1.051.531,2.124-.531.531-.531.531-1.481.595-.414,0-.828,0-1.253-.005H19.742c-.51,0-1.019-.005-1.54-.005S17.167,2.7,16.63,2.7c-1.662,0-3.319-.005-4.981-.016-1.126,0-2.246-.005-3.372-.005Q4.136,2.674,0,2.655Z" transform="translate(238.082 361.057)" fill="#181803"/>
      <path id="Path_28385" data-name="Path 28385" d="M0-.109a10.316,10.316,0,0,1,3.186,0A10.952,10.952,0,0,1,4.779,2.546c.956,1.179.956,1.179,2.273,1.184l1.412-.021L9.871,3.7a5.947,5.947,0,0,0,2.873-.621A16.5,16.5,0,0,0,13.806-.109h3.186c-.25,2.214-.558,3.68-2.124,5.31H13.806V6.263A11.883,11.883,0,0,1,5.841,7.325,23.016,23.016,0,0,1,.531,3.077C.319,2.02.138.958,0-.109Z" transform="translate(268.348 377.626)" fill="#f9f900"/>
      <path id="Path_28386" data-name="Path 28386" d="M-2.157,0C-1.308,0-.453.005.4.011H1.751l4.3.016c.972.005,1.938.005,2.91.005q3.576.016,7.147.027c.26,1.317.26,1.317.531,2.655H-4.6C-4.6.08-4.6.08-2.157,0Z" transform="translate(250.648 356.749)" fill="#0a0a01"/>
      <path id="Path_28387" data-name="Path 28387" d="M0,0H5.841V7.434H0Z" transform="translate(157.372 338.756)" fill="#fefe00"/>
      <path id="Path_28388" data-name="Path 28388" d="M0,0H5.841V7.434H0Z" transform="translate(59.14 338.756)" fill="#fefe00"/>
      <path id="Path_28389" data-name="Path 28389" d="M-7.035,0l-.531,7.434h-5.841c-.106-1.349-.207-2.7-.313-4.046S-13.832,2.028-15,1.062c.727-.181,1.46-.356,2.188-.531.409-.1.818-.2,1.237-.3A19.217,19.217,0,0,1-7.035,0Z" transform="translate(334.322 335.039)" fill="#efef00"/>
      <path id="Path_28390" data-name="Path 28390" d="M-3.175-.058c.595.005.595.005,1.2.005.589,0,.589,0,1.195-.005,2.952.005,2.952.005,4.147.605Q3.39,2.785,3.4,5.023c.005.43.011.855.016,1.3C3.42,7.4,3.393,8.485,3.366,9.574c-.961.961-2.267.6-3.547.6-.589,0-.589,0-1.2-.005-.589.005-.589.005-1.189.005-2.952-.005-2.952-.005-4.152-.6q-.016-2.246-.032-4.482-.008-.637-.016-1.29c0-1.089.021-2.172.048-3.255C-5.761-.419-4.455-.058-3.175-.058ZM-5.66,1.078V9.043h8.5V1.078Z" transform="translate(106.216 312.723)" fill="#100b00"/>
      <path id="Path_28391" data-name="Path 28391" d="M-2.209,0c.52.005,1.041.005,1.577.011C-.112.005.408.005.945,0,2.288.143,2.288.143,3.35,1.205c.074,1.455.1,2.857.064,4.312-.005.4-.005.8-.011,1.216-.016.988-.032,1.975-.053,2.968H-4.615c-.032-1.4-.048-2.788-.069-4.184-.005-.4-.016-.791-.027-1.2-.005-1.041.042-2.076.1-3.112C-3.553.143-3.553.143-2.209,0ZM-3.553,1.205V8.639H2.288V1.205Z" transform="translate(160.926 337.553)" fill="#191700"/>
      <path id="Path_28392" data-name="Path 28392" d="M-2.209,0c.52.005,1.041.005,1.577.011C-.112.005.408.005.945,0,2.288.143,2.288.143,3.35,1.205c.074,1.455.1,2.857.064,4.312-.005.4-.005.8-.011,1.216-.016.988-.032,1.975-.053,2.968H-4.615c-.032-1.4-.048-2.788-.069-4.184-.005-.4-.016-.791-.027-1.2-.005-1.041.042-2.076.1-3.112C-3.553.143-3.553.143-2.209,0ZM-3.553,1.205V8.639H2.288V1.205Z" transform="translate(62.694 337.553)" fill="#191700"/>
      <path id="Path_28393" data-name="Path 28393" d="M-5.539,0-3.67.013l1.418.016C-3.468,3.263-3.468,3.263-5.438,4.277a8.771,8.771,0,0,1-3.717,0A11.035,11.035,0,0,1-11.81,1.622V.56A25.11,25.11,0,0,1-5.539,0Z" transform="translate(308.832 316.424)" fill="#f9f900"/>
      <path id="Path_28394" data-name="Path 28394" d="M-2.955-.037c1.561.43,1.561.43,2.623,2.023A7.306,7.306,0,0,1-.863,4.641C-2.456,5.7-2.456,5.7-3.815,5.57A3.853,3.853,0,0,1-6.173,4.11a10.02,10.02,0,0,1,0-3.186C-4.58-.138-4.58-.138-2.955-.037Z" transform="translate(336.647 373.406)" fill="#fcfc00"/>
      <path id="Path_28395" data-name="Path 28395" d="M-.469,0,2.717,1.593V2.655L6.434,3.717V4.779c.441.149.881.292,1.333.446L17.584,8.5V9.558C10.751,8.952,4.894,5.358-1,2.124Z" transform="translate(120.141 76.449)" fill="#ffc8c8"/>
      <path id="Path_28396" data-name="Path 28396" d="M0,0,.531,1.062c9.728.265,9.728.265,19.646.531V5.841L19.115,5.31V2.655c-.786.011-.786.011-1.582.016-1.938.021-3.876.032-5.814.042-.839.005-1.678.011-2.517.021-1.211.016-2.416.021-3.621.027l-1.136.016A6.321,6.321,0,0,1,0,1.593Z" transform="translate(241.268 370.615)" fill="#474703"/>
      <path id="Path_28397" data-name="Path 28397" d="M0,0,18.053.531l-.531,2.124a6.762,6.762,0,0,1-4.45.86c-.425-.159-.425-.159-.86-.329L15.4,2.124l-1.184-.08c-1.773-.122-3.547-.255-5.32-.388-.616-.037-1.232-.08-1.864-.122L5.236,1.4c-.547-.037-1.089-.074-1.651-.117C2.124,1.062,2.124,1.062,0,0Z" transform="translate(162.682 84.945)" fill="#ffaeae"/>
      <path id="Path_28398" data-name="Path 28398" d="M-5.628-.093A10.54,10.54,0,0,1-3.5,2.031c-1.062,1.062-3.09.749-4.545.828-.568.037-.568.037-1.147.069-.935.058-1.869.112-2.8.165.945-2.039.945-2.039,1.991-2.788A8.9,8.9,0,0,1-5.628-.093Z" transform="translate(309.021 311.238)" fill="#f0f000"/>
      <path id="Path_28399" data-name="Path 28399" d="M-9.38,0l1.062.531Q-10.556,2.8-12.8,5.066c-.5.515-1.014,1.03-1.519,1.55q-1.091,1.107-2.193,2.209c-.441.446-.876.892-1.333,1.349-1.094.977-1.094.977-2.156.977.866-2.2,2.458-3.658,4.115-5.278.271-.271.547-.542.823-.823C-13.246,3.255-11.361,1.609-9.38,0Z" transform="translate(134.363 135.92)" fill="#ffcfcf"/>
      <path id="Path_28400" data-name="Path 28400" d="M0-.094q1.824-.04,3.653-.064L5.7-.2C7.434-.094,7.434-.094,8.5.968,6.648,2.1,5.2,2.142,3.053,2.094c-.573-.005-1.147-.016-1.736-.027C.881,2.057.446,2.041,0,2.03Z" transform="translate(305.517 366.992)" fill="#dbdb00"/>
      <path id="Path_28401" data-name="Path 28401" d="M-3.752,0-2.69.531l-.531,1.062H7.93v.531q-2.636.271-5.278.531c-.489.053-.982.1-1.487.154A78.868,78.868,0,0,1-8,3.186V2.124c.685-.372,1.37-.733,2.06-1.094C-5.563.823-5.18.621-4.788.414-4.442.276-4.1.138-3.752,0Z" transform="translate(17.228 89.724)" fill="#ff4a4a"/>
      <path id="Path_28402" data-name="Path 28402" d="M-2.382,0h.531A36.33,36.33,0,0,1-2.913,10.089l-.531.531c-.212,1.338-.4,2.671-.563,4.014-.048.377-.1.754-.149,1.147l-.35,2.8h-.531A45.8,45.8,0,0,1-3.71,6.308c.127-.611.255-1.221.382-1.848Q-2.858,2.23-2.382,0Z" transform="translate(244.712 241.054)" fill="#ff8484"/>
      <path id="Path_28403" data-name="Path 28403" d="M-3.283,0H-1.69l.531,2.655L-1.69,1.593A6.975,6.975,0,0,0-4.08,5.512,18.387,18.387,0,0,1-6.469,10.62L-7,9.558a13.437,13.437,0,0,1,.961-1.922A24.889,24.889,0,0,0-3.814,1.062Z" transform="translate(168.089 133.265)" fill="#ffe351"/>
      <path id="Path_28404" data-name="Path 28404" d="M-7.5-.263-8.455.2a16.335,16.335,0,0,0-6.483,5.374L-16,5.047C-14.046,1.973-11.609-1.627-7.5-.263Z" transform="translate(163.284 329.992)" fill="#312300"/>
      <path id="Path_28405" data-name="Path 28405" d="M-7.5-.263-8.455.2a16.335,16.335,0,0,0-6.483,5.374L-16,5.047C-14.046,1.973-11.609-1.627-7.5-.263Z" transform="translate(65.052 329.992)" fill="#312300"/>
      <path id="Path_28406" data-name="Path 28406" d="M0,0H3.186c.021.887.021,1.768,0,2.655-.531.531-.531.531-1.89.563L0,3.186Z" transform="translate(268.348 328.667)" fill="#696904"/>
      <path id="Path_28407" data-name="Path 28407" d="M0,0A7.712,7.712,0,0,1,3.085,2.124C4.588,3.5,6.005,3.8,7.965,4.248V5.31c-3.25-.2-4.667-.95-6.9-3.186V1.062H0Z" transform="translate(81.973 366.898)" fill="#332600"/>
      <path id="Path_28408" data-name="Path 28408" d="M-3.391,0C-2.754,0-2.754,0-2.1,0S-1.437.01-.757.021c.446,0,.9,0,1.359.005,1.1.005,2.214.016,3.319.027V.583Q2.033.854.135,1.114c-.35.048-.706.1-1.067.154a39.064,39.064,0,0,1-6.3.377V.583A10.149,10.149,0,0,1-3.391,0Z" transform="translate(13.803 92.328)" fill="#ffaeae"/>
      <path id="Path_28409" data-name="Path 28409" d="M0,0C.3.393.589.791.9,1.195A22.787,22.787,0,0,0,4.779,4.779L5.841,5.841c-2.512,0-2.984-.473-4.779-2.124C0,2.124,0,2.124,0,0Z" transform="translate(49.583 365.305)" fill="#2a1d00"/>
      <path id="Path_28410" data-name="Path 28410" d="M-.929,0A6.13,6.13,0,0,1,0,4.614c-.069.627-.069.627-.143,1.264-.085.34-.17.68-.255,1.025-.526.265-.526.265-1.062.531-.117-.839-.228-1.683-.329-2.522-.064-.467-.127-.935-.191-1.418A5.6,5.6,0,0,1-.929,0Z" transform="translate(130.159 352.03)" fill="#2e1400"/>
      <path id="Path_28411" data-name="Path 28411" d="M0,0A10.9,10.9,0,0,1,5.474,4.943c.181.446.181.446.366.9-2.129-.712-2.846-2-4.248-3.717L0,1.062Z" transform="translate(167.461 329.729)" fill="#2e1d00"/>
      <path id="Path_28412" data-name="Path 28412" d="M0,0A10.9,10.9,0,0,1,5.474,4.943c.181.446.181.446.366.9-2.129-.712-2.846-2-4.248-3.717L0,1.062Z" transform="translate(69.229 329.729)" fill="#2e1d00"/>
      <path id="Path_28413" data-name="Path 28413" d="M-4.221,0h1.062c-.25,2.267-1.492,3.356-3.186,4.779A9.4,9.4,0,0,1-9,5.31c.393-.287.791-.568,1.195-.86A19.6,19.6,0,0,0-4.221,0Z" transform="translate(45.308 365.836)" fill="#241700"/>
      <path id="Path_28414" data-name="Path 28414" d="M0,0H5.31C3.717,1.593,3.717,1.593,2.358,1.795c-.43-.069-.855-.133-1.3-.2Z" transform="translate(274.189 377.517)" fill="#f8f800"/>
      <path id="Path_28415" data-name="Path 28415" d="M-5.159-.768V.294A13.462,13.462,0,0,1-11-1.3C-8.743-2.053-7.432-1.4-5.159-.768Z" transform="translate(142.885 85.713)" fill="#ff9494"/>
      <path id="Path_28416" data-name="Path 28416" d="M-.938,0c.1.51.1.51.2,1.03.159.542.159.542.329,1.094l1.062.531A29.255,29.255,0,0,1-.938,5.31H-2Q-1.466,2.658-.938,0Z" transform="translate(150.346 41.404)" fill="#ffc5c5"/>
      <path id="Path_28417" data-name="Path 28417" d="M-.938,0,1.717,1.593,1.186,4.248.655,2.124-2,3.186Z" transform="translate(299.021 338.225)" fill="#2b2b05"/>
      <path id="Path_28418" data-name="Path 28418" d="M0,0H1.593l.531,1.593H1.062V5.31H.531Z" transform="translate(111.177 162.469)" fill="#ffe55f"/>
      <path id="Path_28419" data-name="Path 28419" d="M-2.345,0V1.593l1.062,1.062L-5,3.186C-4.4,1.381-3.869,1.035-2.345,0Z" transform="translate(207.506 81.759)" fill="#ffc2c2"/>
      <path id="Path_28420" data-name="Path 28420" d="M-.469,0l5.31.531v.531L-1,1.593Z" transform="translate(188.107 91.848)" fill="#ff4242"/>
    </g>
  </g>
</svg>
