<svg id="splashlogo" xmlns="http://www.w3.org/2000/svg" width="151.158" height="168.821" viewBox="0 0 151.158 168.821">
  <path id="Path_28343" data-name="Path 28343" d="M-16.256-.411l.629,0h.69c.243,0,.485,0,.737,0h2.465l1.777,0,4.386,0q2.625,0,5.251,0,6.343-.01,12.69-.013l4.2,0q11.172-.01,22.345-.013l5.177,0h.649q10.431,0,20.86-.02Q76.321-.494,87.043-.5h3.629q4.8,0,9.594-.011,4.82-.01,9.639-.007,2.865,0,5.729-.007,1.914,0,3.826,0,1.092,0,2.179,0c.784,0,1.568,0,2.352,0,.225,0,.449,0,.679-.009A6.924,6.924,0,0,1,128.758.742a4.872,4.872,0,0,1,1.38,3.916c0,.218,0,.218,0,.438,0,.485,0,.968,0,1.454,0,.346,0,.694,0,1.04q0,1.416,0,2.831c0,.589,0,1.18,0,1.768q.007,2.767.007,5.536,0,3.192.011,6.386.007,2.47.007,4.941,0,1.473.007,2.948.007,1.389,0,2.775c0,.339,0,.679,0,1.016,0,.465,0,.928,0,1.393v.784a4.922,4.922,0,0,1-1.881,3.442,4.588,4.588,0,0,1-2.8.928c-.31,0-.31,0-.627,0-.344,0-.344,0-.692,0-.366,0-.366,0-.737,0h-2.469l-1.777,0q-2.194,0-4.39,0l-5.255,0q-6.353.007-12.7.007l-6.008,0-20.556.007H64.46q-10.438,0-20.878.009-11.031.01-22.062.009H18.5q-4.8,0-9.6.007-4.826,0-9.648,0-2.868,0-5.736,0-1.914,0-3.829,0-1.089,0-2.182,0c-.784,0-1.566,0-2.35,0-.227,0-.454,0-.685,0a5.326,5.326,0,0,1-3.943-1.3,5.132,5.132,0,0,1-1.436-3.8c0-.144,0-.29,0-.438q0-.728,0-1.454c0-.348,0-.694,0-1.043q0-1.416,0-2.833c0-.589,0-1.18,0-1.771q0-2.767-.007-5.539,0-3.2-.011-6.392-.007-2.47-.007-4.943,0-1.473-.007-2.95,0-1.389,0-2.777c0-.339,0-.679,0-1.018,0-.465,0-.928,0-1.393V3.959A5.5,5.5,0,0,1-18.622.124,3.987,3.987,0,0,1-16.256-.411Z" transform="translate(20.968 126.425)" fill="#fdfd00"/>
  <path id="Path_28346" data-name="Path 28346" d="M-189.657-6.621c.33.254.658.51.984.773.211.153.425.306.645.463A7.206,7.206,0,0,1-186.651-3.6v.449h.449a17.837,17.837,0,0,1,1.573,11.459c-.151.222-.3.445-.449.674q-.2.576-.366,1.164c-.058.2-.117.407-.177.616-.065.231-.065.231-.13.467h.449c.052-.16.1-.317.157-.481A8.035,8.035,0,0,1-183.8,8.784l.328-.38A43.056,43.056,0,0,1-172.5-.68l.813-.512a25.136,25.136,0,0,1,7.5-2.858c.153-.043.306-.083.465-.126a11.332,11.332,0,0,1,8.183,1.564,10.064,10.064,0,0,1,3.26,3.28v.449h.449c1.305,2.476,2.445,4.9,1.633,7.765q-.222.546-.472,1.081a18.68,18.68,0,0,0-.728,2.051c-1.526,4.307-4.678,7.934-7.624,11.347-.151.173-.3.348-.452.528-.856.993-1.757,1.926-2.694,2.842q-.34.337-.674.674,1.341-.361,2.681-.73l.762-.2a21.463,21.463,0,0,0,3.779-1.355,5.65,5.65,0,0,1,1.766-.407V24.26c.18-.083.359-.169.546-.254,4.444-2.242,7.437-6.078,10.374-9.956,1.022-1.346,2.072-2.642,3.218-3.887.422-.461.831-.93,1.238-1.407,2.391-2.734,5.181-5.494,8.666-6.741h.674V1.567A58.541,58.541,0,0,1-123.025-.3c.153-.034.306-.07.465-.108a22.009,22.009,0,0,1,4.615-.548c.247,0,.247,0,.5-.007.537,0,1.072-.009,1.609-.011.184,0,.366,0,.555,0a54.678,54.678,0,0,1,10.189.973V.668l-.858.337-.481.189a2.477,2.477,0,0,1-1.132.148v.449c-3.451,1.573-3.451,1.573-4.494,1.573v.449l-.373.115a25.51,25.51,0,0,0-3.235,1.285,2.027,2.027,0,0,1-1.11.173v.449l-.407.108a23.463,23.463,0,0,0-3.7,1.4c-.784.362-1.586.674-2.393.982a3.612,3.612,0,0,0-1.144.652h-.674v.449l-.4.142a28.366,28.366,0,0,0-4.532,2.287l-.688.4a119.229,119.229,0,0,0-10.336,6.83l-.984.715c-1.874,1.368-3.73,2.748-5.516,4.229-2.467,2.022-2.467,2.022-3.386,2.022-.074.222-.151.445-.225.674a5.2,5.2,0,0,1-.993.436l-.62.231-.634.231-.562.218a44.3,44.3,0,0,1-9.059,2.352c-.173.027-.346.056-.526.085-1.93.308-3.856.575-5.806.715a1.781,1.781,0,0,1,1-1.249c4.112-3,7.188-8.154,8.891-12.906.121-.328.121-.328.247-.661.928-2.582,1.905-6.269.735-8.9a4.566,4.566,0,0,0-1.881-1.672c-.074-.148-.151-.3-.225-.449a15.6,15.6,0,0,0-11.088.6,32.3,32.3,0,0,0-8.684,6.361c-9.158,8.313-9.158,8.313-11.908,8.313.133-.568.27-1.135.407-1.7.036-.16.074-.317.112-.481a16.8,16.8,0,0,1,1.054-2.988c.083-.3.164-.6.225-.9h.449c.016-.2.016-.2.031-.4a8.729,8.729,0,0,1,.643-2.741,9.1,9.1,0,0,0-.9-6.741,5.349,5.349,0,0,0-3.595-2.247c-2.092-.171-3.842-.186-5.527,1.128a7.789,7.789,0,0,0-3.078,5.8,11.867,11.867,0,0,0,2.764,8.122c.364.384.737.759,1.123,1.123l.407.407a14.444,14.444,0,0,0,4.087,2.514v.449l.674.169a11.417,11.417,0,0,1,2.213.941c.5.245,1,.447,1.521.645a30.459,30.459,0,0,1,2.782,1.278,23.739,23.739,0,0,0,6.049,2.2,7.625,7.625,0,0,1,1.314.384,9.153,9.153,0,0,0,2.233.366c.279.018.557.038.847.056l.874.054.89.058c.723.049,1.447.094,2.173.139-5.049,3.364-13.62,3.092-19.323,2.022-.267-.043-.535-.083-.811-.126a43.958,43.958,0,0,1-10.756-3.146,15.112,15.112,0,0,0-2.687-.773,23.89,23.89,0,0,1-3.721-1.123c-.3-.079-.6-.155-.9-.225V24.26l-.463-.074a16.721,16.721,0,0,1-3.035-.741,10.149,10.149,0,0,0-7.042.308,11.362,11.362,0,0,0-4.384,4.26c-.355.517-.355.517-.869.708l-.625.074-.723.094-.834.09c-.328.036-.656.072-.984.11l-1.571.171c-1.705.184-3.386.463-5.069.789a52.223,52.223,0,0,1-8.329.728v-.449c.252-.112.5-.225.764-.339l1.018-.461c.166-.074.33-.146.5-.22a16.5,16.5,0,0,0,3.559-2.35q.536-.408,1.076-.813l.55-.409.562-.422c1.175-.874,2.343-1.75,3.489-2.66a35.3,35.3,0,0,1,7.354-4.458c.144-.067.29-.133.44-.2,3.444-1.429,7.592-1.114,11.228-.739l.488.047a9.076,9.076,0,0,1,2.9.894c.292.1.586.186.883.265l.69.184v.449c.189.022.38.045.575.07a10.449,10.449,0,0,1,2.346.829l.521.2a22.023,22.023,0,0,1,2,.98l.721.382c.611.339,1.186.717,1.766,1.11,1.049.708,2.132,1.33,3.242,1.935.2.106.393.213.6.324a27.837,27.837,0,0,0,7.1,2.934v-.449c-.135-.02-.267-.04-.407-.058a15.045,15.045,0,0,1-4.312-1.514v-.449l-.521-.072a2.1,2.1,0,0,1-1.276-.827c-.238-.128-.476-.258-.721-.391a10.023,10.023,0,0,1-2.285-1.842l-.384-.391a21.969,21.969,0,0,1-6.046-12.2c-.04-.252-.081-.5-.124-.764-.44-3.471-.339-7.828,1.472-10.92.1-.191.2-.38.312-.575,1.557-2.669,3.6-4.876,6.653-5.716A10.432,10.432,0,0,1-189.657-6.621Z" transform="translate(248.526 8.539)" fill="#fff"/>
  <path id="Path_28347" data-name="Path 28347" d="M-78.352,0h.674c.038.126.076.249.117.38a14.43,14.43,0,0,0,.993,2.5A18.384,18.384,0,0,1-75.42,5.862c.184.566.386,1.114.607,1.665a3.345,3.345,0,0,1,.281,1.685h.449c1.332,3.312,1.332,3.312,1.712,4.339.456,1.22.944,2.427,1.433,3.631q.607,1.5,1.18,3.013c.076.2.151.4.229.6a3.448,3.448,0,0,1,.164,1.449h.9v-.449c.447-.353.894-.676,1.362-1q.431-.3.861-.6l.456-.319c.476-.337.944-.681,1.411-1.029l.461-.342c.3-.222.593-.443.888-.667C-62,17.076-62,17.076-61.5,17.076v-.449a8.068,8.068,0,0,1,.919-.683c.189-.13.38-.261.577-.4s.4-.27.611-.409.4-.276.6-.418c1.5-1.016,1.5-1.016,2.006-1.016v-.449c1.216-.9,1.216-.9,1.8-.9a3.573,3.573,0,0,1-.317,1.923,14.426,14.426,0,0,0-.737,3.244c-.043.294-.043.294-.088.593q-.1.715-.207,1.429h-.449c.009.191.018.38.027.575a6.471,6.471,0,0,1-.333,1.854,38.354,38.354,0,0,0-1.043,4.761h-.449c.007.411.007.411.013.829a8.213,8.213,0,0,1-.238,2.092h-.449c0,.249.009.5.013.759a1.987,1.987,0,0,1-.238,1.263c-.04.351-.072.7-.1,1.054a12.117,12.117,0,0,1-.575,2.766H-60.6l-.225,2.921h-.449c.007.355.007.355.013.717a9.425,9.425,0,0,1-.238,1.979q-6.41.007-12.821.011-2.976,0-5.952.007-2.592,0-5.186,0l-2.748,0h-2.582l-.95,0h-2.027c-.539-.027-.539-.027-.764-.252q-.013-.674,0-1.348h-.449c-.02-.128-.038-.256-.058-.389q-.131-.866-.265-1.732c-.029-.2-.061-.4-.092-.611-.043-.288-.043-.288-.09-.582-.027-.178-.054-.355-.081-.537-.047-.42-.047-.42-.312-.643q-.014-.674,0-1.348h-.449c-.045-.29-.092-.58-.139-.876-.061-.377-.124-.755-.184-1.132-.029-.191-.061-.382-.092-.577s-.058-.364-.09-.55c-.027-.169-.054-.337-.081-.51-.052-.4-.052-.4-.312-.622-.009-.524-.009-1.049,0-1.573h-.449c-.027-.177-.054-.353-.083-.535a28.293,28.293,0,0,0-.816-3.734c-.234-.971-.454-1.946-.674-2.921l-.506-2.184q-.175-.762-.346-1.523c-.056-.254-.115-.51-.173-.773-.052-.229-.1-.458-.155-.694a9.06,9.06,0,0,0-.411-1.386,4.26,4.26,0,0,1-.207-1.753c.674,0,.674,0,1.171.481l.627.643c.557.452,1.132.872,1.712,1.292.227.166.227.166.456.337A6.451,6.451,0,0,0-95.2,16.177v.449l.4.191a7.391,7.391,0,0,1,1.225.807c1.087.834,2.22,1.6,3.357,2.361a21.985,21.985,0,0,1,2.047,1.535,2.05,2.05,0,0,0,1.281.723c.027-.2.052-.391.081-.593a9.383,9.383,0,0,1,.663-2.06c.151-.351.151-.351.3-.71q.391-.883.793-1.762a15.208,15.208,0,0,0,.856-2.514h.449c.02-.306.02-.306.043-.618a11.5,11.5,0,0,1,1.02-2.993c.351-.811.656-1.629.959-2.456q.189-.506.38-1.011c.1-.258.193-.519.294-.786h.449l.225-1.8h.449c.022-.236.047-.472.07-.717a4.937,4.937,0,0,1,.829-1.979c.178-.593.31-1.193.449-1.8Z" transform="translate(148.09 56.391)" fill="#fff"/>
  <path id="Path_28348" data-name="Path 28348" d="M-16.256-.411l.629,0h.69c.243,0,.485,0,.737,0h2.465l1.777,0,4.386,0q2.625,0,5.251,0,6.343-.01,12.69-.013l4.2,0q11.172-.01,22.345-.013l5.177,0h.649q10.431,0,20.86-.02Q76.321-.494,87.043-.5h3.629q4.8,0,9.594-.011,4.82-.01,9.639-.007,2.865,0,5.729-.007,1.914,0,3.826,0,1.092,0,2.179,0c.784,0,1.568,0,2.352,0,.225,0,.449,0,.679-.009A6.924,6.924,0,0,1,128.758.742a4.872,4.872,0,0,1,1.38,3.916c0,.218,0,.218,0,.438,0,.485,0,.968,0,1.454,0,.346,0,.694,0,1.04q0,1.416,0,2.831c0,.589,0,1.18,0,1.768q.007,2.767.007,5.536,0,3.192.011,6.386.007,2.47.007,4.941,0,1.473.007,2.948.007,1.389,0,2.775c0,.339,0,.679,0,1.016,0,.465,0,.928,0,1.393v.784a4.922,4.922,0,0,1-1.881,3.442,4.588,4.588,0,0,1-2.8.928c-.31,0-.31,0-.627,0-.344,0-.344,0-.692,0-.366,0-.366,0-.737,0h-2.469l-1.777,0q-2.194,0-4.39,0l-5.255,0q-6.353.007-12.7.007l-6.008,0-20.556.007H64.46q-10.438,0-20.878.009-11.031.01-22.062.009H18.5q-4.8,0-9.6.007-4.826,0-9.648,0-2.868,0-5.736,0-1.914,0-3.829,0-1.089,0-2.182,0c-.784,0-1.566,0-2.35,0-.227,0-.454,0-.685,0a5.326,5.326,0,0,1-3.943-1.3,5.132,5.132,0,0,1-1.436-3.8c0-.144,0-.29,0-.438q0-.728,0-1.454c0-.348,0-.694,0-1.043q0-1.416,0-2.833c0-.589,0-1.18,0-1.771q0-2.767-.007-5.539,0-3.2-.011-6.392-.007-2.47-.007-4.943,0-1.473-.007-2.95,0-1.389,0-2.777c0-.339,0-.679,0-1.018,0-.465,0-.928,0-1.393V3.959A5.5,5.5,0,0,1-18.622.124,3.987,3.987,0,0,1-16.256-.411Zm-2.155,3.4-.225.225c-.025.456-.031.912-.034,1.366,0,.146,0,.29,0,.438q0,.731,0,1.463c0,.348,0,.7-.007,1.043q-.007,1.719-.011,3.438c0,.4,0,.789,0,1.182q-.007,2.46-.011,4.916-.007,3.529-.025,7.053-.013,2.477-.013,4.954,0,1.483-.011,2.961-.01,1.392,0,2.786c0,.342,0,.683-.007,1.022,0,.465,0,.93,0,1.4,0,.261,0,.521,0,.789a2.861,2.861,0,0,0,1.263,1.815l.225.225c.317.022.634.029.948.029l.627,0h.7c.243,0,.485,0,.735,0h2.472l1.78,0,4.393,0q2.632,0,5.26,0,6.36.01,12.717.013l4.211,0q11.186.01,22.37.013l5.186,0h.652q10.448,0,20.894.02,10.734.013,21.469.016h3.633q4.806,0,9.612.011,4.826.01,9.655.007,2.871,0,5.741.007,1.918,0,3.831,0,1.1,0,2.186,0c.784,0,1.568,0,2.35,0,.229,0,.456,0,.69.009a3.065,3.065,0,0,0,2.391-.706c.142-.186.283-.373.427-.566l.225-.225c.025-.456.034-.912.034-1.366,0-.218,0-.218,0-.438q0-.731,0-1.463c0-.348,0-.7.007-1.043q.007-1.719.011-3.438c0-.4,0-.789,0-1.182q.007-2.46.011-4.918.007-3.525.025-7.051.014-2.477.013-4.954,0-1.483.011-2.961.01-1.392,0-2.786c0-.342,0-.683.007-1.022,0-.465,0-.93,0-1.4,0-.261,0-.521,0-.789a2.732,2.732,0,0,0-1.263-1.815,4.554,4.554,0,0,0-1.676-.254l-.625,0h-.692c-.364,0-.364,0-.735,0h-2.463l-1.773,0-4.377,0q-2.622,0-5.244,0-6.333-.01-12.67-.013l-4.195,0q-11.146-.01-22.293-.013l-5.166,0h-.649q-10.411,0-20.822-.02-10.7-.013-21.395-.016h-3.62q-4.789,0-9.578-.011-4.809-.01-9.621-.007-2.858,0-5.718-.007-1.911,0-3.817,0-1.089,0-2.177,0c-.782,0-1.562,0-2.343,0-.227,0-.454,0-.688-.009A2.852,2.852,0,0,0-18.411,2.989Z" transform="translate(20.968 126.425)" fill="#fff"/>
  <path id="Path_28349" data-name="Path 28349" d="M-48.4-1.584c1.5.247,3.009.4,4.518.562a14.172,14.172,0,0,1,3.314.706c.732.115,1.463.207,2.2.292a3.453,3.453,0,0,1,1.62.382c.454.036.908.061,1.364.083A29.343,29.343,0,0,1-31.76.9a46.616,46.616,0,0,0,4.768.636l.506.047.44.036c.789.121,1.559.339,2.332.533V8.9c-1.335.11-1.335.11-2.7.225A28.037,28.037,0,0,0-44.386,19.68a18.1,18.1,0,0,0-2.472,4.269h-.449c-.022.236-.045.472-.07.715a2.671,2.671,0,0,1-.463,1.364,11.04,11.04,0,0,0-1.04,3.089h-.449c-.011.193-.02.386-.034.586-.144,2.359-.382,4.7-.64,7.053q-1.763.017-3.525.025c-.4,0-.8,0-1.2.009q-.859.007-1.723.009l-.544.007c-.44,0-.879-.022-1.319-.049-.643-.645-.568-1.326-.625-2.193-.013-.173-.027-.348-.04-.528-.043-.557-.081-1.117-.121-1.676s-.079-1.105-.121-1.658c-.025-.344-.049-.688-.072-1.034a19.433,19.433,0,0,0-.485-3c-.144-.631-.234-1.263-.317-1.9-.034-.261-.067-.519-.1-.789s-.072-.544-.108-.827c-.281-2.1-.591-4.2-.955-6.291-.33-1.894-.575-3.784-.737-5.7a4.684,4.684,0,0,0-.36-1.811,9.914,9.914,0,0,1,1.517-6.812q.357-.421.73-.827c.146-.157.29-.315.44-.476a11.574,11.574,0,0,1,2.705-2.22c.144-.083.285-.169.434-.254C-54.112-2.449-50.978-2.056-48.4-1.584Z" transform="translate(92.103 43.227)" fill="#fff"/>
  <path id="Path_28350" data-name="Path 28350" d="M-98.465-1.342a2.394,2.394,0,0,1,.759,1c.119.175.24.351.364.533q.785.125,1.573.225a2.083,2.083,0,0,1,.449.9,3.41,3.41,0,0,1-1.8.225c-.034.3-.034.3-.07.6a3.935,3.935,0,0,1-.829,1.867c-.368.162-.744.315-1.123.449.081.135.164.267.247.4.112.186.227.373.342.564l.377.616A12.312,12.312,0,0,1-97.465,7.4c.106.222.211.443.321.672.09.2.182.411.279.625.413.566.413.566,1.256.692a7.38,7.38,0,0,0,2.719-.418A10.7,10.7,0,0,1-88.579,8.5c.225.225.225.225.254.652-.011,4.051-.011,4.051-.7,4.741a10.372,10.372,0,0,1-1.348,0l.247.506q.553,1.129,1.1,2.26c.128.263.256.526.389.8.124.252.245.5.371.762l.342.7a2.19,2.19,0,0,1,.247,1.265c.142-.009.283-.02.429-.031a5.721,5.721,0,0,1,4.19,1.366,1.026,1.026,0,0,1,.267,1.025c-.083.279-.083.279-.169.562-.1.87-.1.87.33,1.274a4.3,4.3,0,0,1,.456,2.615c.007.186.013.373.02.566a4.044,4.044,0,0,1-1.256,3.184h-.449v.449a7.33,7.33,0,0,1-4.718.674,6.107,6.107,0,0,1-3.006-2.514,2.264,2.264,0,0,1-.139-1.081l-.674.449h-.9l-.674-1.348-.449.225c-.366.02-.735.027-1.1.027h-.694l-.753,0h-.768l-2.438-.007-1.651,0q-2.026,0-4.051-.011c-.029.171-.058.339-.088.512a6.07,6.07,0,0,1-2.159,3.307,6.87,6.87,0,0,1-4.777.3,5.514,5.514,0,0,1-2.6-2.827c-.108-.427-.189-.861-.265-1.3-.249.013-.5.029-.759.043-.267-.013-.537-.027-.813-.043a2.224,2.224,0,0,1-.449-1.8l-.67.007c-.82.009-1.64.013-2.46.018l-1.065.009c-.512.007-1.022.009-1.532.011l-.481.007a2.675,2.675,0,0,1-1.881-.5l.225-.9h8.763V23.78l-.508,0-2.274.011-.8,0-.764,0-.706,0a1.7,1.7,0,0,1-1.016-.252l.225-.9h6.965v-.449h.449v-.449c.216-.1.216-.1.434-.207.186-.092.373-.186.564-.285.276-.135.276-.135.559-.276.521-.324.521-.324.643-.955.022-.258.022-.258.047-.524h-.674a4.086,4.086,0,0,1-.674-2.472c-.189.007-.189.007-.382.016-.571.018-1.139.029-1.71.04-.2.009-.4.016-.6.022-1.447.022-1.447.022-2.051-.447-.2-.53-.2-.53-.2-1.878h-7.415l-.225-.9c.225-.225.225-.225.93-.249.312,0,.627,0,.939,0,.164,0,.328,0,.5,0,.528,0,1.054,0,1.58.007.357,0,.712,0,1.07,0,.874,0,1.75.007,2.624.011v-.9h-2.247l-.225-.9c.225-.225.225-.225.739-.247l.622.009.627.007.483.007c0-.146-.007-.292-.011-.443-.013-.663-.022-1.323-.031-1.986,0-.229-.011-.461-.016-.7s0-.443-.007-.67c0-.2-.007-.407-.011-.618a1.479,1.479,0,0,1,.75-1.2,3.49,3.49,0,0,1,.973-.09l.593-.009c.317,0,.317,0,.638,0l.658,0q.688,0,1.375,0c.7,0,1.4,0,2.108-.013.445,0,.892,0,1.337,0l.638-.009c1.418.016,1.418.016,2.036.452a6.786,6.786,0,0,1,.27,2.57c0,.193,0,.386,0,.586q-.007.923-.02,1.847c0,.418-.007.836-.009,1.254q-.013,1.537-.034,3.071h1.348c-.011-.169-.02-.337-.031-.512a19.426,19.426,0,0,1,2.952-10.5,5.588,5.588,0,0,1,.9-.674c-.052-.124-.1-.249-.155-.38a4.71,4.71,0,0,1-.013-4.071A3.868,3.868,0,0,1-98.465-1.342Z" transform="translate(227.969 132.146)" fill="#111102"/>
  <path id="Path_28351" data-name="Path 28351" d="M-87.611,0h7.639a39.232,39.232,0,0,1-.449,4.494h-.449c-.016.29-.016.29-.034.586-.016.265-.034.53-.052.8-.013.258-.029.515-.047.782-.229,2.741-.813,5.462-1.305,8.165-.121.656-.238,1.312-.357,1.966-.326,1.793-.654,3.581-1.049,5.359a43.619,43.619,0,0,0-.71,4.887,15.283,15.283,0,0,1-.939,3.963c-.115.306-.115.306-.234.618a8.62,8.62,0,0,1-4.485,4.325l-.519.263a8.4,8.4,0,0,1-2.64.256c-.2,0-.391,0-.593,0a30.342,30.342,0,0,1-7.289-.982,12.393,12.393,0,0,0-2.44-.321,12.972,12.972,0,0,1-2.876-.445,34.1,34.1,0,0,0-3.505-.535l-.607-.081-.544-.07A10.822,10.822,0,0,1-113,33.478V24.041l2.7-.449c.452-.1.9-.2,1.348-.324.7-.182,1.391-.359,2.094-.519.24-.056.481-.112.728-.169.218-.049.436-.1.661-.148a2.5,2.5,0,0,0,1.236-.863,8.425,8.425,0,0,1,.926-.422c5.4-2.317,9.387-6.493,12.331-11.486q.313-.479.631-.955a9.176,9.176,0,0,0,1.013-2.375,6.2,6.2,0,0,1,.366-.975,18.027,18.027,0,0,0,.7-2.815c.079-.384.155-.768.234-1.153.034-.171.067-.339.1-.515A2.719,2.719,0,0,1-87.611,0Z" transform="translate(185.659 84.027)" fill="#fff"/>
  <path id="Path_28352" data-name="Path 28352" d="M0,0A24.365,24.365,0,0,1,4.008.676a18.448,18.448,0,0,0,3.2.447c.418.036.834.074,1.251.112.2.018.407.038.618.056.834.079,1.667.175,2.5.281l.78.1a3.676,3.676,0,0,1,1.189.346,8.036,8.036,0,0,0,2.15.42l.881.088c.3.029.609.058.912.085s.618.063.928.092q1.129.111,2.26.218V3.37l.377-.013a31.656,31.656,0,0,1,5.127.42c.281.038.564.074.854.112,3.7.515,6.078,1.555,8.592,4.406a2.906,2.906,0,0,1,.553,1.366h.449c1.485,4.015.71,9.014-.449,13.032-.076.533-.142,1.067-.2,1.6-.211,1.892-.571,3.746-.937,5.61-.218,1.114-.4,2.231-.575,3.355-.088.445-.088.445-.312.67-.616.02-1.225.027-1.84.022l-.559,0q-.883,0-1.771-.007l-1.2,0q-1.469,0-2.943-.011c-.013-.238-.025-.476-.038-.721a27.623,27.623,0,0,0-3.02-11.884A2.057,2.057,0,0,1,22.469,20h-.449c-.674-1.292-.674-1.292-.674-1.8H20.9c-.315-.445-.609-.89-.9-1.348a10.57,10.57,0,0,0-2.319-2.609,8.02,8.02,0,0,1-.912-.861,12.831,12.831,0,0,0-3.06-2.373V10.56l-.618-.182a2.973,2.973,0,0,1-1.155-.589A11.032,11.032,0,0,0,9.657,8.612c-.425-.189-.847-.389-1.263-.6A18.585,18.585,0,0,0,1.162,6.338,3.6,3.6,0,0,1,0,6.067Z" transform="translate(72.434 46.055)" fill="#fff"/>
  <path id="Path_28353" data-name="Path 28353" d="M0,0H7.864c.126.649.249,1.3.38,1.966a21.446,21.446,0,0,0,1.642,5,3.881,3.881,0,0,1,.449,1.8h.449c.11.249.11.249.225.5a17.053,17.053,0,0,0,2.633,4.067c.488.568.932,1.153,1.384,1.748a16.459,16.459,0,0,0,4.451,3.779l.744.463v.449l.474.178a19.944,19.944,0,0,1,2.04,1.031A24.372,24.372,0,0,0,33.249,24.01c.454.031.454.031.679.256.02.631.027,1.258.022,1.89,0,.283,0,.283,0,.573q0,.91-.007,1.82c0,.411,0,.82,0,1.231q0,1.513-.011,3.024a18.74,18.74,0,0,1-4.494-.674c-.849-.13-1.7-.218-2.557-.31-2.251-.254-4.485-.575-6.72-.944-1.287-.213-2.573-.407-3.867-.571a26.454,26.454,0,0,1-3-.537c-.566-.128-1.135-.207-1.71-.292a10.856,10.856,0,0,1-6.642-4.312c-.117-.153-.231-.306-.351-.463a14.3,14.3,0,0,1-2.346-6.965c-.036-.276-.072-.555-.11-.838-.2-1.6-.393-3.2-.58-4.8-.02-.171-.04-.342-.061-.517q-.145-1.254-.285-2.505A32.17,32.17,0,0,0,.55,4.968,23.738,23.738,0,0,1,.2,2.121C.133,1.42.067.721,0,0Z" transform="translate(34.462 84.027)" fill="#fff"/>
  <path id="Path_28354" data-name="Path 28354" d="M-6.675-.16l.515,0,1.085,0c.548,0,1.094-.009,1.642-.016.353,0,.7,0,1.054,0L-1.887-.2A5.546,5.546,0,0,1,1.77.939c.153.193.153.193.308.393.108.13.213.258.324.393a5.665,5.665,0,0,1,.517,3.157c0,.279,0,.279,0,.564,0,.616.009,1.229.011,1.845,0,.211,0,.42,0,.638q.007,1.668.009,3.339c0,1.148.011,2.3.02,3.447q.007,1.325.009,2.654c0,.422,0,.845.007,1.269.007.593,0,1.186,0,1.78,0,.173,0,.346.009.526a4.748,4.748,0,0,1-1.013,2.984A5.956,5.956,0,0,1-2.29,25.081h-.524c-.364,0-.728,0-1.092,0q-.839,0-1.678,0H-7.154c-1.175,0-1.175,0-1.425-.256-.022-.319-.029-.643-.029-.964,0-.207,0-.416,0-.629,0-.346,0-.346,0-.7,0-.24,0-.483,0-.73v-4.06q0-1.742,0-3.483,0-2.241,0-4.478V4.7c0-.768,0-1.535,0-2.3,0-.229,0-.461,0-.7,0-.209,0-.416,0-.631V.523C-8.538-.479-7.451-.155-6.675-.16Z" transform="translate(15.18 132.449)" fill="#fb0000"/>
  <path id="Path_28355" data-name="Path 28355" d="M-3.659-.224c.335,0,.67,0,1,.009.171,0,.342,0,.517,0,.422,0,.845.007,1.267.011l.449.9C-.294.59-.163.484-.031.374,1.281-.536,3.02-.244,4.548-.244c.292,0,.584,0,.885-.009h.843l.775,0A1.165,1.165,0,0,1,8.114.248a7.424,7.424,0,0,1,.258.98c.067.3.067.3.135.613l.144.663c.072.335.072.335.148.676q.236,1.075.467,2.15.158.728.319,1.456.391,1.786.775,3.573a30.206,30.206,0,0,0,1.126-4.031c.038-.182.076-.362.117-.548q.182-.856.359-1.712t.364-1.732c.074-.357.151-.714.225-1.072.256-1.216.256-1.216.506-1.465.3-.02.6-.025.908-.022l.55,0,.577.007c.193,0,.384,0,.582,0q.714,0,1.427.011a3.417,3.417,0,0,1-.121,2.366c-.04.142-.079.283-.119.429q-.185.681-.377,1.362c-.121.445-.245.89-.366,1.335-.081.294-.162.589-.243.881-.362,1.317-.7,2.638-1.02,3.963-.62,2.541-1.265,5.071-2,7.583-.294,1-.548,2-.764,3.02a7.031,7.031,0,0,1-3.231,3.916,8.629,8.629,0,0,1-4.114.31c-.409-.409-.254-.968-.254-1.512,0-.169,0-.337,0-.51,0-.254,0-.254,0-.512,0-1.258,0-1.258.254-1.51.4-.025.8-.043,1.209-.056a2.363,2.363,0,0,0,1.755-.6A6.974,6.974,0,0,0,7.5,16.021c-.362-1.139-.692-2.278-1-3.433-.04-.155-.083-.312-.126-.474-.083-.321-.169-.645-.252-.966q-.33-1.26-.661-2.516c-.043-.164-.085-.326-.13-.494Q4.618,5.42,3.845,2.72L3.4,4.068l-.679.04-.881.058L.96,4.22c-.679-.007-.679-.007-.935.3C0,4.93-.015,5.344-.02,5.76c0,.265-.009.53-.013.8s-.009.577-.011.874-.011.589-.016.892Q-.077,9.5-.094,10.678c-.011.8-.025,1.6-.036,2.393q-.037,2.352-.07,4.7a4.736,4.736,0,0,1-2.247.252c-.247,0-.247,0-.5,0-1.238,0-1.238,0-1.746-.254Q-4.7,14.305-4.7,10.842q0-1.611,0-3.217,0-1.554,0-3.105c0-.4,0-.791,0-1.186q0-.826,0-1.656c0-.164,0-.33,0-.5C-4.718-.195-4.718-.195-3.659-.224Z" transform="translate(80.497 139.502)" fill="#f80000"/>
  <path id="Path_28356" data-name="Path 28356" d="M-19.166-.053h.73A5.4,5.4,0,0,1-14.25,1.38,4.186,4.186,0,0,1-13.5,4.373v.539c0,.373,0,.746-.009,1.119-.009.573-.009,1.146-.011,1.719,0,.364,0,.726-.007,1.09,0,.258,0,.258,0,.521-.018,1.2-.018,1.2-.267,1.456-.483.018-.966.022-1.449.02-.292,0-.586,0-.888,0l-.937,0-.939,0-2.3-.009v3.37h2.472c-.007-.292-.011-.584-.016-.885s0-.609.016-.912c.225-.225.225-.225.62-.252l.51,0c.182,0,.364,0,.55,0l.58,0,.582,0q.711,0,1.427.011c.191,3.575.191,3.575-.449,4.548a5.73,5.73,0,0,1-4.471,1.64l-.712-.009-.715.009a5.189,5.189,0,0,1-3.539-1.02,3.859,3.859,0,0,1-1.168-3.047c0-.384,0-.384-.011-.775q-.013-1.753-.025-3.51c0-.616-.009-1.234-.018-1.849-.013-.89-.016-1.78-.02-2.669,0-.274-.009-.55-.016-.834A4.488,4.488,0,0,1-23.462.931C-22.1-.143-20.851-.091-19.166-.053Z" transform="translate(86.909 139.269)" fill="#f90000"/>
  <path id="Path_28357" data-name="Path 28357" d="M-19.166-.053h.73A5.4,5.4,0,0,1-14.25,1.38,4.186,4.186,0,0,1-13.5,4.373v.539c0,.373,0,.746-.009,1.119-.009.573-.009,1.146-.011,1.719,0,.364,0,.726-.007,1.09,0,.258,0,.258,0,.521-.018,1.2-.018,1.2-.267,1.456-.483.018-.966.022-1.449.02-.292,0-.586,0-.888,0l-.937,0-.939,0-2.3-.009v3.37h2.472c-.007-.292-.011-.584-.016-.885s0-.609.016-.912c.225-.225.225-.225.62-.252l.51,0c.182,0,.364,0,.55,0l.58,0,.582,0q.711,0,1.427.011c.191,3.575.191,3.575-.449,4.548a5.73,5.73,0,0,1-4.471,1.64l-.712-.009-.715.009a5.189,5.189,0,0,1-3.539-1.02,3.859,3.859,0,0,1-1.168-3.047c0-.384,0-.384-.011-.775q-.013-1.753-.025-3.51c0-.616-.009-1.234-.018-1.849-.013-.89-.016-1.78-.02-2.669,0-.274-.009-.55-.016-.834A4.488,4.488,0,0,1-23.462.931C-22.1-.143-20.851-.091-19.166-.053Z" transform="translate(45.342 139.269)" fill="#f90000"/>
  <path id="Path_28358" data-name="Path 28358" d="M-2.217,0l.539,0c.288,0,.288,0,.58,0,.2,0,.4,0,.611,0s.407,0,.616,0L1.634.025a43.6,43.6,0,0,1,1.49,5.59q.155.714.315,1.429.145.64.283,1.285a7.828,7.828,0,0,0,.384,1.357c.058-.261.119-.521.18-.789q.327-1.453.661-2.905c.094-.418.191-.838.285-1.256q.2-.9.411-1.806c.04-.189.083-.375.126-.568.04-.175.081-.351.124-.53C5.943,1.6,5.943,1.6,6,1.366A7.157,7.157,0,0,1,6.577.025L8.347.011c.166,0,.335,0,.508,0C10.122,0,10.122,0,10.621.249a29.018,29.018,0,0,1-.813,4.269c-.061.236-.119.472-.18.712C9.149,7.1,8.617,8.96,8.064,10.814s-1.045,3.725-1.517,5.6c-.052.2-.106.409-.157.62-.047.18-.092.362-.137.548-.126.413-.126.413-.351.638-.643.018-1.281.022-1.923.016l-.548,0q-.674,0-1.348-.011A13.749,13.749,0,0,1,.764,14.348L.407,12.883c-.058-.24-.117-.479-.178-.726-.222-.894-.465-1.782-.717-2.667Q-1.209,6.923-1.905,4.35c-.067-.252-.137-.5-.209-.762-.063-.238-.128-.476-.193-.723-.058-.211-.117-.422-.175-.64A17.9,17.9,0,0,1-2.86.249C-2.635.025-2.635.025-2.217,0Z" transform="translate(50.578 139.274)" fill="#f80000"/>
  <path id="Path_28359" data-name="Path 28359" d="M-5.334,0l.506,0c.247,0,.247,0,.5,0a5.893,5.893,0,0,1,2,.256v20.9H-.308c.409.409.254.966.256,1.51,0,.169,0,.337,0,.512,0,.252,0,.252,0,.51,0,1.258,0,1.258-.256,1.512-3.8.27-3.8.27-5.168-.9a2.63,2.63,0,0,1-.449-.9h-.449a8.393,8.393,0,0,1-.5-3.5c0-.213,0-.425,0-.645q0-1.048,0-2.1V15.7q0-1.527.007-3.051,0-1.962,0-3.921,0-1.5,0-3.009V4.274q0-1,.007-2.013c0-.2,0-.4,0-.609C-6.849,0-6.849,0-5.334,0Z" transform="translate(41.061 132.304)" fill="#f90000"/>
  <path id="Path_28360" data-name="Path 28360" d="M-5.283,0c.252,0,.252,0,.508,0s.249,0,.506,0c1.249,0,1.249,0,1.755.256v17.75a4.792,4.792,0,0,1-2.26.252c-.169,0-.335,0-.508,0-1.247,0-1.247,0-1.5-.254-.022-.553-.029-1.1-.029-1.651v-.524c0-.575,0-1.148,0-1.723V10.416c0-1.07,0-2.141,0-3.211,0-.82,0-1.64,0-2.46V3.559c0-.55,0-1.1,0-1.651v-.5C-6.809,0-6.688,0-5.283,0Z" transform="translate(48.885 139.269)" fill="#f90000"/>
  <path id="Path_28361" data-name="Path 28361" d="M0-.056H3.146l.225,1.8c.092-.11.184-.222.279-.337L4.017.969c.119-.144.238-.285.362-.434a1.839,1.839,0,0,1,.789-.591c.825-.031,1.647-.009,2.472,0v3.37l-2.2.11a2.331,2.331,0,0,0-1.624.789A3.363,3.363,0,0,0,3.7,5.485c-.007.393-.007.393-.013.791V7.13c0,.288-.007.577-.011.874-.009.766-.013,1.53-.018,2.3,0,.782-.013,1.564-.022,2.346-.018,1.532-.027,3.067-.036,4.6H0Z" transform="translate(76.253 139.805)" fill="#f90000"/>
  <path id="Path_28362" data-name="Path 28362" d="M0,0H2.7l.449,1.8H6.067V0h2.7V8.538H0v-.9c1.225-.112,1.225-.112,2.472-.225V6.741L0,6.516v-.9l4.269-.225V4.718L0,4.494Z" transform="translate(109.732 139.3)" fill="#fcfc00"/>
  <path id="Path_28363" data-name="Path 28363" d="M-3.659-.224c.335,0,.67,0,1,.009.171,0,.342,0,.517,0,.422,0,.845.007,1.267.011l.449.9C-.294.59-.163.484-.031.374,1.281-.536,3.02-.244,4.548-.244c.292,0,.584,0,.885-.009h.843l.775,0A1.165,1.165,0,0,1,8.114.248a7.424,7.424,0,0,1,.258.98c.067.3.067.3.135.613l.144.663c.072.335.072.335.148.676q.236,1.075.467,2.15.158.728.319,1.456.391,1.786.775,3.573a30.206,30.206,0,0,0,1.126-4.031c.038-.182.076-.362.117-.548q.182-.856.359-1.712t.364-1.732c.074-.357.151-.714.225-1.072.256-1.216.256-1.216.506-1.465.3-.02.6-.025.908-.022l.55,0,.577.007c.193,0,.384,0,.582,0q.714,0,1.427.011a3.417,3.417,0,0,1-.121,2.366c-.04.142-.079.283-.119.429q-.185.681-.377,1.362c-.121.445-.245.89-.366,1.335-.081.294-.162.589-.243.881-.362,1.317-.7,2.638-1.02,3.963-.62,2.541-1.265,5.071-2,7.583-.294,1-.548,2-.764,3.02a7.031,7.031,0,0,1-3.231,3.916,8.629,8.629,0,0,1-4.114.31c-.409-.409-.254-.968-.254-1.512,0-.169,0-.337,0-.51,0-.254,0-.254,0-.512,0-1.258,0-1.258.254-1.51.4-.025.8-.043,1.209-.056a2.363,2.363,0,0,0,1.755-.6A6.974,6.974,0,0,0,7.5,16.021c-.362-1.139-.692-2.278-1-3.433-.04-.155-.083-.312-.126-.474-.083-.321-.169-.645-.252-.966q-.33-1.26-.661-2.516c-.043-.164-.085-.326-.13-.494Q4.618,5.42,3.845,2.72L3.4,4.068l-.679.04-.881.058L.96,4.22c-.679-.007-.679-.007-.935.3C0,4.93-.015,5.344-.02,5.76c0,.265-.009.53-.013.8s-.009.577-.011.874-.011.589-.016.892Q-.077,9.5-.094,10.678c-.011.8-.025,1.6-.036,2.393q-.037,2.352-.07,4.7a4.736,4.736,0,0,1-2.247.252c-.247,0-.247,0-.5,0-1.238,0-1.238,0-1.746-.254Q-4.7,14.305-4.7,10.842q0-1.611,0-3.217,0-1.554,0-3.105c0-.4,0-.791,0-1.186q0-.826,0-1.656c0-.164,0-.33,0-.5C-4.718-.195-4.718-.195-3.659-.224Zm-.584.472v17.3H-.649c0-.391,0-.782.007-1.186q.013-1.938.036-3.876.013-1.176.018-2.352c0-.9.016-1.8.027-2.7,0-.283,0-.564,0-.854,0-.261.009-.521.013-.791,0-.229,0-.458,0-.7a1.294,1.294,0,0,1,.528-.984,4.192,4.192,0,0,1,2-.42c.463-.022.928-.047,1.4-.07V.248A4,4,0,0,0,0,.893,4.006,4.006,0,0,0-.873,2.045L-1.1.248Zm7.864,0C4.187,2.72,4.807,5.162,5.5,7.6q.357,1.264.706,2.532c.094.333.186.667.279,1q.3,1.065.589,2.128c.049.182.1.364.151.55.1.346.191.692.285,1.038.193.7.391,1.373.64,2.054a5.026,5.026,0,0,1,.164,2.02c-.016.229-.029.456-.045.69a2.214,2.214,0,0,1-1.052,1.53,12.468,12.468,0,0,1-2.247.225v3.146c2.552.184,2.552.184,4.743-.93,1.777-1.753,2.3-3.91,2.9-6.26.054-.213.11-.427.166-.647q.442-1.739.87-3.48c.515-2.087,1.076-4.159,1.658-6.226l.371-1.323c.121-.434.245-.865.366-1.3l.231-.82c.1-.364.1-.364.207-.735a24.281,24.281,0,0,0,.4-2.546h-3.82q-.475,2.211-.948,4.424-.158.755-.321,1.505c-.155.721-.31,1.445-.463,2.166-.049.222-.1.447-.146.676-.238,1.117-.449,2.227-.593,3.361h-.225c-.04-.209-.04-.209-.081-.42C9.721,9.1,9.136,6.252,8.507,3.407c-.058-.263-.115-.526-.175-.8-.081-.366-.081-.366-.164-.739-.049-.216-.1-.431-.146-.654A2.4,2.4,0,0,0,7.665.248Z" transform="translate(80.497 139.502)" fill="#211800"/>
  <path id="Path_28364" data-name="Path 28364" d="M0,0H2.921V17.076H0Z" transform="translate(10.87 136.379)" fill="#fcfc00"/>
  <path id="Path_28365" data-name="Path 28365" d="M-67.452,0c.07.18.142.357.213.541a18.268,18.268,0,0,0,1.809,3.5A16.5,16.5,0,0,1-64.307,7.19l-.674.225v.449h-.449c-.1.209-.1.209-.211.422q-.229.462-.463.926h-.449c-.045.155-.092.308-.139.467a7.986,7.986,0,0,1-1.672,2.159,8.084,8.084,0,0,0-1.559,1.867h-9.661c-.222-1.667-.222-1.667-.449-3.37a4.58,4.58,0,0,0-2.919-2.543A20.679,20.679,0,0,0-87,7.415V6.741h8.538l-.449,2.022a3.611,3.611,0,0,0,.674,2.7c1.463.89,2.831.782,4.494.773l.856.013c1.9,0,2.743-.137,4.1-1.46l.382-.449.389-.449c1.016-1.339.91-2.636.791-4.269a24.252,24.252,0,0,0-.674-2.7c-.065-.22-.128-.44-.2-.667q-.233-.792-.479-1.58C-67.958,0-67.958,0-67.452,0Z" transform="translate(203.248 144.917)" fill="#f5f500"/>
  <path id="Path_28366" data-name="Path 28366" d="M-32.912-2.764A4.005,4.005,0,0,1-31.665-.9c.112,1.335.112,1.335.225,2.7H-42.45l.225-.9,3.37-.225.225-.9h-2.921l.225-.674c2.224-.112,2.224-.112,4.494-.225l.225-.9H-40.2A6.428,6.428,0,0,1-32.912-2.764Z" transform="translate(153.979 156.824)" fill="#f5f500"/>
  <path id="Path_28367" data-name="Path 28367" d="M-16.282-.637a6.809,6.809,0,0,1,1.84,2.822c.079.173.16.346.24.524a19.77,19.77,0,0,1,.84,2.047l.535.083a25.2,25.2,0,0,1,3.734.816v.9a11.629,11.629,0,0,1-5.168-.674,5.752,5.752,0,0,1-.91-1.726c-.189-.586-.189-.586-.845-1l-.492-.2c-.056.175-.112.353-.169.535-.357,1.036-.768,2.045-1.18,3.06L-21,6.1A11.986,11.986,0,0,1-18.079-.637,2.281,2.281,0,0,1-16.282-.637Z" transform="translate(143.763 137.69)" fill="#fafa00"/>
  <path id="Path_28368" data-name="Path 28368" d="M-.85,0C-.491.031-.129.065.231.1L.839.153a4.4,4.4,0,0,1,1.231.3,3.759,3.759,0,0,1,.225.9c.16.038.319.074.485.112.723.171,1.445.346,2.168.519l.764.178c.24.058.481.119.73.178.222.054.445.108.674.162a2.2,2.2,0,0,1,1.245.874,4.914,4.914,0,0,1,.056,1.193c-.009.355-.009.355-.018.717q-.1,1.968-.263,3.932H6.564V4.718H6.115V4.269L5.5,4.251C.244,4.015.244,4.015-1.075,2.7A7.94,7.94,0,0,1-.85,0Z" transform="translate(123.389 144.917)" fill="#fafa00"/>
  <path id="Path_28369" data-name="Path 28369" d="M-5.334,0l.506,0c.247,0,.247,0,.5,0a5.893,5.893,0,0,1,2,.256v20.9H-.308c.409.409.254.966.256,1.51,0,.169,0,.337,0,.512,0,.252,0,.252,0,.51,0,1.258,0,1.258-.256,1.512-3.8.27-3.8.27-5.168-.9a2.63,2.63,0,0,1-.449-.9h-.449a8.393,8.393,0,0,1-.5-3.5c0-.213,0-.425,0-.645q0-1.048,0-2.1V15.7q0-1.527.007-3.051,0-1.962,0-3.921,0-1.5,0-3.009V4.274q0-1,.007-2.013c0-.2,0-.4,0-.609C-6.849,0-6.849,0-5.334,0Zm-1.04.481q-.03,4.226-.047,8.455-.007,1.962-.02,3.925-.013,1.894-.018,3.79,0,.721-.009,1.445c-.007.674-.007,1.35-.007,2.024,0,.2-.007.4-.011.6a4.542,4.542,0,0,0,1.474,3.42c.876.764,1.854.629,2.95.618.169,0,.337,0,.51,0l1.245-.011V21.6c-.328-.034-.658-.065-1-.1-1-.1-1-.1-1.249-.351-.027-.643-.043-1.281-.045-1.923,0-.2,0-.4-.007-.611-.009-.67-.013-1.339-.02-2.011l-.013-1.389-.034-3.665q-.017-1.867-.036-3.737Q-2.747,4.15-2.779.481Z" transform="translate(41.061 132.304)" fill="#292900"/>
  <path id="Path_28370" data-name="Path 28370" d="M-2.217,0l.539,0c.288,0,.288,0,.58,0,.2,0,.4,0,.611,0s.407,0,.616,0L1.634.025a43.6,43.6,0,0,1,1.49,5.59q.155.714.315,1.429.145.64.283,1.285a7.828,7.828,0,0,0,.384,1.357c.058-.261.119-.521.18-.789q.327-1.453.661-2.905c.094-.418.191-.838.285-1.256q.2-.9.411-1.806c.04-.189.083-.375.126-.568.04-.175.081-.351.124-.53C5.943,1.6,5.943,1.6,6,1.366A7.157,7.157,0,0,1,6.577.025L8.347.011c.166,0,.335,0,.508,0C10.122,0,10.122,0,10.621.249a29.018,29.018,0,0,1-.813,4.269c-.061.236-.119.472-.18.712C9.149,7.1,8.617,8.96,8.064,10.814s-1.045,3.725-1.517,5.6c-.052.2-.106.409-.157.62-.047.18-.092.362-.137.548-.126.413-.126.413-.351.638-.643.018-1.281.022-1.923.016l-.548,0q-.674,0-1.348-.011A13.749,13.749,0,0,1,.764,14.348L.407,12.883c-.058-.24-.117-.479-.178-.726-.222-.894-.465-1.782-.717-2.667Q-1.209,6.923-1.905,4.35c-.067-.252-.137-.5-.209-.762-.063-.238-.128-.476-.193-.723-.058-.211-.117-.422-.175-.64A17.9,17.9,0,0,1-2.86.249C-2.635.025-2.635.025-2.217,0Zm-.193.474A34.221,34.221,0,0,0-1.294,5.217c.38,1.256.708,2.521,1.018,3.795.389,1.6.82,3.168,1.294,4.741.4,1.33.741,2.672,1.065,4.022H5.678a26.993,26.993,0,0,0,1.193-3.86c.384-1.58.8-3.146,1.251-4.7Q8.935,6.4,9.7,3.579c.1-.386.1-.386.211-.777.063-.238.128-.476.193-.721.058-.213.115-.425.173-.645A2.058,2.058,0,0,0,10.4.474H6.577q-.421,1.78-.838,3.559c-.094.4-.191.8-.285,1.207a59.062,59.062,0,0,0-1.348,7.367c-.034-.247-.065-.494-.1-.748C3.478,8.015,2.523,4.249,1.634.474Z" transform="translate(50.578 139.274)" fill="#110600"/>
  <path id="Path_28371" data-name="Path 28371" d="M-3.1,0a3.725,3.725,0,0,1,.674,1.573h.449l.225.449c.465.088.932.171,1.4.245,2.357.386,2.357.386,3.137,1.117a7.692,7.692,0,0,1,.629,1.784l.2.652c1.092,3.8,1.092,3.8.461,5.309a10.145,10.145,0,0,1-.885,1.229l-1.348-.449c.009-.124.016-.249.025-.377.512-3.586.512-3.586-.411-6.817A3.057,3.057,0,0,0-.225,3.936c-.22-.049-.44-.1-.667-.146s-.456-.092-.692-.139l-.7-.151C-2.856,3.379-3.429,3.26-4,3.146c.063-.355.13-.712.2-1.067.036-.2.072-.4.11-.6A5.623,5.623,0,0,1-3.1,0Z" transform="translate(130.808 142.445)" fill="#f9f900"/>
  <path id="Path_28372" data-name="Path 28372" d="M-6.675-.16l.515,0,1.085,0c.548,0,1.094-.009,1.642-.016.353,0,.7,0,1.054,0L-1.887-.2A5.546,5.546,0,0,1,1.77.939c.153.193.153.193.308.393.108.13.213.258.324.393a5.665,5.665,0,0,1,.517,3.157c0,.279,0,.279,0,.564,0,.616.009,1.229.011,1.845,0,.211,0,.42,0,.638q.007,1.668.009,3.339c0,1.148.011,2.3.02,3.447q.007,1.325.009,2.654c0,.422,0,.845.007,1.269.007.593,0,1.186,0,1.78,0,.173,0,.346.009.526a4.748,4.748,0,0,1-1.013,2.984A5.956,5.956,0,0,1-2.29,25.081h-.524c-.364,0-.728,0-1.092,0q-.839,0-1.678,0H-7.154c-1.175,0-1.175,0-1.425-.256-.022-.319-.029-.643-.029-.964,0-.207,0-.416,0-.629,0-.346,0-.346,0-.7,0-.24,0-.483,0-.73v-4.06q0-1.742,0-3.483,0-2.241,0-4.478V4.7c0-.768,0-1.535,0-2.3,0-.229,0-.461,0-.7,0-.209,0-.416,0-.631V.523C-8.538-.479-7.451-.155-6.675-.16ZM-8.354.334V24.6c7.624.791,7.624.791,9.886-.9a4.157,4.157,0,0,0,1.013-3.294c0-.191,0-.382.007-.58,0-.627,0-1.256,0-1.883,0-.438,0-.876,0-1.314q0-1.375,0-2.752-.007-1.759,0-3.521c0-.905,0-1.809,0-2.714,0-.434,0-.865,0-1.3,0-.6,0-1.211-.007-1.815q0-.266.007-.539a3.7,3.7,0,0,0-1.02-2.757C-.73-.454-.73-.454-8.354.334Z" transform="translate(15.18 132.449)" fill="#140100"/>
  <path id="Path_28373" data-name="Path 28373" d="M-19.166-.053h.73A5.4,5.4,0,0,1-14.25,1.38,4.186,4.186,0,0,1-13.5,4.373v.539c0,.373,0,.746-.009,1.119-.009.573-.009,1.146-.011,1.719,0,.364,0,.726-.007,1.09,0,.258,0,.258,0,.521-.018,1.2-.018,1.2-.267,1.456-.483.018-.966.022-1.449.02-.292,0-.586,0-.888,0l-.937,0-.939,0-2.3-.009v3.37h2.472c-.007-.292-.011-.584-.016-.885s0-.609.016-.912c.225-.225.225-.225.62-.252l.51,0c.182,0,.364,0,.55,0l.58,0,.582,0q.711,0,1.427.011c.191,3.575.191,3.575-.449,4.548a5.73,5.73,0,0,1-4.471,1.64l-.712-.009-.715.009a5.189,5.189,0,0,1-3.539-1.02,3.859,3.859,0,0,1-1.168-3.047c0-.384,0-.384-.011-.775q-.013-1.753-.025-3.51c0-.616-.009-1.234-.018-1.849-.013-.89-.016-1.78-.02-2.669,0-.274-.009-.55-.016-.834A4.488,4.488,0,0,1-23.462.931C-22.1-.143-20.851-.091-19.166-.053Zm-4.593,2.022a2.982,2.982,0,0,0-.64,2.126c0,.24,0,.479-.007.723s0,.517,0,.784,0,.53,0,.8c0,.564,0,1.126,0,1.69,0,.861-.009,1.719-.016,2.579,0,.546,0,1.092,0,1.64,0,.256-.007.512-.009.777,0,1.463.054,2.588,1.1,3.71,1.445,1.105,2.418,1.034,4.2,1.049l.773.02c1.442.009,2.355,0,3.442-.989A3.887,3.887,0,0,0-13.787,13.7c0-.431-.009-.863-.013-1.305H-17.4c-.034.29-.065.582-.1.883-.1.885-.1.885-.351,1.139-.413.02-.825.027-1.236.027l-.683,0c-.553-.029-.553-.029-.777-.254-.054-.645-.1-1.281-.128-1.926-.031-.625-.065-1.251-.1-1.894H-13.8c.02-1.034.038-2.063.047-3.094q.007-.526.02-1.052c.011-.506.016-1.011.02-1.517,0-.155.009-.31.013-.47a3.662,3.662,0,0,0-1-2.631C-16.135.34-17.166.425-19.026.41L-19.8.389C-21.655.376-22.511.553-23.758,1.969Z" transform="translate(86.909 139.269)" fill="#120b00"/>
  <path id="Path_28374" data-name="Path 28374" d="M-19.166-.053h.73A5.4,5.4,0,0,1-14.25,1.38,4.186,4.186,0,0,1-13.5,4.373v.539c0,.373,0,.746-.009,1.119-.009.573-.009,1.146-.011,1.719,0,.364,0,.726-.007,1.09,0,.258,0,.258,0,.521-.018,1.2-.018,1.2-.267,1.456-.483.018-.966.022-1.449.02-.292,0-.586,0-.888,0l-.937,0-.939,0-2.3-.009v3.37h2.472c-.007-.292-.011-.584-.016-.885s0-.609.016-.912c.225-.225.225-.225.62-.252l.51,0c.182,0,.364,0,.55,0l.58,0,.582,0q.711,0,1.427.011c.191,3.575.191,3.575-.449,4.548a5.73,5.73,0,0,1-4.471,1.64l-.712-.009-.715.009a5.189,5.189,0,0,1-3.539-1.02,3.859,3.859,0,0,1-1.168-3.047c0-.384,0-.384-.011-.775q-.013-1.753-.025-3.51c0-.616-.009-1.234-.018-1.849-.013-.89-.016-1.78-.02-2.669,0-.274-.009-.55-.016-.834A4.488,4.488,0,0,1-23.462.931C-22.1-.143-20.851-.091-19.166-.053Zm-4.593,2.022a2.982,2.982,0,0,0-.64,2.126c0,.24,0,.479-.007.723s0,.517,0,.784,0,.53,0,.8c0,.564,0,1.126,0,1.69,0,.861-.009,1.719-.016,2.579,0,.546,0,1.092,0,1.64,0,.256-.007.512-.009.777,0,1.463.054,2.588,1.1,3.71,1.445,1.105,2.418,1.034,4.2,1.049l.773.02c1.442.009,2.355,0,3.442-.989A3.887,3.887,0,0,0-13.787,13.7c0-.431-.009-.863-.013-1.305H-17.4c-.034.29-.065.582-.1.883-.1.885-.1.885-.351,1.139-.413.02-.825.027-1.236.027l-.683,0c-.553-.029-.553-.029-.777-.254-.054-.645-.1-1.281-.128-1.926-.031-.625-.065-1.251-.1-1.894H-13.8c.02-1.034.038-2.063.047-3.094q.007-.526.02-1.052c.011-.506.016-1.011.02-1.517,0-.155.009-.31.013-.47a3.662,3.662,0,0,0-1-2.631C-16.135.34-17.166.425-19.026.41L-19.8.389C-21.655.376-22.511.553-23.758,1.969Z" transform="translate(45.342 139.269)" fill="#0e0900"/>
  <path id="Path_28375" data-name="Path 28375" d="M-14.87,0a7.042,7.042,0,0,1,4.253,1.018A19.036,19.036,0,0,1-13.749,3.1l-.568.326q-.846.485-1.692.966-.492.28-.98.562-1.082.62-2.166,1.236c-.056-1.712-.056-1.712.449-2.472h.449c.058-.13.119-.258.182-.393a7.375,7.375,0,0,1,.941-1.4h.449c.058-.13.119-.258.182-.393C-15.78.157-15.78.157-14.87,0Z" transform="translate(154.502 153.336)" fill="#fafa00"/>
  <path id="Path_28376" data-name="Path 28376" d="M0,0H3.37c.546.546.5.838.51,1.584,0,.157,0,.315,0,.476s0,.333,0,.5c0,.55,0,1.1,0,1.649V5.357c0,.8,0,1.6,0,2.4q0,1.54,0,3.078c0,.789,0,1.575,0,2.361v1.135c0,.53,0,1.058,0,1.586,0,.157,0,.315,0,.476-.009,1.083-.009,1.083-.51,1.584H0ZM.449.449V17.525H3.37V.449Z" transform="translate(10.421 135.93)" fill="#1d0a00"/>
  <path id="Path_28377" data-name="Path 28377" d="M-5.249-.1c.252,0,.252,0,.508,0s.249,0,.506,0c1.249,0,1.249,0,1.755.256q.01.947.013,1.894c0,.182,0,.362.007.548,0,.458-.009.917-.02,1.377-.407.407-.959.254-1.5.254-.249,0-.249,0-.508,0s-.249,0-.5,0c-1.249,0-1.249,0-1.757-.254q-.007-.95-.013-1.9,0-.27-.007-.546c0-.461.009-.919.02-1.377C-6.343-.249-5.79-.1-5.249-.1Z" transform="translate(48.851 132.4)" fill="#f90000"/>
  <path id="Path_28378" data-name="Path 28378" d="M-20.786-.033a1.967,1.967,0,0,1,1.236,1.1A5.355,5.355,0,0,1-19.717,4.7a4.44,4.44,0,0,1-2.889,1.872,3.7,3.7,0,0,1-3.011-1.011,3.082,3.082,0,0,1-1.193-2c.022-.157.045-.315.07-.476.371-.148.741-.3,1.123-.449a18.876,18.876,0,0,1,.9,2.247,5.381,5.381,0,0,0,3.426-.436,3.362,3.362,0,0,0,.393-2.71A6.059,6.059,0,0,0-22.022.389C-21.348-.06-21.348-.06-20.786-.033Z" transform="translate(164.108 156.437)" fill="#f9f900"/>
  <path id="Path_28379" data-name="Path 28379" d="M-5.283,0c.252,0,.252,0,.508,0s.249,0,.506,0c1.249,0,1.249,0,1.755.256v17.75a4.792,4.792,0,0,1-2.26.252c-.169,0-.335,0-.508,0-1.247,0-1.247,0-1.5-.254-.022-.553-.029-1.1-.029-1.651v-.524c0-.575,0-1.148,0-1.723V10.416c0-1.07,0-2.141,0-3.211,0-.82,0-1.64,0-2.46V3.559c0-.55,0-1.1,0-1.651v-.5C-6.809,0-6.688,0-5.283,0ZM-6.335.481v17.3H-2.74V.481Z" transform="translate(48.885 139.269)" fill="#110"/>
  <path id="Path_28380" data-name="Path 28380" d="M-.775-.14C-.184-.151.4-.16,1-.167L1.5-.181c.438,0,.879.018,1.317.04a2.189,2.189,0,0,1,.708,1.429c.045.2.09.4.135.613.07.328.07.328.142.663l.151.679c.157.717.312,1.431.465,2.148q.162.728.319,1.456.391,1.786.777,3.572A30.206,30.206,0,0,0,6.642,6.389c.038-.18.076-.362.117-.548C6.877,5.27,7,4.7,7.116,4.129s.243-1.155.366-1.732c.074-.355.148-.715.222-1.072C7.963.109,7.963.109,8.212-.14c.3-.02.6-.025.908-.022.18,0,.362,0,.55,0l.577.007.582,0c.476,0,.95.007,1.427.011a3.761,3.761,0,0,1-.2,2.609c-.045.164-.09.326-.137.494-.144.521-.292,1.04-.44,1.559-.1.353-.2.706-.294,1.058q-.361,1.3-.73,2.593a3.718,3.718,0,0,1,.146-2.51q.061-.229.121-.465.2-.731.393-1.463l.263-1q.32-1.217.649-2.431H8.212c-.043.44-.043.44-.088.888a29.428,29.428,0,0,1-.537,3.1c-.038.18-.076.359-.117.546q-.182.853-.368,1.705c-.521,2.409-1.029,4.8-1.362,7.246H5.516c-.034-.18-.067-.359-.1-.544C4.741,9.685,4.037,6.135,3.231,2.6c-.081-.357-.081-.357-.164-.719-.047-.207-.094-.416-.144-.629a3.1,3.1,0,0,1-.1-.946H-1Z" transform="translate(85.342 139.44)" fill="#0c0600"/>
  <path id="Path_28381" data-name="Path 28381" d="M0-.2Q1.587-.222,3.175-.231c.357,0,.717-.009,1.074-.016a26.484,26.484,0,0,1,6.985.726c.112.335.112.335.225.674H0Z" transform="translate(114.899 149.381)" fill="#fefe00"/>
  <path id="Path_28382" data-name="Path 28382" d="M-7.983,0l1.123.225c-.02.636-.043,1.274-.07,1.91-.009.267-.009.267-.016.539a9.075,9.075,0,0,1-.813,3.393c-1.636-.135-1.636-.135-2.247-.476a3.773,3.773,0,0,1,0-2.88l.225-.688h.449V1.573l1.123-.225Z" transform="translate(135.689 150.085)" fill="#f9f900"/>
  <path id="Path_28383" data-name="Path 28383" d="M-14.731-.772A16.228,16.228,0,0,1-14.057.8a1.843,1.843,0,0,0,.9.449C-14,2.347-14,2.347-14.506,2.6a3.585,3.585,0,0,1-2.921-.492,5.851,5.851,0,0,1-.9-1.755L-19,.576V.127l1.123-.449V.8h.674c-.022-.171-.047-.344-.07-.519.07-.6.07-.6.546-1.027A2.221,2.221,0,0,1-14.731-.772Z" transform="translate(156.593 158.945)" fill="#1b1b03"/>
  <path id="Path_28384" data-name="Path 28384" d="M0,0H9.886c.112.445.112.445.225.9-.225.225-.225.225-.627.252-.175,0-.351,0-.53,0h-.6l-.652,0-.665,0c-.7,0-1.4,0-2.108-.007l-1.427,0q-1.753,0-3.5-.011Z" transform="translate(100.744 152.781)" fill="#181803"/>
  <path id="Path_28385" data-name="Path 28385" d="M0-.18a4.365,4.365,0,0,1,1.348,0A4.634,4.634,0,0,1,2.022.943c.4.5.4.5.962.5l.6-.009.6,0a2.517,2.517,0,0,0,1.216-.263A6.981,6.981,0,0,0,5.842-.18H7.19a3.319,3.319,0,0,1-.9,2.247H5.842v.449a5.028,5.028,0,0,1-3.37.449,9.739,9.739,0,0,1-2.247-1.8C.135.721.058.271,0-.18Z" transform="translate(113.551 159.926)" fill="#f9f900"/>
  <path id="Path_28386" data-name="Path 28386" d="M-3.566,0c.359,0,.721,0,1.081,0h.573l1.82.007c.411,0,.82,0,1.231,0L4.163.025c.11.557.11.557.225,1.123H-4.6C-4.6.034-4.6.034-3.566,0Z" transform="translate(108.715 150.958)" fill="#0a0a01"/>
  <path id="Path_28387" data-name="Path 28387" d="M0,0H2.472V3.146H0Z" transform="translate(66.592 143.344)" fill="#fefe00"/>
  <path id="Path_28388" data-name="Path 28388" d="M0,0H2.472V3.146H0Z" transform="translate(25.025 143.344)" fill="#fefe00"/>
  <path id="Path_28389" data-name="Path 28389" d="M-11.63,0l-.225,3.146h-2.472c-.045-.571-.088-1.141-.133-1.712S-14.506.858-15,.449c.308-.076.618-.151.926-.225.173-.043.346-.083.524-.126A8.132,8.132,0,0,1-11.63,0Z" transform="translate(150.121 141.771)" fill="#efef00"/>
  <path id="Path_28390" data-name="Path 28390" d="M-5.249-.1c.252,0,.252,0,.508,0s.249,0,.506,0c1.249,0,1.249,0,1.755.256q.01.947.013,1.894c0,.182,0,.362.007.548,0,.458-.009.917-.02,1.377-.407.407-.959.254-1.5.254-.249,0-.249,0-.508,0s-.249,0-.5,0c-1.249,0-1.249,0-1.757-.254q-.007-.95-.013-1.9,0-.27-.007-.546c0-.461.009-.919.02-1.377C-6.343-.249-5.79-.1-5.249-.1ZM-6.3.384v3.37h3.595V.384Z" transform="translate(48.851 132.4)" fill="#100b00"/>
  <path id="Path_28391" data-name="Path 28391" d="M-3.652,0l.667,0,.667,0c.568.061.568.061,1.018.51.031.616.043,1.209.027,1.824,0,.169,0,.339,0,.515-.007.418-.013.836-.022,1.256H-4.67c-.013-.591-.02-1.18-.029-1.771,0-.169-.007-.335-.011-.508,0-.44.018-.879.04-1.317C-4.221.061-4.221.061-3.652,0Zm-.568.51V3.656h2.472V.51Z" transform="translate(70.813 142.835)" fill="#191700"/>
  <path id="Path_28392" data-name="Path 28392" d="M-3.652,0l.667,0,.667,0c.568.061.568.061,1.018.51.031.616.043,1.209.027,1.824,0,.169,0,.339,0,.515-.007.418-.013.836-.022,1.256H-4.67c-.013-.591-.02-1.18-.029-1.771,0-.169-.007-.335-.011-.508,0-.44.018-.879.04-1.317C-4.221.061-4.221.061-3.652,0Zm-.568.51V3.656h2.472V.51Z" transform="translate(29.246 142.835)" fill="#191700"/>
  <path id="Path_28393" data-name="Path 28393" d="M-9.156,0-8.366,0l.6.007c-.515,1.368-.515,1.368-1.348,1.8a3.711,3.711,0,0,1-1.573,0A4.67,4.67,0,0,1-11.81.683V.234A10.625,10.625,0,0,1-9.156,0Z" transform="translate(137.495 133.898)" fill="#f9f900"/>
  <path id="Path_28394" data-name="Path 28394" d="M-4.884-.061c.661.182.661.182,1.11.856A3.091,3.091,0,0,1-4,1.918c-.674.449-.674.449-1.249.393a1.63,1.63,0,0,1-1-.618,4.24,4.24,0,0,1,0-1.348C-5.572-.1-5.572-.1-4.884-.061Z" transform="translate(146.086 158.052)" fill="#fcfc00"/>
  <path id="Path_28395" data-name="Path 28395" d="M-.775,0,.573.674v.449l1.573.449v.449c.186.063.373.124.564.189L6.864,3.595v.449C3.972,3.788,1.494,2.267-1,.9Z" transform="translate(51.415 32.35)" fill="#fff"/>
  <path id="Path_28396" data-name="Path 28396" d="M0,0,.225.449C4.341.562,4.341.562,8.538.674v1.8l-.449-.225V1.123c-.333,0-.333,0-.67.007-.82.009-1.64.013-2.46.018-.355,0-.71,0-1.065.009-.512.007-1.022.009-1.532.011l-.481.007A2.675,2.675,0,0,1,0,.674Z" transform="translate(102.092 156.825)" fill="#474703"/>
  <path id="Path_28397" data-name="Path 28397" d="M0,0,7.639.225l-.225.9a2.861,2.861,0,0,1-1.883.364c-.18-.067-.18-.067-.364-.139L6.516.9l-.5-.034C5.264.813,4.514.757,3.763.7,3.5.685,3.242.667,2.975.649L2.215.591c-.231-.016-.461-.031-.7-.049A3.506,3.506,0,0,1,0,0Z" transform="translate(68.839 35.944)" fill="#fff"/>
  <path id="Path_28398" data-name="Path 28398" d="M-9.3-.154a4.46,4.46,0,0,1,.9.9c-.449.449-1.308.317-1.923.351-.24.016-.24.016-.485.029-.4.025-.791.047-1.186.07.4-.863.4-.863.843-1.18A3.764,3.764,0,0,1-9.3-.154Z" transform="translate(137.684 131.815)" fill="#f0f000"/>
  <path id="Path_28399" data-name="Path 28399" d="M-15.506,0l.449.225q-.947.961-1.9,1.919c-.213.218-.429.436-.643.656q-.462.468-.928.935c-.186.189-.371.377-.564.571-.463.413-.463.413-.912.413a6.526,6.526,0,0,1,1.741-2.233c.115-.115.231-.229.348-.348C-17.142,1.377-16.344.681-15.506,0Z" transform="translate(68.392 57.514)" fill="#fff"/>
  <path id="Path_28400" data-name="Path 28400" d="M0-.155Q.772-.172,1.546-.182L2.413-.2c.732.045.732.045,1.182.494a3.668,3.668,0,0,1-2.3.476C1.049.768.807.764.557.759L0,.744Z" transform="translate(129.279 155.408)" fill="#dbdb00"/>
  <path id="Path_28401" data-name="Path 28401" d="M-6.2,0l.449.225-.225.449h4.718V.9q-1.116.115-2.233.225c-.207.022-.416.043-.629.065A33.373,33.373,0,0,1-8,1.348V.9c.29-.157.58-.31.872-.463.16-.088.321-.173.488-.261Z" transform="translate(11.905 37.967)" fill="#fff"/>
  <path id="Path_28402" data-name="Path 28402" d="M-3.938,0h.225a15.373,15.373,0,0,1-.449,4.269l-.225.225c-.09.566-.169,1.13-.238,1.7-.02.16-.04.319-.063.485l-.148,1.186h-.225A19.381,19.381,0,0,1-4.5,2.669c.054-.258.108-.517.162-.782Q-4.139.944-3.938,0Z" transform="translate(106.48 102.002)" fill="#fff"/>
  <path id="Path_28403" data-name="Path 28403" d="M-5.427,0h.674l.225,1.123L-4.753.674A2.951,2.951,0,0,0-5.764,2.332,7.78,7.78,0,0,1-6.775,4.494L-7,4.044a5.686,5.686,0,0,1,.407-.813A10.532,10.532,0,0,0-5.652.449Z" transform="translate(75.165 56.391)" fill="#fff"/>
  <path id="Path_28404" data-name="Path 28404" d="M-12.405-.434l-.4.2a6.912,6.912,0,0,0-2.743,2.274L-16,1.812C-15.173.512-14.142-1.012-12.405-.434Z" transform="translate(78.323 139.959)" fill="#312300"/>
  <path id="Path_28405" data-name="Path 28405" d="M-12.405-.434l-.4.2a6.912,6.912,0,0,0-2.743,2.274L-16,1.812C-15.173.512-14.142-1.012-12.405-.434Z" transform="translate(36.756 139.959)" fill="#312300"/>
  <path id="Path_28406" data-name="Path 28406" d="M0,0H1.348c.009.375.009.748,0,1.123-.225.225-.225.225-.8.238L0,1.348Z" transform="translate(113.551 139.075)" fill="#696904"/>
  <path id="Path_28407" data-name="Path 28407" d="M0,0A3.263,3.263,0,0,1,1.305.9a3.962,3.962,0,0,0,2.065.9v.449A3.762,3.762,0,0,1,.449.9V.449H0Z" transform="translate(34.687 155.253)" fill="#332600"/>
  <path id="Path_28408" data-name="Path 28408" d="M-5.606,0c.27,0,.27,0,.546,0s.281,0,.568.007c.189,0,.38,0,.575,0,.467,0,.937.007,1.4.011V.246q-.8.115-1.6.225c-.148.02-.3.043-.452.065A16.53,16.53,0,0,1-7.23.7V.246A4.3,4.3,0,0,1-5.606,0Z" transform="translate(10.011 39.069)" fill="#fff"/>
  <path id="Path_28409" data-name="Path 28409" d="M0,0C.126.166.249.335.38.506A9.643,9.643,0,0,0,2.022,2.022l.449.449a2.286,2.286,0,0,1-2.022-.9A1.9,1.9,0,0,1,0,0Z" transform="translate(20.981 154.578)" fill="#2a1d00"/>
  <path id="Path_28410" data-name="Path 28410" d="M-1.536,0a2.594,2.594,0,0,1,.393,1.953c-.029.265-.029.265-.061.535-.036.144-.072.288-.108.434-.222.112-.222.112-.449.225-.049-.355-.1-.712-.139-1.067-.027-.2-.054-.4-.081-.6A2.369,2.369,0,0,1-1.536,0Z" transform="translate(56.219 148.961)" fill="#2e1400"/>
  <path id="Path_28411" data-name="Path 28411" d="M0,0A4.611,4.611,0,0,1,2.317,2.092c.076.189.076.189.155.38-.9-.3-1.2-.845-1.8-1.573L0,.449Z" transform="translate(70.861 139.525)" fill="#2e1d00"/>
  <path id="Path_28412" data-name="Path 28412" d="M0,0A4.611,4.611,0,0,1,2.317,2.092c.076.189.076.189.155.38-.9-.3-1.2-.845-1.8-1.573L0,.449Z" transform="translate(29.294 139.525)" fill="#2e1d00"/>
  <path id="Path_28413" data-name="Path 28413" d="M-6.978,0h.449A2.918,2.918,0,0,1-7.877,2.022,3.979,3.979,0,0,1-9,2.247c.166-.121.335-.24.506-.364A8.3,8.3,0,0,0-6.978,0Z" transform="translate(24.364 154.803)" fill="#241700"/>
  <path id="Path_28414" data-name="Path 28414" d="M0,0H2.247C1.573.674,1.573.674,1,.759L.449.674Z" transform="translate(116.023 159.746)" fill="#f8f800"/>
  <path id="Path_28415" data-name="Path 28415" d="M-8.528-1.269V-.82A5.7,5.7,0,0,1-11-1.494,3.627,3.627,0,0,1-8.528-1.269Z" transform="translate(66.807 37.214)" fill="#fff"/>
  <path id="Path_28416" data-name="Path 28416" d="M-1.551,0c.043.216.043.216.085.436C-1.4.665-1.4.665-1.326.9l.449.225a12.379,12.379,0,0,1-.674,1.123H-2Q-1.774,1.125-1.551,0Z" transform="translate(64.772 17.52)" fill="#fff"/>
  <path id="Path_28417" data-name="Path 28417" d="M-1.551,0-.427.674-.652,1.8-.877.9-2,1.348Z" transform="translate(127.684 143.119)" fill="#2b2b05"/>
  <path id="Path_28418" data-name="Path 28418" d="M0,0H.674L.9.674H.449V2.247H.225Z" transform="translate(47.044 68.749)" fill="#fff"/>
  <path id="Path_28419" data-name="Path 28419" d="M-3.877,0V.674l.449.449L-5,1.348A2.112,2.112,0,0,1-3.877,0Z" transform="translate(90.69 34.596)" fill="#fff"/>
  <path id="Path_28420" data-name="Path 28420" d="M-.775,0,1.472.225V.449L-1,.674Z" transform="translate(80.174 38.865)" fill="#fff"/>
</svg>
