<svg id="splashlogo" xmlns="http://www.w3.org/2000/svg" width="223.913" height="168.812" viewBox="0 0 223.913 168.812">
  <g id="sublogo">
    <path id="Path_5852" data-name="Path 5852" d="M19.579-89.227a7.853,7.853,0,0,0,3.15,4.913,10.86,10.86,0,0,0,5.931,1.44,27.2,27.2,0,0,0,5.318-.593,31.3,31.3,0,0,0,5.809-1.779,27.709,27.709,0,0,1,2,5.251,25.68,25.68,0,0,1,.941,6.353,41.223,41.223,0,0,1-14.889,2.8,27.066,27.066,0,0,1-10.1-1.694,17.9,17.9,0,0,1-6.872-4.7A19.049,19.049,0,0,1,6.939-84.4a30.9,30.9,0,0,1-1.267-9.063,30.535,30.535,0,0,1,1.308-9.064,21.039,21.039,0,0,1,3.927-7.369,18.566,18.566,0,0,1,6.543-4.955,21.58,21.58,0,0,1,9.163-1.821,18.686,18.686,0,0,1,7.731,1.525,16.844,16.844,0,0,1,5.768,4.193,18.366,18.366,0,0,1,3.64,6.437,25.485,25.485,0,0,1,1.267,8.174,37.109,37.109,0,0,1-.2,4.108q-.2,1.821-.369,3.007Zm6.545-16.686a6.494,6.494,0,0,0-4.5,1.694,7.731,7.731,0,0,0-2.209,5.251h13.09a8.445,8.445,0,0,0-1.76-4.955A5.575,5.575,0,0,0,26.124-105.913Zm48.84-3.134q3.436,1.44,6.177,2.922a18.575,18.575,0,0,1,4.7,3.558,14.269,14.269,0,0,1,3.027,5A20.763,20.763,0,0,1,89.935-90.5a20.687,20.687,0,0,1-1.513,8.089,16.768,16.768,0,0,1-4.459,6.182,20.388,20.388,0,0,1-7.24,3.981,31.845,31.845,0,0,1-9.858,1.4,42.355,42.355,0,0,1-8.958-.847,54.657,54.657,0,0,1-8.384-2.625,49.553,49.553,0,0,1,1.145-6.31q.818-3.346,1.963-6.818,7.526,3.387,13.09,3.387a13.371,13.371,0,0,0,6.5-1.312,4.763,4.763,0,0,0,2.332-4.532,5.124,5.124,0,0,0-.491-2.329,5.1,5.1,0,0,0-1.309-1.652,8.192,8.192,0,0,0-1.841-1.144q-1.023-.466-2.086-.889L64.247-97.7a29.041,29.041,0,0,1-5.359-2.626,17.323,17.323,0,0,1-4.131-3.6,15.29,15.29,0,0,1-2.659-4.786,19.394,19.394,0,0,1-.94-6.352,20.24,20.24,0,0,1,1.472-7.962,16.572,16.572,0,0,1,4.131-5.887,17.472,17.472,0,0,1,6.422-3.642,27.073,27.073,0,0,1,8.426-1.228,37.737,37.737,0,0,1,8.058.847,64.585,64.585,0,0,1,8.3,2.457,44.655,44.655,0,0,1-1.186,5.971,38.531,38.531,0,0,1-2.168,6.141q-2.127-.932-4.99-1.948a21.482,21.482,0,0,0-7.117-1.016,11.888,11.888,0,0,0-2.5.254,7.141,7.141,0,0,0-2.127.8,4.194,4.194,0,0,0-1.513,1.525,4.7,4.7,0,0,0-.573,2.414,4.288,4.288,0,0,0,1.554,3.642,15.465,15.465,0,0,0,3.682,2.033ZM123.8-88.041H111.7v16.093q-2.127.339-3.845.508t-3.109.169q-1.391,0-3.109-.169t-3.763-.508v-43.706a26.705,26.705,0,0,1,3.559-.593q1.759-.169,3.4-.169,1.554,0,3.354.169a24.12,24.12,0,0,1,3.518.593v14.907H123.8v-14.907a26.7,26.7,0,0,1,3.559-.593q1.759-.169,3.4-.169,1.554,0,3.354.169a24.123,24.123,0,0,1,3.518.593v43.706q-2.127.339-3.845.508t-3.109.169q-1.391,0-3.109-.169t-3.763-.508Zm20.943-5.506a31.268,31.268,0,0,1,1.35-9.444,20.274,20.274,0,0,1,4.009-7.327,17.7,17.7,0,0,1,6.585-4.7,23.267,23.267,0,0,1,9.081-1.652,23.5,23.5,0,0,1,9.163,1.652,17.7,17.7,0,0,1,6.586,4.7,20.274,20.274,0,0,1,4.008,7.327,31.269,31.269,0,0,1,1.35,9.444,30.149,30.149,0,0,1-1.35,9.275,19.94,19.94,0,0,1-4.009,7.2,17.5,17.5,0,0,1-6.585,4.615,24.043,24.043,0,0,1-9.163,1.609,23.807,23.807,0,0,1-9.081-1.609,17.5,17.5,0,0,1-6.586-4.616,19.94,19.94,0,0,1-4.009-7.2,30.149,30.149,0,0,1-1.349-9.274Zm28.142,0q0-5.421-1.759-8.3a5.851,5.851,0,0,0-5.358-2.879,5.76,5.76,0,0,0-5.318,2.88q-1.718,2.88-1.718,8.3,0,5.336,1.718,8.216a5.76,5.76,0,0,0,5.318,2.88,5.853,5.853,0,0,0,5.359-2.88q1.759-2.88,1.759-8.217Zm34.606.508a7.829,7.829,0,0,0,1.023.127q.614.042,1.022.042a7.263,7.263,0,0,0,4.7-1.482q1.841-1.482,1.841-5.04a5.989,5.989,0,0,0-1.841-4.7,6.55,6.55,0,0,0-4.54-1.652h-.941a9.883,9.883,0,0,0-1.267.085ZM194-115.486q3.763-.592,7.731-.887t7.649-.3a37.449,37.449,0,0,1,7.363.72,17.852,17.852,0,0,1,6.463,2.626,13.962,13.962,0,0,1,4.622,5.251,18.636,18.636,0,0,1,1.759,8.683,18.608,18.608,0,0,1-1.6,8.131,14.728,14.728,0,0,1-4.213,5.336A16.562,16.562,0,0,1,217.844-83a25.922,25.922,0,0,1-6.749.889q-1.391,0-2.373-.085a6.972,6.972,0,0,1-1.227-.169v10.418a32.17,32.17,0,0,1-3.8.551q-1.677.127-2.986.127-1.391,0-2.986-.127A32.7,32.7,0,0,1,194-71.947Z" transform="translate(-5.671 203.485)" fill="#fff"/>
    <path id="Delivery_Time" data-name="Delivery Time" d="M8.909-2.256A5.32,5.32,0,0,1,4.233,3.326a.359.359,0,0,1-.2-.041,27.58,27.58,0,0,1-.139-4c0-2.637.06-5.644.139-5.726,0-.021.1-.021.259-.021C5.288-6.458,8.909-6.005,8.909-2.256ZM2.4,5.818c3.143,0,9.152-1.895,9.152-8.054,0-3.934-3.044-6.591-8.654-6.591a8.6,8.6,0,0,0-2.348.206c-.02.021-.02.041-.02.082a8.834,8.834,0,0,0,.9,2.431c0,2.492-.06,4.985-.06,8.136a22.673,22.673,0,0,0,.139,3.687A2.545,2.545,0,0,0,2.4,5.818ZM18.737-1.391A3.212,3.212,0,0,1,16.15,1.245c-.08,0-.08-.062-.08-.288,0-1.627.975-2.945,2.049-2.945A.569.569,0,0,1,18.737-1.391Zm-.875,7.024a4.935,4.935,0,0,0,2.606-.474,3.427,3.427,0,0,0,.5-1.854c0-.124-.02-.391-.06-.391a.069.069,0,0,0-.04.021,4.674,4.674,0,0,1-2.387.556c-1.035,0-1.452-.433-1.452-.556C19.572,2.028,21.064.154,21.064-1.6a2.253,2.253,0,0,0-2.507-2.245c-3.223,0-4.815,2.451-4.815,5.129C13.743,3.7,15.076,5.633,17.861,5.633Zm7.958-8.981c0-1.545.06-5.046.1-5.355,0-.041-.318-.082-.5-.082-.716,0-1.87.453-1.87.742,0,.227.08.742.08,2.822,0,3.275-.08,5.355-.08,7.456,0,1.009,0,1.833.02,2.163.119,1.277.537,1.813.617,1.813A3.409,3.409,0,0,0,26.4,5.1a3.393,3.393,0,0,1-.577-1.648c-.04-.33-.04-.968-.04-1.751C25.779-.258,25.819-1.8,25.819-3.348Zm5.809-2.41a1.233,1.233,0,0,0-1.233-1.38,1.486,1.486,0,0,0-1.413,1.38c0,.906.477,1.4,1.214,1.4A1.491,1.491,0,0,0,31.628-5.758Zm-.756,2.575a2.688,2.688,0,0,0-1.611.371c-.08.165-.139,3.3-.139,5.417,0,.845.02,1.524.04,1.792.119,1.277.517,1.813.6,1.813A3.409,3.409,0,0,0,31.967,5.1a3.443,3.443,0,0,1-.537-1.648c-.04-.35-.06-1.174-.06-2.122,0-1.895.06-4.284.06-4.387C31.33-3.183,30.872-3.183,30.872-3.183Zm6.7,5.5c-.06.1-.08,0-.08,0-.617-1.421-1.83-6.53-1.83-6.53a2.865,2.865,0,0,0-2.109.6c0,1.5,2.527,8.116,2.527,9.1A2.621,2.621,0,0,0,37,5.612s1.651-.062,1.91-.33A94.028,94.028,0,0,0,41.934-4.975s-.119-.206-1.214-.206c-.458,0-1.214.144-1.233.309A43.28,43.28,0,0,1,37.577,2.316ZM48.718-1.391a3.212,3.212,0,0,1-2.586,2.637c-.08,0-.08-.062-.08-.288,0-1.627.975-2.945,2.049-2.945A.569.569,0,0,1,48.718-1.391Zm-.875,7.024a4.935,4.935,0,0,0,2.606-.474,3.427,3.427,0,0,0,.5-1.854c0-.124-.02-.391-.06-.391a.069.069,0,0,0-.04.021,4.674,4.674,0,0,1-2.387.556c-1.035,0-1.452-.433-1.452-.556C49.553,2.028,51.046.154,51.046-1.6a2.253,2.253,0,0,0-2.507-2.245c-3.223,0-4.815,2.451-4.815,5.129C43.724,3.7,45.057,5.633,47.842,5.633ZM59.023-3a1.637,1.637,0,0,0-.159-.783A3.935,3.935,0,0,0,55.9-2.133c-.04.041-.06.041-.08.041-.04,0-.04-.433-.04-.474,0-.536.04-1.318.06-1.5,0-.062-.239-.1-.418-.1a2.981,2.981,0,0,0-1.81.577,4.751,4.751,0,0,0-.08,1.3c0,1.195.04,3.028.04,4.676a23.476,23.476,0,0,1-.139,3.254c0,.062.08.062.159.062a3.71,3.71,0,0,0,2.188-.556A22.259,22.259,0,0,0,55.84,2.6V.792a2.593,2.593,0,0,1,2.566-1.957,2.023,2.023,0,0,1,.259.041A3.443,3.443,0,0,0,59.023-3Zm6.943,7.333c0,4.49-2.149,4.861-3.422,5.046a2.089,2.089,0,0,1-.358.021,3.6,3.6,0,0,0,.736,2.122c1.532,0,5.252-.948,5.252-6.632,0-1.009-.02-3.357-.02-5.479a24.385,24.385,0,0,1,.159-3.337c0-.062-.139-.062-.3-.062a3.661,3.661,0,0,0-2.049.556,8.535,8.535,0,0,0-.1,1.895c0,1.195.04,2.492.04,2.492s-.239,1.586-1.552,1.586C63.281,2.543,63.062.978,63.062-1a25.208,25.208,0,0,1,.219-3.151,1.881,1.881,0,0,0-.637-.1,2.593,2.593,0,0,0-1.611.433,13.018,13.018,0,0,0-.219,2.389c0,3.522.06,6.509,2.547,6.509a2.976,2.976,0,0,0,2.467-1.4q.03-.062.06-.062c.04,0,.06.082.06.124C65.947,3.841,65.966,4.129,65.966,4.335Zm13.29,1.71c1.472,0,2.228-.412,2.228-.515V5.509c-.477-.906-.6-4.346-.6-7.25a43.386,43.386,0,0,1,.139-4.49,3.582,3.582,0,0,1,.935-.062,15.678,15.678,0,0,1,2.049.1,7.422,7.422,0,0,0,.338-2.41,7.324,7.324,0,0,0-1.492-.082c-.776,0-3.183.082-3.939.124-1.651.1-3.2.124-3.2.124a4.953,4.953,0,0,0-.438,1.977,2.763,2.763,0,0,0,.06.536s2.009-.288,2.765-.288a.575.575,0,0,1,.279.041,4.724,4.724,0,0,1,.06,1.112C78.44-3.1,78.3.936,78.3,3.511a9.458,9.458,0,0,0,.139,2.348A1.562,1.562,0,0,0,79.256,6.045Zm9.828-11.8a1.233,1.233,0,0,0-1.233-1.38,1.486,1.486,0,0,0-1.413,1.38c0,.906.477,1.4,1.214,1.4A1.491,1.491,0,0,0,89.084-5.758Zm-.756,2.575a2.688,2.688,0,0,0-1.611.371c-.08.165-.139,3.3-.139,5.417,0,.845.02,1.524.04,1.792.119,1.277.517,1.813.6,1.813A3.409,3.409,0,0,0,89.422,5.1a3.443,3.443,0,0,1-.537-1.648c-.04-.35-.06-1.174-.06-2.122,0-1.895.06-4.284.06-4.387C88.786-3.183,88.328-3.183,88.328-3.183ZM98.713-.444a1.436,1.436,0,0,1,1.194-.906c1.134,0,1.214,1.483,1.214,3.584a34.829,34.829,0,0,1-.219,3.625,1.881,1.881,0,0,0,.637.1,3.1,3.1,0,0,0,1.711-.412s.08-1.05.08-2.41c0-3.522-.06-7.189-2.547-7.189A3.185,3.185,0,0,0,98.275-2.4,2.009,2.009,0,0,0,96.326-3.6,3.646,3.646,0,0,0,94.177-2.38c-.04.041-.06.041-.08.041-.04,0-.04-.1-.04-.1,0-.391.06-1.524.08-1.751,0-.041-.239-.082-.418-.082a2.848,2.848,0,0,0-1.731.618,5.2,5.2,0,0,0-.1,1.421c0,1.277.06,3.172.06,4.84a23.445,23.445,0,0,1-.139,3.028c0,.062.08.062.159.062A3.155,3.155,0,0,0,94.058,5.2a13.864,13.864,0,0,0,.08-2.122c0-1.215-.02-2.492-.02-2.616,0-.247.5-1.668,1.552-1.668.855,0,.9.947.9,2.616a26.183,26.183,0,0,1-.179,3.131,1.881,1.881,0,0,0,.637.1,2.914,2.914,0,0,0,1.671-.412,8.147,8.147,0,0,0,.08-1.627C98.773.875,98.773.215,98.713-.444Zm12-.947a3.212,3.212,0,0,1-2.586,2.637c-.08,0-.08-.062-.08-.288,0-1.627.975-2.945,2.049-2.945A.569.569,0,0,1,110.71-1.391Zm-.875,7.024a4.935,4.935,0,0,0,2.606-.474,3.427,3.427,0,0,0,.5-1.854c0-.124-.02-.391-.06-.391a.069.069,0,0,0-.04.021,4.674,4.674,0,0,1-2.387.556c-1.035,0-1.452-.433-1.452-.556,2.547-.906,4.039-2.781,4.039-4.532a2.253,2.253,0,0,0-2.507-2.245c-3.223,0-4.815,2.451-4.815,5.129C105.716,3.7,107.049,5.633,109.834,5.633Z" transform="translate(54.852 157.288)" fill="#fff"/>
    <g id="icon" transform="translate(91.19)">
      <path id="Path_6287" data-name="Path 6287" d="M342.052,223.2l-11.359.528,11.359.528Z" transform="translate(-299.111 -165.37)" fill="#fff"/>
      <path id="Path_6288" data-name="Path 6288" d="M351.4,226.247c-1.739.394-3.415.4-4.556-.742-.022-.022-.048-.059-.071-.084l-20.952.814,25.456.989C351.31,226.895,351.349,226.57,351.4,226.247Z" transform="translate(-299.799 -164.969)" fill="#fff"/>
      <path id="Path_6289" data-name="Path 6289" d="M352.03,228.036c0-.115.012-.229.014-.344l-31.978,1.039,32.092,1.044A13.25,13.25,0,0,1,352.03,228.036Z" transform="translate(-300.611 -164.559)" fill="#fff"/>
      <path id="Path_6290" data-name="Path 6290" d="M353.049,230.116,314.527,231.2l39.156,1.1A12.938,12.938,0,0,1,353.049,230.116Z" transform="translate(-301.387 -164.122)" fill="#fff"/>
      <path id="Path_6291" data-name="Path 6291" d="M354.742,232.535l-45.755,1.134,47.089,1.167A12.962,12.962,0,0,1,354.742,232.535Z" transform="translate(-302.165 -163.683)" fill="#fff"/>
      <path id="Path_6292" data-name="Path 6292" d="M357.326,234.946l-54.32,1.193,56.959,1.25A12.631,12.631,0,0,1,357.326,234.946Z" transform="translate(-303.006 -163.248)" fill="#fff"/>
      <path id="Path_6293" data-name="Path 6293" d="M369.706,231.645a5.44,5.44,0,0,1-5.293-5.47c0-.161.033-.31.046-.466a5.533,5.533,0,0,1,1.466-3.351,38.519,38.519,0,0,0-9.644.268q-1.345.2-2.68.5c-.565.126-1.13.241-1.69.393-.207.056-.509.163-.846.285h0a10.745,10.745,0,0,0-.531,1.156v0c-.025.064-.046.131-.069.195-.072.194-.146.387-.207.586-.039.126-.069.255-.1.382s-.06.235-.088.353c-.069.3-.125.6-.171.909-.018.119-.04.241-.054.364-.006.045-.016.089-.021.133-.023.245-.031.493-.04.742,0,.136-.019.269-.019.406h0a11.187,11.187,0,0,0,.156,1.8c.036.222.077.443.126.661a10.954,10.954,0,0,0,.795,2.3c.09.191.18.378.279.561s.2.334.3.5a10.658,10.658,0,0,0,.733,1.067,10.817,10.817,0,0,0,.76.849c.146.149.3.288.454.427a10.221,10.221,0,0,0,6.857,2.664h.009c.333,0,.663-.02.988-.052.109-.011.218-.03.327-.044.216-.028.43-.06.642-.1.128-.026.253-.056.381-.086.187-.045.373-.093.555-.148q.2-.06.4-.128c.17-.058.336-.123.5-.191.135-.054.269-.108.4-.167.153-.07.3-.148.45-.224s.274-.136.406-.213c.1-.06.205-.13.308-.194a10.431,10.431,0,0,0,.961-.674c.063-.05.128-.1.189-.146.171-.142.335-.293.5-.445.058-.056.119-.11.176-.167q.246-.243.476-.5c.044-.05.089-.1.132-.151.161-.187.317-.379.465-.578l.058-.08a10.929,10.929,0,0,0,1.824-3.953h0Zm-9.487,1.339a3.948,3.948,0,1,1,3.811-3.945,3.879,3.879,0,0,1-3.811,3.945Z" transform="translate(-296.438 -165.562)" fill="#fff"/>
      <path id="Path_6294" data-name="Path 6294" d="M419.243,228.084c-.012-.122-.036-.239-.052-.36-.039-.274-.081-.546-.138-.811-.029-.13-.063-.257-.1-.385-.065-.256-.136-.509-.219-.757-.039-.119-.081-.234-.123-.349q-.145-.391-.318-.768c-.041-.091-.082-.183-.126-.273q-.216-.436-.467-.848c-.025-.042-.049-.087-.076-.13a10.726,10.726,0,0,0-2.307-2.619h0c-.748.119-1.575.28-2.457.5-4.275,1.078-9.636,3.528-11.556,9.107a2.888,2.888,0,0,1-2.481,1.964h0c.062.215.133.42.207.628.033.092.063.184.1.274.074.195.155.385.24.573.043.1.089.194.135.289.088.183.18.364.276.54.051.092.1.181.159.271.1.176.209.353.323.522.029.044.062.083.09.125a10.784,10.784,0,0,0,.749.959c.084.1.165.195.253.288.115.123.236.239.357.357.1.1.21.2.318.3s.24.209.363.31.252.2.381.294.235.176.356.259c.161.109.327.21.495.31.1.059.191.122.291.177q.4.22.811.4c.095.042.194.078.291.119.2.08.395.157.6.225.114.039.23.073.346.107.195.058.392.111.59.157.117.027.235.053.354.077.214.041.431.074.65.1.1.013.209.031.314.041.323.031.648.051.977.051h.009a10.139,10.139,0,0,0,2.408-.3,9.638,9.638,0,0,0,2.577-1.007,10.864,10.864,0,0,0,5.432-8.551c.027-.32.042-.644.042-.971h0A11.264,11.264,0,0,0,419.243,228.084ZM408.85,233.23a3.948,3.948,0,1,1,3.812-3.946,3.88,3.88,0,0,1-3.812,3.946Z" transform="translate(-289.548 -165.808)" fill="#fff"/>
      <path id="Path_6295" data-name="Path 6295" d="M374.4,229.447c-.059-.08-.126-.153-.184-.237-.067-.1-.152-.208-.225-.31h-8.55a.4.4,0,0,1,0-.794h7.951c-.209-.261-.429-.525-.668-.794h-7.283a.38.38,0,0,1-.339-.2.408.408,0,0,1,0-.4.38.38,0,0,1,.339-.2h6.537c-.265-.266-.554-.53-.852-.795h-5.685a.4.4,0,0,1,0-.793h4.718a20.378,20.378,0,0,0-2.962-1.918c-.27-.143-.566-.276-.851-.413-.381-.06-.762-.113-1.144-.162a4.786,4.786,0,0,0-1.476,5.185,4.542,4.542,0,0,0,4.226,3.174l.828-.022,6.706-.181A6.674,6.674,0,0,1,374.4,229.447Z" transform="translate(-294.696 -165.509)" fill="#fff"/>
      <path id="Path_6296" data-name="Path 6296" d="M403.818,229.958a14.716,14.716,0,0,1,.857-3.629,12.85,12.85,0,0,1,4.775-6.086,10.182,10.182,0,0,1,5.509-1.87l-6.833-15.74-1.049.453-1.837.792-1.054.455,1.872,6.785-.332.243-.331.242h0l-2.014,1.474a1.472,1.472,0,0,0-.592,1.1l-.468,8.028h0a1.456,1.456,0,0,0,.038.406c.007.031.015.061.023.092a1.461,1.461,0,0,0,.4.658c.018.018.038.035.057.052a1.416,1.416,0,0,0,.326.215h0a1.4,1.4,0,0,0,.385.1,1.23,1.23,0,0,0,.176.019h.315l-.144.174-.628,4.114a4.74,4.74,0,0,1-1.838,3.092,4.433,4.433,0,0,1-3.416.822l-8.939-1.555a4.562,4.562,0,0,1-3.227-2.359,4.863,4.863,0,0,1-.231-4.083l3.187-8.028a4.684,4.684,0,0,1-1.4.472,7.594,7.594,0,0,1-1.277.111c-.18,0-.35,0-.51-.012a32.577,32.577,0,0,1-8.164-1.763c-1.453-.448-2.957-.91-4.452-1.242a18.522,18.522,0,0,0-2.9-.191,25.854,25.854,0,0,1-4.766-.4,6.663,6.663,0,0,1-1.225-.39l-.833.876a5.22,5.22,0,0,1-3.761,1.631H353l-.275-.4-.258-.37h0l-1.54-2.211h7.329a1.173,1.173,0,0,0,1.15-1.192,1.207,1.207,0,0,0-.085-.436,1.263,1.263,0,0,0-.22-.357H341.927a1.181,1.181,0,0,0-.3.769c0,.008,0,.016,0,.024a1.173,1.173,0,0,0,1.15,1.192h5.324l2.107,3.025.222.32.225.322a3.8,3.8,0,0,0-1.552,3.08v2.585c.384-.389.769-.754,1.138-1.085.2-.178.395-.349.583-.509a18.906,18.906,0,0,1,6.7-3.586,23.7,23.7,0,0,1,5.3-.968c.275-.019.544-.051.823-.061a17.652,17.652,0,0,1,13.461,5.565c1.492,1.609,3.961,4.61,3.747,6.631a1.645,1.645,0,0,1-.73,1.322,1.707,1.707,0,0,1-.9.223,4.693,4.693,0,0,1-1.476-.3c-.333-.113-.655-.247-.965-.38-.137-.059-.28-.119-.407-.176-.283-.125-.53-.231-.728-.3-.021-.007-.046-.019-.065-.024a38.966,38.966,0,0,0-3.783-1.041,20.048,20.048,0,0,1,5.933,5.655,6.054,6.054,0,0,0,.537.668,5.681,5.681,0,0,0,2.233,1.514,5.449,5.449,0,0,0,1.883.347h16.806a5.751,5.751,0,0,0,4.555-2.3c-.023-.492-.031-1.033,0-1.622C403.754,230.628,403.781,230.3,403.818,229.958Z" transform="translate(-297.581 -169.091)" fill="#fff"/>
      <path id="Path_6297" data-name="Path 6297" d="M400.575,231.438a2.169,2.169,0,0,0,.3-.563c1.949-5.662,7.174-8.257,11.524-9.454.814-.223,1.6-.4,2.321-.536.385-.073.76-.138,1.11-.191a.668.668,0,0,0,.549-.534.692.692,0,0,0-.294-.718,16.8,16.8,0,0,0-7.67-2.783c-.144-.008-.286-.02-.431-.024-.092,0-.182-.015-.276-.015-.049,0-.1,0-.149,0a9.957,9.957,0,0,0-1.208.086,9.481,9.481,0,0,0-4.211,1.66,12.41,12.41,0,0,0-5.3,9.153c-.046.432-.073.844-.083,1.239-.008.3-.01.582,0,.851.006.235.015.459.029.67l0,.042a2.136,2.136,0,0,0,2.105,2c.011,0,.022-.006.033-.006A2.08,2.08,0,0,0,400.575,231.438Z" transform="translate(-289.836 -166.56)" fill="#fff"/>
      <path id="Path_6298" data-name="Path 6298" d="M361.265,211a2.9,2.9,0,0,0,.352.2q.181.085.387.158a7.766,7.766,0,0,0,1.292.318,30.532,30.532,0,0,0,4.145.279,18.314,18.314,0,0,1,3.049.208c1.525.338,3.043.805,4.512,1.256a32.045,32.045,0,0,0,7.977,1.731,6.548,6.548,0,0,0,2.112-.2,3.383,3.383,0,0,0,.989-.436,2.246,2.246,0,0,0,.23-.2,2.69,2.69,0,0,0,.544-.7,2.812,2.812,0,0,0,.3-1.073,2.875,2.875,0,0,0-.034-.674c-.375-.038-.762-.065-1.15-.093-.323-.024-.626-.062-.957-.079a50.034,50.034,0,0,1-8.558-.966,5.2,5.2,0,0,1-2.088-1,4.508,4.508,0,0,1-1.572-2.229c-.24-.145-.477-.294-.72-.429a15.531,15.531,0,0,0-6.275-1.27,7.656,7.656,0,0,0-3.952.873,2.878,2.878,0,0,0-1.414,2.648,2.359,2.359,0,0,0,.219,1.052A1.672,1.672,0,0,0,361.265,211Z" transform="translate(-294.915 -168.528)" fill="#fff"/>
      <path id="Path_6299" data-name="Path 6299" d="M399.954,200.688h3.218a3.378,3.378,0,0,0,1.2-.607,2.817,2.817,0,0,0,.749-.88,3.462,3.462,0,0,0,0-3.081,2.983,2.983,0,0,0-1.218-1.2,3.037,3.037,0,0,0-.731-.291l-4.319,2.944-.1.072h0l-.326.222-.326.222-.56-1.413-1.034,1.658c-.018.031-.033.063-.051.093a2.425,2.425,0,0,1,.49.8c.05.129.088.262.13.394a6.3,6.3,0,0,1,.29,2.261,2.964,2.964,0,0,1-.409,1.319,1.365,1.365,0,0,1-.85.694.766.766,0,0,1-.124.015l.339,1.1,1.053-.455,1.762-.759,1.048-.453h0l-1.054-2.662Z" transform="translate(-289.937 -170.536)" fill="#fff"/>
      <path id="Path_6300" data-name="Path 6300" d="M342.326,220.684v2.779h3.217c0-.014,0-.027.007-.042a4.993,4.993,0,0,1,.342-1.058,11.121,11.121,0,0,1,.948-1.678h-4.514Z" transform="translate(-297.481 -165.828)" fill="#fff"/>
      <path id="Path_6301" data-name="Path 6301" d="M345.838,224.692c-.108.429-.1.751.058.908h0c.691.688,3.686-.4,5.124-.925.4-.146.734-.262,1.009-.349.079-.024.176-.059.241-.077h0c.791-.215,1.588-.4,2.386-.564a39.364,39.364,0,0,1,7.975-.823q1.55,0,3.1.126c.512.04,1.021.119,1.532.179l.1.013c.182.021.365.041.546.066.22.031.441.048.661.082l.023,0c.092.014.184.02.276.034a39.843,39.843,0,0,1,4.775,1.1c.3.086.591.167.885.26.23.073.467.125.7.2.063.021.143.056.217.084.188.074.4.163.639.269.9.4,2.424,1.07,3.062.679.074-.045.3-.179.356-.725.13-1.222-1.192-3.463-3.537-5.993a16.809,16.809,0,0,0-12.881-5.322,20.1,20.1,0,0,0-12.37,4.437c-.307.26-.674.584-1.067.957-.365.346-.752.737-1.138,1.157-.129.139-.256.283-.383.429s-.258.3-.383.453c-.147.181-.286.368-.426.557a10.994,10.994,0,0,0-1.216,2.012,4.9,4.9,0,0,0-.247.687C345.848,224.641,345.845,224.665,345.838,224.692Z" transform="translate(-296.998 -167.056)" fill="#fff"/>
      <path id="Path_6302" data-name="Path 6302" d="M373.077,209.171a3.643,3.643,0,0,0-1.2,3.494,3.711,3.711,0,0,0,.195.577c.023.054.039.107.065.162a3.85,3.85,0,0,0,.344.538,3.988,3.988,0,0,0,.606.676,4.393,4.393,0,0,0,1.963,1.026,49.444,49.444,0,0,0,8.433.948c.291.015.558.05.843.07.323.022.638.048.95.078.147.014.3.021.445.037s.3.02.441.037c.879.1,1.723.233,2.524.391l.369.068c.776.135,1.509.262,1.594,1.451a6.184,6.184,0,0,1-1.187,3.363,11.653,11.653,0,0,0-.7,1.315l-.3.725a33.5,33.5,0,0,0-1.86,5.226c.283.046.561.112.834.178l.392.091a.4.4,0,0,1-.015.779,7.18,7.18,0,0,0-.888,1.471,8.392,8.392,0,0,0-.731,3.017c.578.1,1.1.151,1.649.2l.279.026a2.436,2.436,0,0,1,.171-.646.385.385,0,0,1,.35-.234.354.354,0,0,1,.077.008,5.788,5.788,0,0,1,1.791.785,9.117,9.117,0,0,0,1.019.541,5.715,5.715,0,0,0,3.176.407,1.48,1.48,0,0,0,1.026-.49.585.585,0,0,0,.067-.482.256.256,0,0,0-.143-.175,5.545,5.545,0,0,0-.874-.152c-.982-.126-2.2-.282-2.524-1.169a3.837,3.837,0,0,1,.164-2.475.394.394,0,0,1,.207-.235.377.377,0,0,1,.306,0,2.906,2.906,0,0,0,1.152.229.423.423,0,0,0,.171-.024h0a.375.375,0,0,1,0-.117,82.864,82.864,0,0,1,1.9-10.418c.207-.906.415-1.817.612-2.731.058-.265.13-.542.2-.827.315-1.209.637-2.46.071-3.376a5.2,5.2,0,0,0-3.064-1.88,20.775,20.775,0,0,0-5.366-1.011.383.383,0,0,1-.348-.247.406.406,0,0,1,.083-.428c.241-.251.622-.773,1.067-1.376,1.366-1.855,2.549-3.365,3.552-3.864-.46.076-1.2.178-2.134.257-.257.021-.526.041-.811.058a26.282,26.282,0,0,1-3.605-.041,19.914,19.914,0,0,1-2.031-.3c-.346-.077-.7-.158-1.032-.259a2.165,2.165,0,0,1-1.078-.6,2.081,2.081,0,0,1-.539-1.183,1.98,1.98,0,0,1,.035-.676,3.646,3.646,0,0,1,.189-.549,10.618,10.618,0,0,1,1-1.892,16.562,16.562,0,0,1,2.438-2.782,25.273,25.273,0,0,1,1.984-1.647c.495-.373.79-.569.79-.569l-.695.688c-.447.429-1.06,1.073-1.779,1.847a20.261,20.261,0,0,0-2.186,2.845,9.965,9.965,0,0,0-.892,1.783,2.912,2.912,0,0,0-.147.462,1.26,1.26,0,0,0,0,.394,1.365,1.365,0,0,0,.351.731,1.415,1.415,0,0,0,.734.417c.336.111.652.189.975.271a18.82,18.82,0,0,0,1.953.339,34.5,34.5,0,0,0,3.532.281c.419.012.8.021,1.159.028.531.011,1,.016,1.363.008l.707,0a1.162,1.162,0,0,1,.673-.04,5.845,5.845,0,0,0,3.215.039,1.132,1.132,0,0,1,.677-.033.964.964,0,0,1,.415.286l.007.006a2.255,2.255,0,0,1,.367.579c.075.159.14.321.2.481.046.119.09.237.14.352a1.6,1.6,0,0,0,.165.292c.109.153.21.223.26.215.207-.04.534-.543.61-1.154.006-.044.021-.084.023-.129a5.456,5.456,0,0,0-.154-1.538,5.332,5.332,0,0,0-.209-.77,2.455,2.455,0,0,0-.161-.337.972.972,0,0,0-.184-.242.784.784,0,0,0-.1-.065,1.067,1.067,0,0,0-.357-.143,2.821,2.821,0,0,0-.618-.046,9.1,9.1,0,0,0-2.275.339,2.465,2.465,0,0,1-1.066.148,1.07,1.07,0,0,1-.935-1.006,1.4,1.4,0,0,1,.241-.706,34.972,34.972,0,0,0,1.59-3.263c1.391-3.12,2.972-6.655,6.126-7.972a5.862,5.862,0,0,1,3.471-.143l.541.088a1.336,1.336,0,0,0,.748-.014,1.294,1.294,0,0,0,.473-.572,6.23,6.23,0,0,0,.431-1.449,4.973,4.973,0,0,1,.684-1.919,2.05,2.05,0,0,1,1.052-.606c.415-.137.674-.233.75-.484.109-.358.026-.455-.638-.739a1.868,1.868,0,0,1-1.114-.875,1.726,1.726,0,0,1-.116-.485l-.282-2.237a.4.4,0,0,1,.33-.445,7.251,7.251,0,0,0,3.663-1.556,1.426,1.426,0,0,0,.536-.633l0-.013c.059-.272,0-.384-.067-.453-.545-.612-2.949-.26-3.972-.11-.823.119-1,.146-1.175.006a.428.428,0,0,1-.155-.273,2.859,2.859,0,0,0-.943-1.692,4.686,4.686,0,0,0-4.048-1,7.036,7.036,0,0,0-3.924,2.206,6.219,6.219,0,0,0-1.392,2.181,4.4,4.4,0,0,0-.073,2.73,1.578,1.578,0,0,1-1.235,2.346,2.326,2.326,0,0,0,.259.266,1.142,1.142,0,0,0,.988.307.379.379,0,0,1,.422.188.408.408,0,0,1-.054.472,1.98,1.98,0,0,1-1.27.618,1.368,1.368,0,0,0,.754.2.358.358,0,0,1,.372.243c.163.4-1.19,2.24-1.2,2.253a4.352,4.352,0,0,1-1.877.665,7.358,7.358,0,0,0-.857.194,20.651,20.651,0,0,0-5.914,2.753c-2.023,1.435-3.9,2.93-5.478,4.2-2.751,2.225-5.854,4.734-9.538,5.618a14.812,14.812,0,0,0,3.274,4.365.678.678,0,0,1,.205.5.65.65,0,0,1-.22.477C374.725,207.609,373.208,209.032,373.077,209.171Zm17.274-7.7a17.33,17.33,0,0,0-2.193-.261l-.682-.028.52-.5q1.139-1.091,2.329-2.125c.781-.7,1.608-1.348,2.332-2.066a7.21,7.21,0,0,0,1.745-2.457,4.186,4.186,0,0,0,.115-3.039,3.959,3.959,0,0,1,.346,3.2,6.893,6.893,0,0,1-1.7,2.817,29.156,29.156,0,0,1-2.355,2.141c-.634.54-1.284,1.059-1.937,1.574,1.282.241,2.48.723,3.716,1.037A18.815,18.815,0,0,1,390.351,201.469Z" transform="translate(-293.342 -174.228)" fill="#fff"/>
      <path id="Path_6303" data-name="Path 6303" d="M395.3,200.63a1.7,1.7,0,0,0-.4-.267,1.648,1.648,0,0,0-.262-.092,1.612,1.612,0,0,0-.429-.064,1.658,1.658,0,0,0-1.355.71l0,0a1.772,1.772,0,0,0-.338,1.033v.01a1.729,1.729,0,0,0,1.7,1.756h0a1.514,1.514,0,0,0,.417-.06c.018,0,.035-.012.054-.018a1.7,1.7,0,0,0,.972-.773,1.749,1.749,0,0,0,.125-.251,1.829,1.829,0,0,0,.1-.4c0-.026,0-.052.007-.078q.013-.088.017-.176a1.816,1.816,0,0,0-.6-1.333Zm-1.09,2.356h0a1.018,1.018,0,1,1,.987-1.024,1,1,0,0,1-.987,1.024Z" transform="translate(-290.428 -169.528)" fill="#fff"/>
      <path id="Path_6304" data-name="Path 6304" d="M357.8,205.786H339.938v2.907h19.936v-2.915h-2.051C357.817,205.778,357.812,205.786,357.8,205.786Z" transform="translate(-297.816 -168.523)" fill="#fff"/>
      <path id="Path_6305" data-name="Path 6305" d="M341.379,205.56h16.345v-2.917H337.789v2.917Z" transform="translate(-298.118 -169.089)" fill="#fff"/>
      <path id="Path_6306" data-name="Path 6306" d="M356.4,202.2h2.631v-2.917H339.1V202.2Z" transform="translate(-297.936 -169.697)" fill="#fff"/>
      <path id="Path_6307" data-name="Path 6307" d="M357.627,195.963H341.02v2.916h19.934v-2.916Z" transform="translate(-297.665 -170.297)" fill="#fff"/>
      <path id="Path_6308" data-name="Path 6308" d="M342.428,195.738h16.606v-2.917H339.1v2.917h3.328Z" transform="translate(-297.936 -170.865)" fill="#fff"/>
      <path id="Path_6309" data-name="Path 6309" d="M357.778,192.6h2.1v-2.917H339.938V192.6h17.839Z" transform="translate(-297.816 -171.433)" fill="#fff"/>
    </g>
  </g>
</svg>
